<svg width="203" height="59" viewBox="0 0 203 59" fill="none" xmlns="http://www.w3.org/2000/svg">
<rect x="0.5" y="0.500244" width="202" height="57.2369" rx="7.5" stroke="white"/>
<path d="M47.2625 29.8375C47.25 27.7689 48.2156 26.2099 50.1656 25.0603C49.075 23.5437 47.425 22.7096 45.25 22.5489C43.1906 22.3911 40.9375 23.7136 40.1125 23.7136C39.2406 23.7136 37.2469 22.6035 35.6781 22.6035C32.4406 22.652 29 25.1088 29 30.1075C29 31.5846 29.2781 33.1103 29.8344 34.6815C30.5781 36.7501 33.2594 41.8185 36.0562 41.7366C37.5187 41.7033 38.5531 40.7296 40.4562 40.7296C42.3031 40.7296 43.2594 41.7366 44.8906 41.7366C47.7125 41.6972 50.1375 37.0898 50.8438 35.0151C47.0594 33.2832 47.2625 29.9437 47.2625 29.8375ZM43.9781 20.5864C45.5625 18.7604 45.4188 17.0983 45.3719 16.5007C43.9719 16.5796 42.3531 17.4258 41.4312 18.4662C40.4156 19.5824 39.8187 20.9625 39.9469 22.5185C41.4594 22.6307 42.8406 21.8755 43.9781 20.5864Z" fill="white"/>
<path d="M80.671 20.1175C80.671 21.0449 80.4847 21.8552 80.112 22.5485C79.7393 23.2332 79.189 23.7662 78.461 24.1475C77.7417 24.5202 76.875 24.7065 75.861 24.7065H72.949V15.5415H75.861C76.875 15.5415 77.7417 15.7279 78.461 16.1005C79.189 16.4645 79.7393 16.9932 80.112 17.6865C80.4847 18.3712 80.671 19.1815 80.671 20.1175ZM75.77 23.6405C76.966 23.6405 77.8803 23.3329 78.513 22.7175C79.1457 22.1022 79.462 21.2355 79.462 20.1175C79.462 18.9995 79.1457 18.1329 78.513 17.5175C77.889 16.8935 76.9747 16.5815 75.77 16.5815H74.132V23.6405H75.77ZM82.0594 15.4765C82.0594 15.2599 82.133 15.0865 82.2804 14.9565C82.4277 14.8179 82.6227 14.7485 82.8654 14.7485C83.108 14.7485 83.303 14.8179 83.4504 14.9565C83.5977 15.0865 83.6714 15.2599 83.6714 15.4765C83.6714 15.6932 83.5977 15.8709 83.4504 16.0095C83.303 16.1395 83.108 16.2045 82.8654 16.2045C82.6227 16.2045 82.4277 16.1395 82.2804 16.0095C82.133 15.8709 82.0594 15.6932 82.0594 15.4765ZM83.4504 17.5695V24.7065H82.2674V17.5695H83.4504ZM87.5883 17.4785C88.3943 17.4785 89.04 17.6909 89.5253 18.1155C90.0193 18.5315 90.3183 19.0949 90.4223 19.8055H89.2913C89.2393 19.3809 89.0617 19.0342 88.7583 18.7655C88.4637 18.4882 88.065 18.3495 87.5623 18.3495C87.1377 18.3495 86.804 18.4535 86.5613 18.6615C86.3273 18.8609 86.2103 19.1339 86.2103 19.4805C86.2103 19.7405 86.2883 19.9529 86.4443 20.1175C86.609 20.2735 86.8083 20.3949 87.0423 20.4815C87.285 20.5595 87.6143 20.6462 88.0303 20.7415C88.559 20.8629 88.9837 20.9885 89.3043 21.1185C89.6337 21.2399 89.911 21.4392 90.1363 21.7165C90.3703 21.9939 90.4873 22.3665 90.4873 22.8345C90.4873 23.4152 90.2663 23.8875 89.8243 24.2515C89.391 24.6155 88.8103 24.7975 88.0823 24.7975C87.233 24.7975 86.5397 24.5939 86.0023 24.1865C85.465 23.7792 85.1487 23.2115 85.0533 22.4835H86.1973C86.2407 22.9169 86.427 23.2679 86.7563 23.5365C87.0943 23.8052 87.5363 23.9395 88.0823 23.9395C88.4897 23.9395 88.806 23.8355 89.0313 23.6275C89.2653 23.4195 89.3823 23.1465 89.3823 22.8085C89.3823 22.5312 89.3 22.3102 89.1353 22.1455C88.9707 21.9809 88.767 21.8552 88.5243 21.7685C88.2817 21.6819 87.948 21.5909 87.5233 21.4955C86.9947 21.3742 86.57 21.2529 86.2493 21.1315C85.9373 21.0102 85.6687 20.8195 85.4433 20.5595C85.2267 20.2909 85.1183 19.9312 85.1183 19.4805C85.1183 18.8825 85.3393 18.4015 85.7813 18.0375C86.2233 17.6649 86.8257 17.4785 87.5883 17.4785ZM96.0071 17.4785C96.6398 17.4785 97.2031 17.6259 97.6971 17.9205C98.1911 18.2152 98.5768 18.6399 98.8541 19.1945C99.1401 19.7492 99.2831 20.3992 99.2831 21.1445C99.2831 21.8899 99.1401 22.5399 98.8541 23.0945C98.5768 23.6405 98.1911 24.0609 97.6971 24.3555C97.2031 24.6502 96.6398 24.7975 96.0071 24.7975C95.3138 24.7975 94.7245 24.6242 94.2391 24.2775C93.7625 23.9222 93.4331 23.4585 93.2511 22.8865V28.0865H92.0681V17.5695H93.2511V19.3895C93.4331 18.8175 93.7625 18.3582 94.2391 18.0115C94.7245 17.6562 95.3138 17.4785 96.0071 17.4785ZM95.6691 18.5315C95.2098 18.5315 94.7938 18.6399 94.4211 18.8565C94.0485 19.0645 93.7581 19.3679 93.5501 19.7665C93.3421 20.1652 93.2381 20.6245 93.2381 21.1445C93.2381 21.6645 93.3421 22.1239 93.5501 22.5225C93.7581 22.9125 94.0485 23.2159 94.4211 23.4325C94.7938 23.6492 95.2098 23.7575 95.6691 23.7575C96.4058 23.7575 96.9908 23.5279 97.4241 23.0685C97.8661 22.6005 98.0871 21.9592 98.0871 21.1445C98.0871 20.3299 97.8661 19.6929 97.4241 19.2335C96.9908 18.7655 96.4058 18.5315 95.6691 18.5315ZM104.065 17.4785C104.75 17.4785 105.361 17.6259 105.898 17.9205C106.444 18.2152 106.869 18.6399 107.172 19.1945C107.484 19.7492 107.64 20.3992 107.64 21.1445C107.64 21.8899 107.484 22.5399 107.172 23.0945C106.869 23.6405 106.444 24.0609 105.898 24.3555C105.361 24.6502 104.75 24.7975 104.065 24.7975C103.38 24.7975 102.765 24.6502 102.219 24.3555C101.682 24.0609 101.257 23.6405 100.945 23.0945C100.633 22.5399 100.477 21.8899 100.477 21.1445C100.477 20.3992 100.633 19.7492 100.945 19.1945C101.257 18.6399 101.682 18.2152 102.219 17.9205C102.765 17.6259 103.38 17.4785 104.065 17.4785ZM104.065 18.5185C103.64 18.5185 103.246 18.6139 102.882 18.8045C102.527 18.9952 102.236 19.2899 102.011 19.6885C101.794 20.0785 101.686 20.5639 101.686 21.1445C101.686 21.7165 101.794 22.2019 102.011 22.6005C102.236 22.9905 102.527 23.2809 102.882 23.4715C103.246 23.6622 103.64 23.7575 104.065 23.7575C104.49 23.7575 104.88 23.6622 105.235 23.4715C105.599 23.2809 105.889 22.9905 106.106 22.6005C106.331 22.2019 106.444 21.7165 106.444 21.1445C106.444 20.5639 106.331 20.0785 106.106 19.6885C105.889 19.2899 105.599 18.9952 105.235 18.8045C104.88 18.6139 104.49 18.5185 104.065 18.5185ZM112.938 17.4525C113.77 17.4525 114.442 17.7212 114.953 18.2585C115.465 18.7872 115.72 19.5542 115.72 20.5595V24.7065H114.537V20.6635C114.537 19.9529 114.355 19.4069 113.991 19.0255C113.627 18.6442 113.133 18.4535 112.509 18.4535C111.859 18.4535 111.339 18.6659 110.949 19.0905C110.559 19.5065 110.364 20.1175 110.364 20.9235V24.7065H109.181V17.5695H110.364V19.2595C110.546 18.6789 110.867 18.2325 111.326 17.9205C111.794 17.6085 112.332 17.4525 112.938 17.4525ZM118.835 17.5695V24.7065H117.639V17.5695H118.835ZM120.382 15.4895L117.613 17.0105V16.1655L120.382 14.5275V15.4895ZM123.617 23.4455L125.827 17.5695H127.101L124.306 24.7065H122.902L120.107 17.5695H121.381L123.617 23.4455ZM134.827 20.7415C134.827 20.9929 134.81 21.2095 134.775 21.3915H129.068C129.094 22.2062 129.324 22.8172 129.757 23.2245C130.199 23.6319 130.737 23.8355 131.369 23.8355C131.941 23.8355 132.418 23.6925 132.799 23.4065C133.189 23.1119 133.428 22.7219 133.514 22.2365H134.775C134.689 22.7305 134.494 23.1725 134.19 23.5625C133.896 23.9525 133.51 24.2559 133.033 24.4725C132.557 24.6892 132.019 24.7975 131.421 24.7975C130.737 24.7975 130.13 24.6502 129.601 24.3555C129.073 24.0609 128.657 23.6405 128.353 23.0945C128.059 22.5399 127.911 21.8899 127.911 21.1445C127.911 20.3992 128.059 19.7492 128.353 19.1945C128.657 18.6399 129.073 18.2152 129.601 17.9205C130.13 17.6259 130.737 17.4785 131.421 17.4785C132.115 17.4785 132.717 17.6259 133.228 17.9205C133.748 18.2152 134.143 18.6095 134.411 19.1035C134.689 19.5975 134.827 20.1435 134.827 20.7415ZM133.631 20.8195C133.657 20.2909 133.571 19.8489 133.371 19.4935C133.172 19.1382 132.899 18.8739 132.552 18.7005C132.206 18.5272 131.829 18.4405 131.421 18.4405C130.771 18.4405 130.225 18.6442 129.783 19.0515C129.341 19.4502 129.103 20.0395 129.068 20.8195H133.631ZM137.558 15.0865V24.7065H136.375V15.0865H137.558ZM146.429 17.4525C147.261 17.4525 147.932 17.7212 148.444 18.2585C148.955 18.7872 149.211 19.5542 149.211 20.5595V24.7065H148.028V20.6635C148.028 19.9529 147.846 19.4069 147.482 19.0255C147.118 18.6442 146.624 18.4535 146 18.4535C145.35 18.4535 144.83 18.6659 144.44 19.0905C144.05 19.5065 143.855 20.1175 143.855 20.9235V24.7065H142.672V17.5695H143.855V19.2595C144.037 18.6789 144.357 18.2325 144.817 17.9205C145.285 17.6085 145.822 17.4525 146.429 17.4525ZM153.95 17.4785C154.644 17.4785 155.229 17.6519 155.705 17.9985C156.191 18.3452 156.529 18.8089 156.719 19.3895V17.5695H157.902V24.7065H156.719V22.8865C156.529 23.4672 156.191 23.9309 155.705 24.2775C155.229 24.6242 154.644 24.7975 153.95 24.7975C153.318 24.7975 152.754 24.6502 152.26 24.3555C151.766 24.0609 151.376 23.6405 151.09 23.0945C150.813 22.5399 150.674 21.8899 150.674 21.1445C150.674 20.3992 150.813 19.7492 151.09 19.1945C151.376 18.6399 151.766 18.2152 152.26 17.9205C152.754 17.6259 153.318 17.4785 153.95 17.4785ZM154.288 18.5315C153.56 18.5315 152.975 18.7655 152.533 19.2335C152.1 19.6929 151.883 20.3299 151.883 21.1445C151.883 21.9592 152.1 22.6005 152.533 23.0685C152.975 23.5279 153.56 23.7575 154.288 23.7575C154.756 23.7575 155.172 23.6492 155.536 23.4325C155.909 23.2159 156.199 22.9125 156.407 22.5225C156.615 22.1239 156.719 21.6645 156.719 21.1445C156.719 20.6245 156.615 20.1652 156.407 19.7665C156.199 19.3679 155.909 19.0645 155.536 18.8565C155.172 18.6399 154.756 18.5315 154.288 18.5315Z" fill="white"/>
<path d="M79.952 42.1428H75.712L75.008 44.2068H72.128L76.272 32.9748H79.424L83.568 44.2068H80.656L79.952 42.1428ZM79.248 40.0628L77.84 35.9028L76.416 40.0628H79.248ZM90.1995 35.1668C90.9355 35.1668 91.5915 35.3535 92.1675 35.7268C92.7542 36.0895 93.2128 36.6175 93.5435 37.3108C93.8848 37.9935 94.0555 38.8041 94.0555 39.7428C94.0555 40.6708 93.8848 41.4815 93.5435 42.1748C93.2128 42.8681 92.7542 43.4015 92.1675 43.7748C91.5915 44.1375 90.9355 44.3188 90.1995 44.3188C89.5168 44.3188 88.9302 44.1641 88.4395 43.8548C87.9488 43.5455 87.5915 43.1241 87.3675 42.5908V48.4628H84.6315V35.2788H87.3675V36.8948C87.5915 36.3615 87.9488 35.9401 88.4395 35.6308C88.9302 35.3215 89.5168 35.1668 90.1995 35.1668ZM89.3195 37.5668C88.7435 37.5668 88.2688 37.7641 87.8955 38.1588C87.5328 38.5428 87.3515 39.0708 87.3515 39.7428C87.3515 40.4041 87.5328 40.9321 87.8955 41.3268C88.2688 41.7215 88.7435 41.9188 89.3195 41.9188C89.9062 41.9188 90.3755 41.7268 90.7275 41.3428C91.0902 40.9588 91.2715 40.4255 91.2715 39.7428C91.2715 39.0601 91.0902 38.5268 90.7275 38.1428C90.3755 37.7588 89.9062 37.5668 89.3195 37.5668ZM101.043 35.1668C101.779 35.1668 102.435 35.3535 103.011 35.7268C103.598 36.0895 104.057 36.6175 104.387 37.3108C104.729 37.9935 104.899 38.8041 104.899 39.7428C104.899 40.6708 104.729 41.4815 104.387 42.1748C104.057 42.8681 103.598 43.4015 103.011 43.7748C102.435 44.1375 101.779 44.3188 101.043 44.3188C100.361 44.3188 99.7739 44.1641 99.2833 43.8548C98.7926 43.5455 98.4353 43.1241 98.2113 42.5908V48.4628H95.4753V35.2788H98.2113V36.8948C98.4353 36.3615 98.7926 35.9401 99.2833 35.6308C99.7739 35.3215 100.361 35.1668 101.043 35.1668ZM100.163 37.5668C99.5873 37.5668 99.1126 37.7641 98.7393 38.1588C98.3766 38.5428 98.1953 39.0708 98.1953 39.7428C98.1953 40.4041 98.3766 40.9321 98.7393 41.3268C99.1126 41.7215 99.5873 41.9188 100.163 41.9188C100.75 41.9188 101.219 41.7268 101.571 41.3428C101.934 40.9588 102.115 40.4255 102.115 39.7428C102.115 39.0601 101.934 38.5268 101.571 38.1428C101.219 37.7588 100.75 37.5668 100.163 37.5668ZM109.055 32.3668V44.2068H106.319V32.3668H109.055ZM119.424 39.5028C119.424 39.7268 119.397 39.9721 119.344 40.2388H113.152C113.184 40.9108 113.355 41.3961 113.664 41.6948C113.973 41.9828 114.368 42.1268 114.848 42.1268C115.253 42.1268 115.589 42.0255 115.856 41.8228C116.123 41.6201 116.299 41.3588 116.384 41.0388H119.28C119.163 41.6681 118.907 42.2335 118.512 42.7348C118.117 43.2255 117.616 43.6148 117.008 43.9028C116.4 44.1801 115.723 44.3188 114.976 44.3188C114.101 44.3188 113.323 44.1375 112.64 43.7748C111.968 43.4015 111.44 42.8681 111.056 42.1748C110.672 41.4815 110.48 40.6708 110.48 39.7428C110.48 38.8041 110.667 37.9935 111.04 37.3108C111.424 36.6175 111.957 36.0895 112.64 35.7268C113.323 35.3535 114.101 35.1668 114.976 35.1668C115.861 35.1668 116.64 35.3481 117.312 35.7108C117.984 36.0735 118.501 36.5855 118.864 37.2468C119.237 37.8975 119.424 38.6495 119.424 39.5028ZM116.656 39.0868C116.667 38.5001 116.507 38.0628 116.176 37.7748C115.856 37.4761 115.456 37.3268 114.976 37.3268C114.475 37.3268 114.059 37.4761 113.728 37.7748C113.397 38.0735 113.211 38.5108 113.168 39.0868H116.656ZM132.181 41.0228C132.181 41.6201 132.027 42.1695 131.717 42.6708C131.419 43.1721 130.971 43.5721 130.373 43.8708C129.787 44.1695 129.072 44.3188 128.229 44.3188C126.96 44.3188 125.915 44.0095 125.093 43.3908C124.272 42.7721 123.824 41.9081 123.749 40.7988H126.661C126.704 41.2255 126.853 41.5615 127.109 41.8068C127.376 42.0521 127.712 42.1748 128.117 42.1748C128.469 42.1748 128.747 42.0788 128.949 41.8868C129.152 41.6948 129.253 41.4388 129.253 41.1188C129.253 40.8308 129.157 40.5908 128.965 40.3988C128.784 40.2068 128.555 40.0521 128.277 39.9348C128 39.8068 127.616 39.6575 127.125 39.4868C126.411 39.2415 125.824 39.0068 125.365 38.7828C124.917 38.5481 124.528 38.2068 124.197 37.7588C123.877 37.3001 123.717 36.7081 123.717 35.9828C123.717 35.3108 123.888 34.7295 124.229 34.2388C124.571 33.7481 125.04 33.3748 125.637 33.1188C126.245 32.8521 126.939 32.7188 127.717 32.7188C128.976 32.7188 129.973 33.0175 130.709 33.6148C131.456 34.2121 131.877 35.0335 131.973 36.0788H129.013C128.96 35.7055 128.821 35.4121 128.597 35.1988C128.384 34.9748 128.091 34.8628 127.717 34.8628C127.397 34.8628 127.136 34.9481 126.933 35.1188C126.741 35.2895 126.645 35.5401 126.645 35.8708C126.645 36.1375 126.731 36.3668 126.901 36.5588C127.083 36.7401 127.307 36.8895 127.573 37.0068C127.84 37.1241 128.224 37.2735 128.725 37.4548C129.451 37.7001 130.043 37.9455 130.501 38.1908C130.96 38.4255 131.355 38.7721 131.685 39.2308C132.016 39.6895 132.181 40.2868 132.181 41.0228ZM138.75 41.8548V44.2068H137.518C136.473 44.2068 135.657 43.9508 135.07 43.4388C134.494 42.9161 134.206 42.0575 134.206 40.8628V37.5828H133.006V35.2788H134.206V33.0868H136.942V35.2788H138.734V37.5828H136.942V40.9108C136.942 41.2628 137.011 41.5081 137.15 41.6468C137.299 41.7855 137.545 41.8548 137.886 41.8548H138.75ZM144.464 35.1668C145.349 35.1668 146.138 35.3535 146.832 35.7268C147.536 36.0895 148.085 36.6175 148.48 37.3108C148.885 38.0041 149.088 38.8148 149.088 39.7428C149.088 40.6708 148.885 41.4815 148.48 42.1748C148.085 42.8681 147.536 43.4015 146.832 43.7748C146.138 44.1375 145.349 44.3188 144.464 44.3188C143.578 44.3188 142.784 44.1375 142.08 43.7748C141.376 43.4015 140.821 42.8681 140.416 42.1748C140.021 41.4815 139.824 40.6708 139.824 39.7428C139.824 38.8148 140.021 38.0041 140.416 37.3108C140.821 36.6175 141.376 36.0895 142.08 35.7268C142.784 35.3535 143.578 35.1668 144.464 35.1668ZM144.464 37.5348C143.941 37.5348 143.498 37.7268 143.136 38.1108C142.784 38.4841 142.608 39.0281 142.608 39.7428C142.608 40.4575 142.784 41.0015 143.136 41.3748C143.498 41.7481 143.941 41.9348 144.464 41.9348C144.986 41.9348 145.424 41.7481 145.776 41.3748C146.128 41.0015 146.304 40.4575 146.304 39.7428C146.304 39.0281 146.128 38.4841 145.776 38.1108C145.424 37.7268 144.986 37.5348 144.464 37.5348ZM153.243 36.9588C153.584 36.4148 154.021 35.9828 154.555 35.6628C155.099 35.3428 155.685 35.1828 156.315 35.1828V38.1108H155.531C154.805 38.1108 154.24 38.2655 153.835 38.5748C153.44 38.8841 153.243 39.4068 153.243 40.1428V44.2068H150.507V35.2788H153.243V36.9588ZM165.94 39.5028C165.94 39.7268 165.913 39.9721 165.86 40.2388H159.668C159.7 40.9108 159.87 41.3961 160.18 41.6948C160.489 41.9828 160.884 42.1268 161.364 42.1268C161.769 42.1268 162.105 42.0255 162.372 41.8228C162.638 41.6201 162.814 41.3588 162.9 41.0388H165.796C165.678 41.6681 165.422 42.2335 165.028 42.7348C164.633 43.2255 164.132 43.6148 163.524 43.9028C162.916 44.1801 162.238 44.3188 161.492 44.3188C160.617 44.3188 159.838 44.1375 159.156 43.7748C158.484 43.4015 157.956 42.8681 157.572 42.1748C157.188 41.4815 156.996 40.6708 156.996 39.7428C156.996 38.8041 157.182 37.9935 157.556 37.3108C157.94 36.6175 158.473 36.0895 159.156 35.7268C159.838 35.3535 160.617 35.1668 161.492 35.1668C162.377 35.1668 163.156 35.3481 163.828 35.7108C164.5 36.0735 165.017 36.5855 165.38 37.2468C165.753 37.8975 165.94 38.6495 165.94 39.5028ZM163.172 39.0868C163.182 38.5001 163.022 38.0628 162.692 37.7748C162.372 37.4761 161.972 37.3268 161.492 37.3268C160.99 37.3268 160.574 37.4761 160.244 37.7748C159.913 38.0735 159.726 38.5108 159.684 39.0868H163.172Z" fill="white"/>
</svg>
