<svg width="570" height="382" viewBox="0 0 570 382" fill="none" xmlns="http://www.w3.org/2000/svg">
<rect width="570" height="382" rx="8" fill="url(#paint0_linear)"/>
<mask id="mask0" mask-type="alpha" maskUnits="userSpaceOnUse" x="0" y="0" width="570" height="382">
<rect width="570" height="382" rx="8" fill="url(#paint1_linear)"/>
</mask>
<g mask="url(#mask0)">
<g opacity="0.4">
<path d="M-239.54 444.492L-373.951 109.494C-387.293 75.8394 -355.173 41.4111 -310.204 41.4111H111.314C140.469 41.4111 166.659 56.1108 175.06 78.1604L308.978 413.159C322.32 446.813 290.199 481.242 245.231 481.242H-175.793C-204.948 481.242 -231.139 466.542 -239.54 444.492Z" fill="url(#paint2_linear)"/>
<path d="M421.645 -399.193L592.624 28.6455C609.919 71.5842 568.904 115.683 511.088 115.683H-26.5579C-64.114 115.683 -96.7286 96.7284 -108.094 68.8763L-279.073 -358.962C-296.369 -402.288 -255.354 -446 -198.031 -446H340.108C377.665 -446 410.773 -427.045 421.645 -399.193Z" fill="url(#paint3_linear)"/>
<path d="M981.527 -172.121L1121.87 177.964C1136.2 213.166 1102.1 249.141 1055.16 249.141H614.367C583.729 249.141 556.55 233.668 547.655 210.845L407.314 -139.24C392.984 -174.442 427.081 -210.418 474.026 -210.418H914.816C945.454 -210.418 972.633 -194.944 981.527 -172.121Z" fill="url(#paint4_linear)"/>
<path d="M649.947 129.222L772.992 436.756C785.346 467.702 755.697 499.423 714.187 499.423H327.26C300.576 499.423 276.856 485.884 268.455 465.768L145.41 158.235C133.056 127.288 162.705 95.5679 204.215 95.5679H591.142C617.826 95.5679 641.546 109.107 649.947 129.222Z" fill="url(#paint5_linear)"/>
</g>
</g>
<path d="M521.1 181.9C521.6 181.9 522.033 182.1 522.366 182.467C522.666 182.833 522.833 183.333 522.733 183.8L520.4 198.667C520.266 199.467 519.6 200.067 518.766 200.067H429.666C428.966 200.067 428.333 199.633 428.066 199L424.966 191.667C424.833 191.3 424.866 190.933 425.066 190.6L430.233 182.733C430.566 182.233 431.1 181.933 431.7 181.933H521.1V181.9ZM521.1 181H431.7C430.8 181 429.966 181.467 429.466 182.2L424.3 190.067C423.933 190.633 423.866 191.367 424.133 192L427.266 199.367C427.666 200.367 428.633 201 429.733 201H518.833C520.1 201 521.166 200.067 521.366 198.833L523.7 183.967C523.9 182.4 522.7 181 521.1 181Z" fill="white"/>
<path d="M441.267 186.833H442.267C442.4 186.833 442.467 186.867 442.533 186.933C442.6 187 442.633 187.1 442.6 187.233L441.767 195.733H440.933L441.733 187.533H441.467L438.167 194.533C438.1 194.7 437.967 194.8 437.767 194.8H436.9C436.7 194.8 436.567 194.7 436.533 194.5L435.167 187.533H434.867L433.4 195.733H432.533L434.1 187.2C434.167 186.967 434.3 186.833 434.5 186.833H435.5C435.7 186.833 435.8 186.933 435.833 187.133L437 192.967C437.033 193.1 437.067 193.3 437.1 193.567C437.133 193.833 437.167 194.033 437.2 194.167H437.5C437.7 193.7 437.867 193.3 438.033 192.933L440.8 187.1C440.933 186.933 441.067 186.833 441.267 186.833Z" fill="white"/>
<path d="M450.4 187.533H446.8C446.2 187.533 445.833 187.867 445.767 188.5L445.467 190.7H449.467L449.367 191.367H445.367L445 194.133C444.9 194.733 445.167 195.033 445.767 195.033H449.333V195.667C448.533 195.733 447.333 195.733 445.667 195.733C445.1 195.733 444.7 195.6 444.433 195.3C444.167 195 444.067 194.6 444.133 194.1L444.967 188.233C445.033 187.8 445.2 187.433 445.5 187.167C445.8 186.9 446.2 186.767 446.7 186.767C448.433 186.767 449.733 186.8 450.533 186.833L450.4 187.533Z" fill="white"/>
<path d="M459.033 186.833L457.833 195.4C457.799 195.633 457.666 195.733 457.466 195.733H456.599C456.433 195.733 456.299 195.633 456.233 195.433L453.699 188.667C453.533 188.167 453.399 187.833 453.366 187.633H453.099C453.066 188 453.033 188.367 452.999 188.733L452.033 195.733H451.166L452.366 187.167C452.399 186.933 452.533 186.833 452.766 186.833H453.566C453.766 186.833 453.899 186.933 453.966 187.133L456.433 193.733C456.599 194.233 456.766 194.633 456.833 194.933H457.133C457.166 194.667 457.199 194.233 457.266 193.7L458.233 186.833H459.033Z" fill="white"/>
<path d="M463.934 191.933L462.101 191.233C461.501 191 461.067 190.7 460.867 190.333C460.667 189.967 460.567 189.467 460.667 188.833C460.734 188.367 460.867 187.967 461.001 187.667C461.167 187.367 461.401 187.167 461.667 187C461.967 186.867 462.267 186.767 462.567 186.733C462.867 186.7 463.267 186.667 463.734 186.667C464.667 186.667 465.501 186.733 466.301 186.9L466.201 187.5C465.234 187.433 464.401 187.433 463.634 187.433C463.401 187.433 463.201 187.433 463.067 187.433C462.934 187.433 462.801 187.467 462.601 187.5C462.401 187.533 462.267 187.567 462.167 187.633C462.067 187.7 461.967 187.767 461.867 187.9C461.767 188 461.667 188.133 461.601 188.333C461.534 188.5 461.501 188.7 461.467 188.967C461.401 189.433 461.467 189.767 461.601 189.967C461.734 190.167 462.034 190.367 462.467 190.567L464.267 191.267C464.934 191.533 465.367 191.833 465.567 192.2C465.767 192.567 465.834 193.067 465.734 193.733C465.667 194.2 465.567 194.6 465.401 194.9C465.234 195.2 465.034 195.4 464.734 195.567C464.434 195.733 464.134 195.833 463.801 195.867C463.467 195.9 463.034 195.933 462.467 195.933C461.534 195.933 460.667 195.867 459.834 195.733L459.934 195.1C460.967 195.167 461.834 195.167 462.501 195.167C463.334 195.167 463.901 195.067 464.234 194.867C464.567 194.667 464.767 194.267 464.867 193.6C464.934 193.133 464.901 192.767 464.767 192.567C464.701 192.333 464.401 192.133 463.934 191.933Z" fill="white"/>
<path d="M472.534 192.8H468.667L467.3 195.733H466.4L470.6 187.067C470.667 186.933 470.767 186.833 470.934 186.833H471.9C471.967 186.833 472.034 186.867 472.1 186.9C472.167 186.967 472.2 187 472.2 187.067L473.967 195.7H473.1L472.534 192.8ZM472.367 192.033L471.634 188.233C471.6 188.133 471.6 188.033 471.567 187.867C471.534 187.7 471.534 187.567 471.5 187.5H471.1C471.067 187.567 471.034 187.667 470.934 187.833C470.867 188 470.8 188.133 470.734 188.233L469 192.033H472.367Z" fill="white"/>
<path d="M477.334 186.833L476.301 194.1C476.267 194.4 476.301 194.6 476.434 194.767C476.567 194.933 476.767 195 477.067 195H480.401L480.367 195.633C479.601 195.7 478.434 195.7 476.901 195.7C476.401 195.7 476.001 195.567 475.734 195.267C475.467 194.967 475.367 194.567 475.434 194.033L476.434 186.767H477.334V186.833Z" fill="white"/>
<path d="M482.632 195.733H481.766L483.032 186.833H483.899L482.632 195.733Z" fill="white"/>
<path d="M485 195.733L486.267 186.833C487.3 186.767 488.3 186.733 489.2 186.733C490.5 186.733 491.367 187.067 491.833 187.767C492.267 188.467 492.367 189.633 492.133 191.333C492 192.267 491.833 193.033 491.633 193.6C491.433 194.167 491.167 194.633 490.8 194.967C490.467 195.3 490.067 195.533 489.633 195.667C489.2 195.8 488.633 195.867 487.967 195.867C487.1 195.833 486.1 195.8 485 195.733ZM487.033 187.467L485.967 195.067C486.833 195.1 487.5 195.1 487.967 195.1C488.667 195.1 489.233 195 489.667 194.767C490.067 194.567 490.4 194.167 490.667 193.633C490.933 193.1 491.133 192.3 491.267 191.233C491.467 189.767 491.433 188.767 491.167 188.233C490.867 187.7 490.233 187.433 489.233 187.433C489.067 187.433 488.367 187.467 487.033 187.467Z" fill="white"/>
<path d="M498.633 192.8H494.767L493.4 195.733H492.5L496.7 187.067C496.767 186.933 496.867 186.833 497.033 186.833H498C498.067 186.833 498.133 186.867 498.2 186.9C498.267 186.967 498.3 187 498.3 187.067L500.067 195.7H499.2L498.633 192.8ZM498.467 192.033L497.733 188.233C497.7 188.133 497.7 188.033 497.667 187.867C497.633 187.7 497.633 187.567 497.6 187.5H497.2C497.167 187.567 497.133 187.667 497.033 187.833C496.967 188 496.9 188.133 496.833 188.233L495.033 192.033H498.467Z" fill="white"/>
<path d="M501.367 195.733L502.634 186.833C503.667 186.767 504.667 186.733 505.567 186.733C506.867 186.733 507.734 187.067 508.201 187.767C508.634 188.467 508.734 189.633 508.501 191.333C508.367 192.267 508.201 193.033 508.001 193.6C507.801 194.167 507.534 194.633 507.167 194.967C506.834 195.3 506.434 195.533 506.001 195.667C505.567 195.8 505.001 195.867 504.334 195.867C503.434 195.833 502.467 195.8 501.367 195.733ZM503.367 187.467L502.301 195.067C503.167 195.1 503.834 195.1 504.301 195.1C505.001 195.1 505.567 195 506.001 194.767C506.401 194.567 506.734 194.167 507.001 193.633C507.267 193.1 507.467 192.3 507.601 191.233C507.801 189.767 507.767 188.767 507.501 188.233C507.201 187.7 506.567 187.433 505.567 187.433C505.434 187.433 504.701 187.467 503.367 187.467Z" fill="white"/>
<path d="M516.267 187.533H512.667C512.067 187.533 511.7 187.867 511.634 188.5L511.334 190.667H515.334L515.234 191.333H511.234L510.867 194.1C510.767 194.7 511.034 195 511.634 195H515.2V195.667C514.4 195.733 513.2 195.733 511.534 195.733C510.967 195.733 510.567 195.6 510.3 195.3C510.034 195 509.934 194.6 510 194.1L510.834 188.233C510.9 187.8 511.067 187.433 511.367 187.167C511.667 186.9 512.067 186.767 512.567 186.767C514.3 186.767 515.6 186.8 516.4 186.833L516.267 187.533Z" fill="white"/>
<path d="M426.366 191.9C426.771 191.9 427.099 191.572 427.099 191.167C427.099 190.762 426.771 190.433 426.366 190.433C425.961 190.433 425.633 190.762 425.633 191.167C425.633 191.572 425.961 191.9 426.366 191.9Z" fill="white"/>
<path d="M359.2 190.8L356.567 189.733C355.567 189.333 354.9 188.8 354.533 188.133C354.2 187.467 354.067 186.667 354.2 185.667C354.4 184.2 354.9 183.233 355.733 182.733C356.567 182.233 357.833 182 359.567 182C361.3 182 362.8 182.2 364.1 182.567L363.8 184.633C362.6 184.6 361.167 184.567 359.5 184.567C358.667 184.567 358.133 184.6 357.833 184.767C357.533 184.9 357.333 185.267 357.233 185.9C357.167 186.367 357.2 186.667 357.333 186.833C357.467 187 357.8 187.2 358.333 187.4L360.833 188.367C361.9 188.767 362.6 189.3 362.933 189.9C363.267 190.533 363.367 191.367 363.233 192.433C363.033 193.933 362.533 194.967 361.767 195.5C360.967 196.033 359.667 196.3 357.767 196.3C356.2 196.3 354.633 196.133 353 195.767L353.333 193.6C356.167 193.667 357.633 193.7 357.667 193.7C358.6 193.7 359.233 193.6 359.567 193.433C359.9 193.267 360.1 192.867 360.2 192.3C360.267 191.833 360.2 191.533 360.067 191.367C359.933 191.167 359.667 190.967 359.2 190.8Z" fill="white"/>
<path d="M373.133 193.7L373.333 195.567C372.233 196.033 370.766 196.267 368.966 196.267C367.066 196.267 365.766 195.833 365.066 194.967C364.366 194.1 364.099 192.733 364.333 190.933C364.566 189.033 365.133 187.7 365.966 187C366.833 186.3 368.199 185.933 370.066 185.933C371.799 185.933 372.999 186.233 373.633 186.8C374.266 187.367 374.499 188.2 374.333 189.333C374.199 190.267 373.833 190.933 373.199 191.333C372.566 191.733 371.599 191.967 370.266 192.067L367.333 192.3C367.333 192.967 367.499 193.4 367.833 193.6C368.133 193.833 368.633 193.933 369.333 193.933C370.599 193.933 371.866 193.833 373.133 193.7ZM367.499 190.533L369.799 190.3C370.333 190.267 370.733 190.167 370.966 189.967C371.199 189.8 371.366 189.467 371.433 189C371.466 188.567 371.399 188.3 371.166 188.167C370.966 188.067 370.533 188 369.833 188.033C369.066 188.033 368.499 188.2 368.199 188.533C367.899 188.9 367.666 189.533 367.499 190.533Z" fill="white"/>
<path d="M378.267 186.2V187.967C379 187.233 379.667 186.733 380.3 186.4C380.933 186.067 381.567 185.9 382.267 185.9C383 185.9 383.567 186.067 383.967 186.367C384.367 186.7 384.633 187.133 384.7 187.733C385.933 186.5 387.2 185.9 388.433 185.9C389.333 185.9 390 186.133 390.433 186.633C390.867 187.133 391 187.8 390.9 188.667L389.867 196H386.9L387.833 189.467C387.9 189.067 387.867 188.767 387.733 188.6C387.6 188.433 387.4 188.367 387.1 188.367C386.767 188.367 386.4 188.467 386.033 188.7C385.667 188.9 385.133 189.3 384.5 189.867L383.633 196H380.767L381.667 189.467C381.733 189.067 381.7 188.8 381.6 188.633C381.5 188.467 381.267 188.4 380.967 188.4C380.633 188.4 380.267 188.5 379.867 188.7C379.467 188.9 379 189.267 378.367 189.8L377.5 196H374.533L375.933 186.167H378.267V186.2Z" fill="white"/>
<path d="M395.233 186.2L395.2 188.1C395.8 187.5 396.467 187 397.2 186.6C397.933 186.2 398.667 185.967 399.367 185.967C400.533 185.967 401.333 186.367 401.767 187.2C402.2 188 402.3 189.4 402.033 191.333C401.9 192.2 401.733 192.9 401.533 193.533C401.333 194.133 401.1 194.633 400.833 194.967C400.567 195.333 400.233 195.6 399.867 195.8C399.5 196 399.1 196.133 398.733 196.2C398.367 196.267 397.9 196.3 397.367 196.3C396.4 196.3 395.4 196.2 394.4 196.033C394.4 196.667 394.367 197.267 394.267 197.9L393.933 199.833H390.967L392.9 186.2H395.233ZM394.733 194.233H396.267C397.3 194.233 397.967 194.067 398.267 193.733C398.567 193.4 398.833 192.567 399 191.267C399.167 190.033 399.2 189.2 399.1 188.867C399 188.5 398.733 188.333 398.267 188.333C397.933 188.333 397.467 188.467 396.933 188.767C396.4 189.067 395.867 189.467 395.333 189.933L394.733 194.233Z" fill="white"/>
<path d="M411.233 185.933L410.566 188.667H409.833C409.433 188.667 408.966 188.767 408.499 188.933C408.033 189.1 407.366 189.433 406.499 189.867L405.666 196.033H402.699L404.099 186.2H406.399V188.067C407.899 186.633 409.333 185.933 410.633 185.933H411.233Z" fill="white"/>
<path d="M419.566 193.7L419.766 195.567C418.666 196.033 417.199 196.267 415.399 196.267C413.499 196.267 412.199 195.833 411.499 194.967C410.799 194.1 410.533 192.733 410.766 190.933C410.999 189.033 411.566 187.7 412.399 187C413.266 186.3 414.633 185.933 416.499 185.933C418.233 185.933 419.433 186.233 420.066 186.8C420.699 187.367 420.933 188.2 420.766 189.333C420.633 190.267 420.266 190.933 419.633 191.333C418.999 191.733 418.033 191.967 416.699 192.067L413.766 192.3C413.766 192.967 413.933 193.4 414.266 193.6C414.566 193.833 415.066 193.933 415.766 193.933C417.033 193.933 418.333 193.833 419.566 193.7ZM413.933 190.533L416.233 190.3C416.766 190.267 417.166 190.167 417.399 189.967C417.633 189.8 417.799 189.467 417.866 189C417.899 188.567 417.833 188.3 417.599 188.167C417.399 188.067 416.966 188 416.266 188.033C415.499 188.033 414.933 188.2 414.633 188.533C414.366 188.9 414.099 189.533 413.933 190.533Z" fill="white"/>
<path d="M55.2358 191.374H50.9756C50.4228 191.374 50 191.797 50 192.35V197.228C50 197.781 50.4228 198.203 50.9756 198.203H55.2358C55.7886 198.203 56.2114 197.748 56.2114 197.228V192.35C56.2114 191.829 55.7886 191.374 55.2358 191.374Z" fill="white"/>
<path d="M64.308 185.845H60.0479C59.495 185.845 59.0723 186.268 59.0723 186.821V197.26C59.0723 197.813 59.495 198.236 60.0479 198.236H64.308C64.8609 198.236 65.2836 197.78 65.2836 197.26V186.821C65.2836 186.268 64.8609 185.845 64.308 185.845Z" fill="white"/>
<path d="M73.3835 180.252H69.0908C68.538 180.252 68.1152 180.675 68.1152 181.228V197.228C68.1152 197.78 68.538 198.203 69.0908 198.203H73.351C73.9039 198.203 74.3266 197.748 74.3266 197.228V181.228C74.3591 180.707 73.9039 180.252 73.3835 180.252Z" fill="white"/>
<path d="M58.8453 182.496H61.0566C61.2518 182.496 61.3493 182.268 61.2192 182.138L57.1217 178.073C57.0241 177.976 56.894 177.976 56.829 178.073L52.764 182.138C52.6339 182.268 52.7314 182.496 52.9266 182.496H55.1705C55.268 182.496 55.3656 182.561 55.3656 182.691C55.4631 183.374 54.2274 186.756 50.1948 187.341C49.9347 187.374 49.9672 187.732 50.1948 187.764C53.0241 188.024 58.4875 186.919 58.6501 182.724C58.6501 182.593 58.7152 182.496 58.8453 182.496Z" fill="white"/>
<path d="M89.8378 181.734L88.2055 181.057C87.5825 180.793 87.163 180.453 86.947 180.036C86.731 179.619 86.6604 179.095 86.7352 178.465C86.8598 177.528 87.1754 176.903 87.6821 176.587C88.1972 176.264 88.9946 176.102 90.0745 176.102C91.1461 176.102 92.0807 176.221 92.8781 176.46L92.6912 177.775C91.9436 177.75 91.0548 177.737 90.0247 177.737C89.518 177.728 89.1732 177.771 88.9905 177.865C88.8077 177.95 88.6873 178.188 88.6291 178.58C88.5876 178.869 88.6084 179.074 88.6914 179.193C88.7828 179.303 88.9905 179.423 89.3145 179.55L90.8595 180.163C91.5158 180.427 91.9477 180.759 92.1554 181.16C92.3631 181.551 92.4254 182.092 92.3423 182.782C92.2177 183.752 91.9104 184.408 91.4203 184.748C90.9385 185.08 90.1161 185.246 88.9531 185.246C87.9895 185.246 87.0051 185.131 86 184.902L86.1994 183.509C87.9604 183.552 88.8534 183.573 88.8783 183.573C89.4598 183.573 89.8544 183.518 90.0621 183.407C90.2698 183.288 90.4027 183.041 90.4608 182.667C90.494 182.377 90.4691 182.177 90.386 182.066C90.303 181.956 90.1202 181.845 89.8378 181.734Z" fill="white"/>
<path d="M94.8436 176H95.6162C96.0066 176 96.181 176.196 96.1395 176.587L96.0523 177.277C96.0024 177.618 95.8031 177.788 95.4542 177.788H94.6692C94.2871 177.788 94.1209 177.592 94.1708 177.2L94.258 176.524C94.2912 176.175 94.4864 176 94.8436 176ZM94.9433 185.08H93.1116L93.9714 178.784H95.8031L94.9433 185.08Z" fill="white"/>
<path d="M99.4042 182.82L97.9214 182.194C97.423 181.99 97.0741 181.73 96.8747 181.415C96.6754 181.1 96.6048 180.704 96.6629 180.227C96.7294 179.648 96.9744 179.231 97.3981 178.976C97.83 178.72 98.5029 178.597 99.4167 178.605C100.546 178.622 101.493 178.708 102.258 178.861L102.083 180.061C100.488 180.036 99.6783 180.023 99.6534 180.023C99.1716 180.023 98.8518 180.044 98.694 180.087C98.5361 180.121 98.4447 180.21 98.4198 180.355C98.4032 180.5 98.4406 180.61 98.532 180.687C98.6317 180.755 98.8186 180.845 99.0927 180.955L100.6 181.568C101.107 181.773 101.464 182.02 101.672 182.309C101.88 182.598 101.954 182.986 101.896 183.471C101.846 183.846 101.747 184.152 101.597 184.391C101.456 184.629 101.248 184.808 100.974 184.927C100.7 185.046 100.405 185.123 100.09 185.157C99.7739 185.2 99.371 185.221 98.8809 185.221C98.1332 185.221 97.2319 185.144 96.177 184.991L96.3514 183.778C96.6505 183.795 97.3025 183.803 98.3077 183.803C99.0221 183.803 99.4956 183.778 99.7282 183.727C99.9608 183.676 100.094 183.565 100.127 183.395C100.144 183.267 100.11 183.173 100.027 183.114C99.9525 183.054 99.7988 182.977 99.5662 182.884C99.4997 182.858 99.4457 182.837 99.4042 182.82Z" fill="white"/>
<path d="M105.722 180.048L105.311 183.062C105.278 183.301 105.294 183.463 105.361 183.548C105.435 183.624 105.597 183.663 105.847 183.663H106.669L106.756 184.991C106.316 185.153 105.743 185.234 105.037 185.234C104.455 185.234 104.023 185.072 103.741 184.748C103.458 184.416 103.359 183.961 103.442 183.382L103.915 180.048H102.806L102.956 178.848L104.09 178.784L104.339 177.022H106.146L105.909 178.784H107.603L107.429 180.048H105.722Z" fill="white"/>
<path d="M113.208 183.586L113.332 184.787C112.643 185.085 111.742 185.234 110.629 185.234C109.457 185.234 108.651 184.953 108.211 184.391C107.771 183.829 107.617 182.965 107.75 181.798C107.9 180.572 108.24 179.733 108.772 179.282C109.304 178.831 110.151 178.605 111.314 178.605C112.394 178.605 113.125 178.788 113.507 179.154C113.897 179.521 114.043 180.061 113.943 180.776C113.86 181.372 113.623 181.798 113.233 182.054C112.842 182.309 112.24 182.466 111.426 182.526L109.607 182.667C109.615 183.084 109.715 183.365 109.906 183.509C110.105 183.654 110.417 183.727 110.84 183.727C111.646 183.727 112.435 183.68 113.208 183.586ZM109.719 181.555L111.152 181.415C111.484 181.389 111.725 181.321 111.875 181.211C112.032 181.1 112.128 180.896 112.161 180.598C112.186 180.317 112.132 180.142 111.999 180.074C111.875 180.006 111.605 179.976 111.189 179.985C110.707 179.985 110.367 180.091 110.167 180.304C109.976 180.508 109.827 180.925 109.719 181.555Z" fill="white"/>
<path d="M116.637 178.784V179.921C117.085 179.461 117.501 179.129 117.883 178.925C118.273 178.712 118.68 178.605 119.104 178.605C119.552 178.605 119.905 178.708 120.163 178.912C120.421 179.116 120.57 179.406 120.612 179.78C121.384 178.997 122.157 178.605 122.929 178.605C123.494 178.605 123.905 178.767 124.163 179.091C124.429 179.406 124.524 179.84 124.449 180.393L123.814 185.08H121.982L122.555 180.904C122.589 180.64 122.568 180.457 122.493 180.355C122.418 180.253 122.29 180.202 122.107 180.202C121.899 180.202 121.679 180.27 121.446 180.406C121.214 180.542 120.898 180.793 120.499 181.16L119.964 185.08H118.194L118.755 180.904C118.797 180.649 118.784 180.47 118.718 180.368C118.651 180.257 118.518 180.202 118.319 180.202C118.103 180.202 117.874 180.27 117.634 180.406C117.401 180.534 117.094 180.768 116.711 181.108L116.176 185.08H114.344L115.204 178.784H116.637Z" fill="white"/>
<path d="M130.936 185.08H129.503L129.516 183.944C128.884 184.778 128.045 185.208 126.999 185.234C126.226 185.259 125.703 185.004 125.429 184.467C125.163 183.922 125.117 183.037 125.292 181.811C125.375 181.232 125.491 180.747 125.64 180.355C125.79 179.955 125.956 179.64 126.139 179.41C126.322 179.18 126.558 179.005 126.849 178.886C127.14 178.767 127.418 178.69 127.684 178.656C127.958 178.622 128.303 178.605 128.718 178.605C129.158 178.605 129.686 178.644 130.301 178.72C130.915 178.797 131.405 178.886 131.771 178.988L130.936 185.08ZM129.802 179.997H128.855C128.257 179.997 127.85 180.104 127.634 180.317C127.418 180.53 127.256 181.036 127.148 181.836C127.04 182.645 127.015 183.165 127.073 183.395C127.132 183.616 127.31 183.718 127.609 183.701C128.157 183.693 128.772 183.297 129.453 182.513L129.802 179.997Z" fill="white"/>
<path d="M135.328 182.82L133.845 182.194C133.347 181.99 132.998 181.73 132.798 181.415C132.599 181.1 132.528 180.704 132.587 180.227C132.653 179.648 132.898 179.231 133.322 178.976C133.754 178.72 134.427 178.597 135.34 178.605C136.47 178.622 137.417 178.708 138.181 178.861L138.007 180.061C136.412 180.036 135.602 180.023 135.577 180.023C135.095 180.023 134.775 180.044 134.618 180.087C134.46 180.121 134.368 180.21 134.344 180.355C134.327 180.5 134.364 180.61 134.456 180.687C134.555 180.755 134.742 180.845 135.016 180.955L136.524 181.568C137.031 181.773 137.388 182.02 137.596 182.309C137.803 182.598 137.878 182.986 137.82 183.471C137.77 183.846 137.67 184.152 137.521 184.391C137.38 184.629 137.172 184.808 136.898 184.927C136.624 185.046 136.329 185.123 136.013 185.157C135.698 185.2 135.295 185.221 134.805 185.221C134.057 185.221 133.156 185.144 132.101 184.991L132.275 183.778C132.574 183.795 133.226 183.803 134.231 183.803C134.946 183.803 135.419 183.778 135.652 183.727C135.884 183.676 136.017 183.565 136.051 183.395C136.067 183.267 136.034 183.173 135.951 183.114C135.876 183.054 135.722 182.977 135.49 182.884C135.423 182.858 135.369 182.837 135.328 182.82Z" fill="white"/>
<path d="M153.191 176.268L150.674 184.582C150.574 184.914 150.342 185.08 149.976 185.08H148.182C148.016 185.08 147.871 185.025 147.746 184.914C147.621 184.795 147.555 184.655 147.547 184.493L147.385 178.797V177.673H147.148C147.04 178.141 146.944 178.52 146.861 178.81L145.154 184.569C145.055 184.91 144.818 185.08 144.444 185.08H142.637C142.471 185.08 142.322 185.025 142.189 184.914C142.064 184.804 142.002 184.667 142.002 184.506L141.74 176.268H143.634V182.424C143.634 182.569 143.626 182.799 143.609 183.114C143.601 183.42 143.597 183.616 143.597 183.701H143.846C143.887 183.522 144.008 183.071 144.207 182.347L145.864 176.83C145.972 176.456 146.213 176.268 146.587 176.268H148.195C148.369 176.268 148.51 176.332 148.618 176.46C148.735 176.579 148.793 176.728 148.793 176.907L149.029 182.437C149.046 182.99 149.05 183.412 149.042 183.701H149.304C149.428 183.122 149.532 182.679 149.615 182.373L151.26 176.268H153.191Z" fill="white"/>
<path d="M158.322 183.586L158.446 184.787C157.757 185.085 156.855 185.234 155.742 185.234C154.571 185.234 153.765 184.953 153.325 184.391C152.885 183.829 152.731 182.965 152.864 181.798C153.013 180.572 153.354 179.733 153.886 179.282C154.417 178.831 155.265 178.605 156.428 178.605C157.508 178.605 158.239 178.788 158.621 179.154C159.011 179.521 159.156 180.061 159.057 180.776C158.974 181.372 158.737 181.798 158.347 182.054C157.956 182.309 157.354 182.466 156.54 182.526L154.721 182.667C154.729 183.084 154.829 183.365 155.02 183.509C155.219 183.654 155.53 183.727 155.954 183.727C156.76 183.727 157.549 183.68 158.322 183.586ZM154.833 181.555L156.266 181.415C156.598 181.389 156.839 181.321 156.988 181.211C157.146 181.1 157.242 180.896 157.275 180.598C157.3 180.317 157.246 180.142 157.113 180.074C156.988 180.006 156.718 179.976 156.303 179.985C155.821 179.985 155.481 180.091 155.281 180.304C155.09 180.508 154.941 180.925 154.833 181.555Z" fill="white"/>
<path d="M162.498 176.14L162.224 178.324C162.158 178.869 162.041 179.367 161.875 179.819C162.689 179.018 163.499 178.618 164.305 178.618C165.053 178.618 165.563 178.874 165.838 179.384C166.112 179.895 166.161 180.764 165.987 181.99C165.829 183.182 165.505 184.025 165.015 184.518C164.525 185.004 163.782 185.246 162.785 185.246C162.286 185.246 161.705 185.2 161.04 185.106C160.384 185.012 159.865 184.893 159.483 184.748L160.666 176.14H162.498ZM161.838 181.083L161.464 183.829C161.996 183.846 162.315 183.854 162.423 183.854C163.03 183.846 163.437 183.722 163.644 183.484C163.852 183.246 164.014 182.705 164.13 181.862C164.222 181.13 164.234 180.661 164.168 180.457C164.11 180.253 163.935 180.151 163.644 180.151C163.163 180.151 162.56 180.461 161.838 181.083Z" fill="white"/>
<path d="M171.467 178.784L171.442 179.997C171.808 179.614 172.219 179.291 172.676 179.027C173.133 178.763 173.582 178.631 174.022 178.631C174.744 178.631 175.243 178.891 175.517 179.41C175.791 179.929 175.845 180.81 175.679 182.054C175.604 182.598 175.5 183.067 175.368 183.458C175.243 183.842 175.098 184.148 174.931 184.378C174.765 184.608 174.562 184.791 174.321 184.927C174.088 185.055 173.851 185.14 173.611 185.183C173.378 185.225 173.1 185.246 172.776 185.246C172.169 185.246 171.559 185.191 170.944 185.08C170.944 185.481 170.915 185.876 170.857 186.268L170.657 187.507H168.813L170.01 178.784H171.467ZM171.168 183.931H172.115C172.747 183.931 173.158 183.825 173.349 183.612C173.548 183.39 173.702 182.862 173.81 182.028C173.91 181.228 173.926 180.717 173.86 180.495C173.802 180.266 173.631 180.151 173.349 180.151C173.133 180.151 172.859 180.244 172.527 180.432C172.194 180.619 171.862 180.87 171.53 181.185L171.168 183.931Z" fill="white"/>
<path d="M182.213 185.08H180.78L180.793 183.944C180.161 184.778 179.322 185.208 178.276 185.234C177.503 185.259 176.98 185.004 176.706 184.467C176.44 183.922 176.394 183.037 176.569 181.811C176.652 181.232 176.768 180.747 176.917 180.355C177.067 179.955 177.233 179.64 177.416 179.41C177.599 179.18 177.835 179.005 178.126 178.886C178.417 178.767 178.695 178.69 178.961 178.656C179.235 178.622 179.58 178.605 179.995 178.605C180.435 178.605 180.963 178.644 181.578 178.72C182.192 178.797 182.682 178.886 183.048 178.988L182.213 185.08ZM181.079 179.997H180.132C179.534 179.997 179.127 180.104 178.911 180.317C178.695 180.53 178.533 181.036 178.425 181.836C178.317 182.645 178.292 183.165 178.35 183.395C178.409 183.616 178.587 183.718 178.886 183.701C179.434 183.693 180.049 183.297 180.73 182.513L181.079 179.997Z" fill="white"/>
<path d="M188.785 178.605L188.374 180.355H187.926C187.668 180.355 187.394 180.415 187.103 180.534C186.821 180.644 186.41 180.845 185.87 181.134L185.346 185.08H183.502L184.362 178.784H185.795V179.972C186.734 179.061 187.606 178.605 188.412 178.605H188.785Z" fill="white"/>
<path d="M194.387 185.08H192.954L192.967 183.944C192.336 184.778 191.497 185.208 190.45 185.234C189.677 185.259 189.154 185.004 188.88 184.467C188.614 183.922 188.568 183.037 188.743 181.811C188.826 181.232 188.942 180.747 189.092 180.355C189.241 179.955 189.407 179.64 189.59 179.41C189.773 179.18 190.01 179.005 190.3 178.886C190.591 178.767 190.869 178.69 191.135 178.656C191.409 178.622 191.754 178.605 192.169 178.605C192.61 178.605 193.137 178.644 193.752 178.72C194.367 178.797 194.857 178.886 195.222 178.988L194.387 185.08ZM193.254 179.997H192.307C191.708 179.997 191.301 180.104 191.085 180.317C190.869 180.53 190.707 181.036 190.599 181.836C190.491 182.645 190.467 183.165 190.525 183.395C190.583 183.616 190.761 183.718 191.06 183.701C191.609 183.693 192.223 183.297 192.905 182.513L193.254 179.997Z" fill="white"/>
<path d="M91.5449 193.738H93.3641L92.6663 198.834H91.2832L91.2334 197.748C90.4857 198.583 89.6218 199 88.6416 199C87.7611 199 87.1339 198.63 86.7601 197.889C86.3946 197.148 86.3074 195.969 86.4984 194.351C86.6147 193.432 86.785 192.674 87.0093 192.078C87.2419 191.482 87.5451 191.022 87.9189 190.699C88.301 190.375 88.7205 190.154 89.1774 190.035C89.6343 189.915 90.2033 189.856 90.8845 189.856C91.9145 189.856 92.7909 189.962 93.5136 190.175L93.2769 191.593C92.3382 191.55 91.549 191.529 90.9094 191.529C90.1036 191.529 89.5346 191.725 89.2023 192.116C88.8783 192.499 88.6374 193.296 88.4796 194.505C88.3467 195.586 88.3467 196.327 88.4796 196.727C88.6125 197.118 88.9282 197.314 89.4266 197.314C89.7755 197.314 90.0745 197.246 90.3237 197.11C90.573 196.965 90.8595 196.739 91.1835 196.433L91.5449 193.738Z" fill="white"/>
<path d="M99.5094 197.34L99.6341 198.54C98.9446 198.838 98.0433 198.987 96.9302 198.987C95.7589 198.987 94.9531 198.706 94.5128 198.144C94.0726 197.582 93.9189 196.718 94.0518 195.552C94.2013 194.326 94.5419 193.487 95.0736 193.036C95.6052 192.585 96.4525 192.359 97.6155 192.359C98.6954 192.359 99.4264 192.542 99.8085 192.908C100.199 193.274 100.344 193.815 100.245 194.53C100.162 195.126 99.9248 195.552 99.5344 195.807C99.1439 196.063 98.5417 196.22 97.7276 196.28L95.9084 196.42C95.9167 196.837 96.0164 197.118 96.2075 197.263C96.4068 197.408 96.7183 197.48 97.142 197.48C97.9478 197.48 98.7369 197.433 99.5094 197.34ZM96.0205 195.309L97.4535 195.169C97.7858 195.143 98.0267 195.075 98.1762 194.964C98.334 194.854 98.4296 194.649 98.4628 194.351C98.4877 194.07 98.4337 193.896 98.3008 193.828C98.1762 193.76 97.9062 193.73 97.4909 193.738C97.0091 193.738 96.6685 193.845 96.4691 194.058C96.2781 194.262 96.1285 194.679 96.0205 195.309Z" fill="white"/>
<path d="M103.748 196.573L102.266 195.948C101.767 195.743 101.418 195.484 101.219 195.169C101.019 194.854 100.949 194.458 101.007 193.981C101.073 193.402 101.319 192.985 101.742 192.729C102.174 192.474 102.847 192.35 103.761 192.359C104.89 192.376 105.837 192.461 106.602 192.614L106.427 193.815C104.832 193.789 104.022 193.777 103.997 193.777C103.516 193.777 103.196 193.798 103.038 193.84C102.88 193.874 102.789 193.964 102.764 194.109C102.747 194.253 102.785 194.364 102.876 194.441C102.976 194.509 103.163 194.598 103.437 194.709L104.944 195.322C105.451 195.526 105.808 195.773 106.016 196.063C106.224 196.352 106.299 196.739 106.24 197.225C106.191 197.599 106.091 197.906 105.941 198.144C105.8 198.383 105.592 198.562 105.318 198.681C105.044 198.8 104.749 198.877 104.434 198.911C104.118 198.953 103.715 198.974 103.225 198.974C102.477 198.974 101.576 198.898 100.521 198.745L100.695 197.531C100.995 197.548 101.647 197.557 102.652 197.557C103.366 197.557 103.84 197.531 104.072 197.48C104.305 197.429 104.438 197.318 104.471 197.148C104.488 197.02 104.454 196.927 104.371 196.867C104.297 196.808 104.143 196.731 103.91 196.637C103.844 196.612 103.79 196.59 103.748 196.573Z" fill="white"/>
<path d="M110.066 193.802L109.655 196.816C109.622 197.055 109.638 197.216 109.705 197.301C109.779 197.378 109.941 197.416 110.191 197.416H111.013L111.1 198.745C110.66 198.906 110.087 198.987 109.381 198.987C108.799 198.987 108.367 198.825 108.085 198.502C107.802 198.17 107.703 197.714 107.786 197.135L108.259 193.802H107.15L107.3 192.602L108.434 192.538L108.683 190.775H110.49L110.253 192.538H111.948L111.773 193.802H110.066Z" fill="white"/>
<path d="M117.44 189.715L118.212 189.792C118.221 190.379 118.117 190.822 117.901 191.12C117.693 191.418 117.415 191.559 117.066 191.542C116.767 191.525 116.401 191.422 115.969 191.235C115.546 191.039 115.276 190.933 115.16 190.916C114.944 190.882 114.786 190.916 114.686 191.018C114.595 191.12 114.532 191.29 114.499 191.529L113.727 191.465C113.727 190.86 113.835 190.409 114.051 190.111C114.267 189.813 114.545 189.673 114.885 189.69C115.16 189.707 115.504 189.809 115.92 189.996C116.335 190.175 116.617 190.277 116.767 190.303C116.991 190.337 117.149 190.307 117.24 190.213C117.34 190.12 117.407 189.954 117.44 189.715ZM117.776 198.834H116.343L116.356 197.697C115.724 198.532 114.885 198.962 113.839 198.987C113.066 199.013 112.543 198.757 112.269 198.221C112.003 197.676 111.957 196.791 112.132 195.565C112.215 194.986 112.331 194.5 112.481 194.109C112.63 193.708 112.796 193.393 112.979 193.164C113.162 192.934 113.398 192.759 113.689 192.64C113.98 192.521 114.258 192.444 114.524 192.41C114.798 192.376 115.143 192.359 115.558 192.359C115.999 192.359 116.526 192.397 117.141 192.474C117.755 192.551 118.246 192.64 118.611 192.742L117.776 198.834ZM116.642 193.751H115.695C115.097 193.751 114.69 193.857 114.474 194.07C114.258 194.283 114.096 194.79 113.988 195.59C113.88 196.399 113.855 196.918 113.913 197.148C113.972 197.37 114.15 197.472 114.449 197.455C114.998 197.446 115.612 197.05 116.293 196.267L116.642 193.751Z" fill="white"/>
<path d="M122.754 192.359C123.892 192.359 124.685 192.623 125.134 193.151C125.582 193.679 125.723 194.551 125.557 195.769C125.399 196.952 125.055 197.787 124.523 198.272C124 198.757 123.181 199 122.068 199C120.939 199 120.141 198.736 119.676 198.208C119.219 197.68 119.074 196.816 119.24 195.616C119.406 194.424 119.751 193.585 120.274 193.1C120.797 192.606 121.624 192.359 122.754 192.359ZM122.741 193.777C122.234 193.777 121.869 193.909 121.645 194.172C121.429 194.436 121.267 194.969 121.159 195.769C121.059 196.501 121.071 196.986 121.196 197.225C121.321 197.463 121.624 197.582 122.106 197.582C122.604 197.582 122.961 197.45 123.177 197.186C123.393 196.914 123.555 196.39 123.663 195.616C123.771 194.883 123.759 194.394 123.626 194.147C123.501 193.9 123.206 193.777 122.741 193.777Z" fill="white"/>
<path d="M135.799 189.894L134.566 198.834H133.12V197.685C132.289 198.553 131.438 198.987 130.566 198.987C129.876 198.987 129.386 198.719 129.095 198.183C128.805 197.646 128.738 196.774 128.896 195.565C128.987 194.892 129.116 194.339 129.282 193.904C129.449 193.47 129.656 193.147 129.905 192.934C130.163 192.712 130.425 192.563 130.69 192.487C130.965 192.402 131.289 192.359 131.662 192.359C132.319 192.359 132.979 192.414 133.644 192.525C133.66 191.997 133.689 191.584 133.731 191.286L133.955 189.894H135.799ZM133.419 193.687H132.435C131.828 193.687 131.426 193.798 131.226 194.019C131.027 194.232 130.873 194.756 130.765 195.59C130.665 196.297 130.645 196.778 130.703 197.033C130.761 197.28 130.94 197.399 131.239 197.391C131.538 197.382 131.82 197.306 132.086 197.161C132.36 197.008 132.68 196.765 133.045 196.433L133.419 193.687Z" fill="white"/>
<path d="M141.511 197.34L141.636 198.54C140.946 198.838 140.045 198.987 138.932 198.987C137.761 198.987 136.955 198.706 136.515 198.144C136.074 197.582 135.921 196.718 136.054 195.552C136.203 194.326 136.544 193.487 137.075 193.036C137.607 192.585 138.454 192.359 139.617 192.359C140.697 192.359 141.428 192.542 141.81 192.908C142.201 193.274 142.346 193.815 142.246 194.53C142.163 195.126 141.926 195.552 141.536 195.807C141.146 196.063 140.543 196.22 139.729 196.28L137.91 196.42C137.918 196.837 138.018 197.118 138.209 197.263C138.409 197.408 138.72 197.48 139.144 197.48C139.949 197.48 140.739 197.433 141.511 197.34ZM138.022 195.309L139.455 195.169C139.787 195.143 140.028 195.075 140.178 194.964C140.336 194.854 140.431 194.649 140.464 194.351C140.489 194.07 140.435 193.896 140.302 193.828C140.178 193.76 139.908 193.73 139.493 193.738C139.011 193.738 138.67 193.845 138.471 194.058C138.28 194.262 138.13 194.679 138.022 195.309Z" fill="white"/>
<path d="M145.269 198.834L146.478 190.022C147.242 189.945 148.301 189.907 149.655 189.907C150.727 189.907 151.508 190.111 151.998 190.52C152.496 190.92 152.679 191.61 152.546 192.589C152.463 193.21 152.272 193.7 151.973 194.058C151.682 194.407 151.229 194.619 150.615 194.696L150.602 194.773C151.175 194.909 151.52 195.36 151.636 196.126L152.085 198.834H150.141L149.742 196.101C149.709 195.828 149.639 195.645 149.531 195.552C149.423 195.45 149.252 195.399 149.02 195.399L147.599 195.386L147.126 198.834H145.269ZM147.811 193.892H149.157C149.655 193.892 150.008 193.798 150.216 193.611C150.432 193.423 150.577 193.074 150.652 192.563C150.719 192.121 150.677 191.818 150.527 191.657C150.378 191.486 150.075 191.401 149.618 191.401L148.148 191.414L147.811 193.892Z" fill="white"/>
<path d="M158.519 197.34L158.644 198.54C157.954 198.838 157.053 198.987 155.94 198.987C154.769 198.987 153.963 198.706 153.523 198.144C153.082 197.582 152.929 196.718 153.062 195.552C153.211 194.326 153.552 193.487 154.083 193.036C154.615 192.585 155.462 192.359 156.625 192.359C157.705 192.359 158.436 192.542 158.818 192.908C159.209 193.274 159.354 193.815 159.254 194.53C159.171 195.126 158.935 195.552 158.544 195.807C158.154 196.063 157.552 196.22 156.737 196.28L154.918 196.42C154.927 196.837 155.026 197.118 155.217 197.263C155.417 197.408 155.728 197.48 156.152 197.48C156.958 197.48 157.747 197.433 158.519 197.34ZM155.03 195.309L156.463 195.169C156.796 195.143 157.037 195.075 157.186 194.964C157.344 194.854 157.439 194.649 157.473 194.351C157.498 194.07 157.444 193.896 157.311 193.828C157.186 193.76 156.916 193.73 156.501 193.738C156.019 193.738 155.678 193.845 155.479 194.058C155.288 194.262 155.138 194.679 155.03 195.309Z" fill="white"/>
<path d="M164.839 197.34L164.964 198.579C164.332 198.851 163.535 198.987 162.571 198.987C161.458 198.987 160.681 198.723 160.241 198.195C159.801 197.668 159.664 196.803 159.83 195.603C159.996 194.419 160.328 193.585 160.827 193.1C161.325 192.606 162.123 192.359 163.219 192.359C164.191 192.359 164.976 192.495 165.574 192.768L165.325 193.917C164.361 193.9 163.742 193.892 163.468 193.892C162.895 193.892 162.484 194.015 162.235 194.262C161.994 194.5 161.832 194.977 161.749 195.692C161.657 196.433 161.687 196.914 161.836 197.135C161.994 197.348 162.347 197.455 162.895 197.455C163.668 197.455 164.316 197.416 164.839 197.34Z" fill="white"/>
<path d="M169.382 192.359C170.52 192.359 171.314 192.623 171.762 193.151C172.211 193.679 172.352 194.551 172.186 195.769C172.028 196.952 171.683 197.787 171.152 198.272C170.628 198.757 169.81 199 168.697 199C167.567 199 166.77 198.736 166.305 198.208C165.848 197.68 165.702 196.816 165.868 195.616C166.035 194.424 166.379 193.585 166.903 193.1C167.426 192.606 168.253 192.359 169.382 192.359ZM169.37 193.777C168.863 193.777 168.498 193.909 168.273 194.172C168.057 194.436 167.895 194.969 167.787 195.769C167.688 196.501 167.7 196.986 167.825 197.225C167.949 197.463 168.253 197.582 168.734 197.582C169.233 197.582 169.59 197.45 169.806 197.186C170.022 196.914 170.184 196.39 170.292 195.616C170.4 194.883 170.387 194.394 170.254 194.147C170.13 193.9 169.835 193.777 169.37 193.777Z" fill="white"/>
<path d="M178.086 192.359L177.675 194.109H177.227C176.969 194.109 176.695 194.168 176.404 194.287C176.122 194.398 175.711 194.598 175.171 194.888L174.647 198.834H172.803L173.663 192.538H175.096V193.725C176.035 192.814 176.907 192.359 177.713 192.359H178.086Z" fill="white"/>
<path d="M183.164 192.359L182.752 194.109H182.304C182.046 194.109 181.772 194.168 181.482 194.287C181.199 194.398 180.788 194.598 180.248 194.888L179.725 198.834H177.88L178.74 192.538H180.173V193.725C181.112 192.814 181.984 192.359 182.79 192.359H183.164Z" fill="white"/>
<path d="M184.965 191.938L184.504 191.222L186.348 189.524H187.606L189.189 191.299L188.628 191.963L186.996 190.699H186.896L184.965 191.938ZM188.566 197.34L188.69 198.54C188.001 198.838 187.1 198.987 185.986 198.987C184.815 198.987 184.009 198.706 183.569 198.144C183.129 197.582 182.975 196.718 183.108 195.552C183.258 194.326 183.598 193.487 184.13 193.036C184.661 192.585 185.509 192.359 186.672 192.359C187.752 192.359 188.483 192.542 188.865 192.908C189.255 193.274 189.401 193.815 189.301 194.53C189.218 195.126 188.981 195.552 188.591 195.807C188.2 196.063 187.598 196.22 186.784 196.28L184.965 196.42C184.973 196.837 185.073 197.118 185.264 197.263C185.463 197.408 185.775 197.48 186.198 197.48C187.004 197.48 187.793 197.433 188.566 197.34ZM185.077 195.309L186.51 195.169C186.842 195.143 187.083 195.075 187.232 194.964C187.39 194.854 187.486 194.649 187.519 194.351C187.544 194.07 187.49 193.896 187.357 193.828C187.232 193.76 186.962 193.73 186.547 193.738C186.065 193.738 185.725 193.845 185.525 194.058C185.334 194.262 185.185 194.679 185.077 195.309Z" fill="white"/>
<path d="M192.007 192.538V193.789C192.962 192.836 193.897 192.359 194.811 192.359C195.334 192.359 195.737 192.516 196.019 192.831C196.302 193.138 196.401 193.576 196.318 194.147L195.67 198.834H193.839L194.399 194.709C194.441 194.411 194.433 194.211 194.375 194.109C194.316 193.998 194.188 193.947 193.988 193.955C193.523 193.964 192.883 194.296 192.069 194.952L191.546 198.834H189.702L190.562 192.538H192.007Z" fill="white"/>
<path d="M202.116 197.34L202.241 198.579C201.61 198.851 200.812 198.987 199.849 198.987C198.735 198.987 197.959 198.723 197.519 198.195C197.078 197.668 196.941 196.803 197.107 195.603C197.273 194.419 197.606 193.585 198.104 193.1C198.603 192.606 199.4 192.359 200.497 192.359C201.468 192.359 202.253 192.495 202.852 192.768L202.602 193.917C201.639 193.9 201.02 193.892 200.746 193.892C200.173 193.892 199.761 194.015 199.512 194.262C199.271 194.5 199.109 194.977 199.026 195.692C198.935 196.433 198.964 196.914 199.113 197.135C199.271 197.348 199.624 197.455 200.173 197.455C200.945 197.455 201.593 197.416 202.116 197.34Z" fill="white"/>
<path d="M204.838 189.754H205.611C206.001 189.754 206.176 189.949 206.134 190.341L206.047 191.031C205.997 191.371 205.798 191.542 205.449 191.542H204.664C204.282 191.542 204.116 191.346 204.166 190.954L204.253 190.277C204.286 189.928 204.481 189.754 204.838 189.754ZM204.938 198.834H203.106L203.966 192.538H205.798L204.938 198.834Z" fill="white"/>
<path d="M212.165 198.834H210.732L210.745 197.697C210.113 198.532 209.274 198.962 208.228 198.987C207.455 199.013 206.932 198.757 206.658 198.221C206.392 197.676 206.346 196.791 206.521 195.565C206.604 194.986 206.72 194.5 206.869 194.109C207.019 193.708 207.185 193.393 207.368 193.164C207.551 192.934 207.787 192.759 208.078 192.64C208.369 192.521 208.647 192.444 208.913 192.41C209.187 192.376 209.532 192.359 209.947 192.359C210.387 192.359 210.915 192.397 211.53 192.474C212.144 192.551 212.634 192.64 213 192.742L212.165 198.834ZM211.031 193.751H210.084C209.486 193.751 209.079 193.857 208.863 194.07C208.647 194.283 208.485 194.79 208.377 195.59C208.269 196.399 208.244 196.918 208.302 197.148C208.361 197.37 208.539 197.472 208.838 197.455C209.386 197.446 210.001 197.05 210.682 196.267L211.031 193.751Z" fill="white"/>
<defs>
<linearGradient id="paint0_linear" x1="-56.8966" y1="334.25" x2="621.014" y2="165.428" gradientUnits="userSpaceOnUse">
<stop stop-color="#DC272B"/>
<stop offset="1" stop-color="#EA6565"/>
</linearGradient>
<linearGradient id="paint1_linear" x1="0" y1="190.471" x2="570.258" y2="190.471" gradientUnits="userSpaceOnUse">
<stop stop-color="#213667"/>
<stop offset="1" stop-color="#506EB3"/>
</linearGradient>
<linearGradient id="paint2_linear" x1="-329.926" y1="67.2905" x2="204.585" y2="635.364" gradientUnits="userSpaceOnUse">
<stop stop-color="#1F3D8C"/>
<stop offset="1" stop-color="#DC272B"/>
</linearGradient>
<linearGradient id="paint3_linear" x1="536.469" y1="82.6203" x2="-146.186" y2="-642.596" gradientUnits="userSpaceOnUse">
<stop stop-color="#1F3D8C"/>
<stop offset="1" stop-color="#DC272B"/>
</linearGradient>
<linearGradient id="paint4_linear" x1="453.257" y1="-183.366" x2="1011.68" y2="411.144" gradientUnits="userSpaceOnUse">
<stop stop-color="#1F3D8C"/>
<stop offset="1" stop-color="#DC272B"/>
</linearGradient>
<linearGradient id="paint5_linear" x1="732.583" y1="475.652" x2="-299.623" y2="106.017" gradientUnits="userSpaceOnUse">
<stop stop-color="#1F3D8C"/>
<stop offset="1" stop-color="#DC272B"/>
</linearGradient>
</defs>
</svg>
