<svg width="203" height="59" viewBox="0 0 203 59" fill="none" xmlns="http://www.w3.org/2000/svg">
<path d="M49.5809 27.897L45.127 25.3335L41.4634 28.8662L44.8121 32.0936L49.5809 29.3471C49.7088 29.2742 49.8149 29.1687 49.8886 29.0416C49.9622 28.9144 50.0006 28.7701 50 28.6233C50.001 28.4761 49.9628 28.3312 49.8892 28.2036C49.8155 28.076 49.7092 27.9701 49.5809 27.897ZM44.371 24.8978L39.4699 22.0756L28.729 16.585L40.8606 28.2839L44.371 24.8978ZM28.9067 40.9741L39.4883 35.16L44.0561 32.5294L40.8606 29.4484L28.9067 40.9741ZM28.0123 17.0586L28 40.6848L40.2565 28.8662L28.0123 17.0586Z" fill="white"/>
<rect x="0.5" y="0.500244" width="202" height="57.5341" rx="7.5" stroke="white"/>
<path d="M80.671 20.1669C80.671 21.0942 80.4847 21.9045 80.112 22.5979C79.7393 23.2825 79.189 23.8155 78.461 24.1969C77.7417 24.5695 76.875 24.7559 75.861 24.7559H72.949V15.5909H75.861C76.875 15.5909 77.7417 15.7772 78.461 16.1499C79.189 16.5139 79.7393 17.0425 80.112 17.7359C80.4847 18.4205 80.671 19.2309 80.671 20.1669ZM75.77 23.6899C76.966 23.6899 77.8803 23.3822 78.513 22.7669C79.1457 22.1515 79.462 21.2849 79.462 20.1669C79.462 19.0489 79.1457 18.1822 78.513 17.5669C77.889 16.9429 76.9747 16.6309 75.77 16.6309H74.132V23.6899H75.77ZM82.0594 15.5259C82.0594 15.3092 82.133 15.1359 82.2804 15.0059C82.4277 14.8672 82.6227 14.7979 82.8654 14.7979C83.108 14.7979 83.303 14.8672 83.4504 15.0059C83.5977 15.1359 83.6714 15.3092 83.6714 15.5259C83.6714 15.7425 83.5977 15.9202 83.4504 16.0589C83.303 16.1889 83.108 16.2539 82.8654 16.2539C82.6227 16.2539 82.4277 16.1889 82.2804 16.0589C82.133 15.9202 82.0594 15.7425 82.0594 15.5259ZM83.4504 17.6189V24.7559H82.2674V17.6189H83.4504ZM87.5883 17.5279C88.3943 17.5279 89.04 17.7402 89.5253 18.1649C90.0193 18.5809 90.3183 19.1442 90.4223 19.8549H89.2913C89.2393 19.4302 89.0617 19.0835 88.7583 18.8149C88.4637 18.5375 88.065 18.3989 87.5623 18.3989C87.1377 18.3989 86.804 18.5029 86.5613 18.7109C86.3273 18.9102 86.2103 19.1832 86.2103 19.5299C86.2103 19.7899 86.2883 20.0022 86.4443 20.1669C86.609 20.3229 86.8083 20.4442 87.0423 20.5309C87.285 20.6089 87.6143 20.6955 88.0303 20.7909C88.559 20.9122 88.9837 21.0379 89.3043 21.1679C89.6337 21.2892 89.911 21.4885 90.1363 21.7659C90.3703 22.0432 90.4873 22.4159 90.4873 22.8839C90.4873 23.4645 90.2663 23.9369 89.8243 24.3009C89.391 24.6649 88.8103 24.8469 88.0823 24.8469C87.233 24.8469 86.5397 24.6432 86.0023 24.2359C85.465 23.8285 85.1487 23.2609 85.0533 22.5329H86.1973C86.2407 22.9662 86.427 23.3172 86.7563 23.5859C87.0943 23.8545 87.5363 23.9889 88.0823 23.9889C88.4897 23.9889 88.806 23.8849 89.0313 23.6769C89.2653 23.4689 89.3823 23.1959 89.3823 22.8579C89.3823 22.5805 89.3 22.3595 89.1353 22.1949C88.9707 22.0302 88.767 21.9045 88.5243 21.8179C88.2817 21.7312 87.948 21.6402 87.5233 21.5449C86.9947 21.4235 86.57 21.3022 86.2493 21.1809C85.9373 21.0595 85.6687 20.8689 85.4433 20.6089C85.2267 20.3402 85.1183 19.9805 85.1183 19.5299C85.1183 18.9319 85.3393 18.4509 85.7813 18.0869C86.2233 17.7142 86.8257 17.5279 87.5883 17.5279ZM96.0071 17.5279C96.6398 17.5279 97.2031 17.6752 97.6971 17.9699C98.1911 18.2645 98.5768 18.6892 98.8541 19.2439C99.1401 19.7985 99.2831 20.4485 99.2831 21.1939C99.2831 21.9392 99.1401 22.5892 98.8541 23.1439C98.5768 23.6899 98.1911 24.1102 97.6971 24.4049C97.2031 24.6995 96.6398 24.8469 96.0071 24.8469C95.3138 24.8469 94.7245 24.6735 94.2391 24.3269C93.7625 23.9715 93.4331 23.5079 93.2511 22.9359V28.1359H92.0681V17.6189H93.2511V19.4389C93.4331 18.8669 93.7625 18.4075 94.2391 18.0609C94.7245 17.7055 95.3138 17.5279 96.0071 17.5279ZM95.6691 18.5809C95.2098 18.5809 94.7938 18.6892 94.4211 18.9059C94.0485 19.1139 93.7581 19.4172 93.5501 19.8159C93.3421 20.2145 93.2381 20.6739 93.2381 21.1939C93.2381 21.7139 93.3421 22.1732 93.5501 22.5719C93.7581 22.9619 94.0485 23.2652 94.4211 23.4819C94.7938 23.6985 95.2098 23.8069 95.6691 23.8069C96.4058 23.8069 96.9908 23.5772 97.4241 23.1179C97.8661 22.6499 98.0871 22.0085 98.0871 21.1939C98.0871 20.3792 97.8661 19.7422 97.4241 19.2829C96.9908 18.8149 96.4058 18.5809 95.6691 18.5809ZM104.065 17.5279C104.75 17.5279 105.361 17.6752 105.898 17.9699C106.444 18.2645 106.869 18.6892 107.172 19.2439C107.484 19.7985 107.64 20.4485 107.64 21.1939C107.64 21.9392 107.484 22.5892 107.172 23.1439C106.869 23.6899 106.444 24.1102 105.898 24.4049C105.361 24.6995 104.75 24.8469 104.065 24.8469C103.38 24.8469 102.765 24.6995 102.219 24.4049C101.682 24.1102 101.257 23.6899 100.945 23.1439C100.633 22.5892 100.477 21.9392 100.477 21.1939C100.477 20.4485 100.633 19.7985 100.945 19.2439C101.257 18.6892 101.682 18.2645 102.219 17.9699C102.765 17.6752 103.38 17.5279 104.065 17.5279ZM104.065 18.5679C103.64 18.5679 103.246 18.6632 102.882 18.8539C102.527 19.0445 102.236 19.3392 102.011 19.7379C101.794 20.1279 101.686 20.6132 101.686 21.1939C101.686 21.7659 101.794 22.2512 102.011 22.6499C102.236 23.0399 102.527 23.3302 102.882 23.5209C103.246 23.7115 103.64 23.8069 104.065 23.8069C104.49 23.8069 104.88 23.7115 105.235 23.5209C105.599 23.3302 105.889 23.0399 106.106 22.6499C106.331 22.2512 106.444 21.7659 106.444 21.1939C106.444 20.6132 106.331 20.1279 106.106 19.7379C105.889 19.3392 105.599 19.0445 105.235 18.8539C104.88 18.6632 104.49 18.5679 104.065 18.5679ZM112.938 17.5019C113.77 17.5019 114.442 17.7705 114.953 18.3079C115.465 18.8365 115.72 19.6035 115.72 20.6089V24.7559H114.537V20.7129C114.537 20.0022 114.355 19.4562 113.991 19.0749C113.627 18.6935 113.133 18.5029 112.509 18.5029C111.859 18.5029 111.339 18.7152 110.949 19.1399C110.559 19.5559 110.364 20.1669 110.364 20.9729V24.7559H109.181V17.6189H110.364V19.3089C110.546 18.7282 110.867 18.2819 111.326 17.9699C111.794 17.6579 112.332 17.5019 112.938 17.5019ZM118.835 17.6189V24.7559H117.639V17.6189H118.835ZM120.382 15.5389L117.613 17.0599V16.2149L120.382 14.5769V15.5389ZM123.617 23.4949L125.827 17.6189H127.101L124.306 24.7559H122.902L120.107 17.6189H121.381L123.617 23.4949ZM134.827 20.7909C134.827 21.0422 134.81 21.2589 134.775 21.4409H129.068C129.094 22.2555 129.324 22.8665 129.757 23.2739C130.199 23.6812 130.737 23.8849 131.369 23.8849C131.941 23.8849 132.418 23.7419 132.799 23.4559C133.189 23.1612 133.428 22.7712 133.514 22.2859H134.775C134.689 22.7799 134.494 23.2219 134.19 23.6119C133.896 24.0019 133.51 24.3052 133.033 24.5219C132.557 24.7385 132.019 24.8469 131.421 24.8469C130.737 24.8469 130.13 24.6995 129.601 24.4049C129.073 24.1102 128.657 23.6899 128.353 23.1439C128.059 22.5892 127.911 21.9392 127.911 21.1939C127.911 20.4485 128.059 19.7985 128.353 19.2439C128.657 18.6892 129.073 18.2645 129.601 17.9699C130.13 17.6752 130.737 17.5279 131.421 17.5279C132.115 17.5279 132.717 17.6752 133.228 17.9699C133.748 18.2645 134.143 18.6589 134.411 19.1529C134.689 19.6469 134.827 20.1929 134.827 20.7909ZM133.631 20.8689C133.657 20.3402 133.571 19.8982 133.371 19.5429C133.172 19.1875 132.899 18.9232 132.552 18.7499C132.206 18.5765 131.829 18.4899 131.421 18.4899C130.771 18.4899 130.225 18.6935 129.783 19.1009C129.341 19.4995 129.103 20.0889 129.068 20.8689H133.631ZM137.558 15.1359V24.7559H136.375V15.1359H137.558ZM146.429 17.5019C147.261 17.5019 147.932 17.7705 148.444 18.3079C148.955 18.8365 149.211 19.6035 149.211 20.6089V24.7559H148.028V20.7129C148.028 20.0022 147.846 19.4562 147.482 19.0749C147.118 18.6935 146.624 18.5029 146 18.5029C145.35 18.5029 144.83 18.7152 144.44 19.1399C144.05 19.5559 143.855 20.1669 143.855 20.9729V24.7559H142.672V17.6189H143.855V19.3089C144.037 18.7282 144.357 18.2819 144.817 17.9699C145.285 17.6579 145.822 17.5019 146.429 17.5019ZM154.262 17.5279C154.947 17.5279 155.558 17.6752 156.095 17.9699C156.641 18.2645 157.066 18.6892 157.369 19.2439C157.681 19.7985 157.837 20.4485 157.837 21.1939C157.837 21.9392 157.681 22.5892 157.369 23.1439C157.066 23.6899 156.641 24.1102 156.095 24.4049C155.558 24.6995 154.947 24.8469 154.262 24.8469C153.578 24.8469 152.962 24.6995 152.416 24.4049C151.879 24.1102 151.454 23.6899 151.142 23.1439C150.83 22.5892 150.674 21.9392 150.674 21.1939C150.674 20.4485 150.83 19.7985 151.142 19.2439C151.454 18.6892 151.879 18.2645 152.416 17.9699C152.962 17.6752 153.578 17.5279 154.262 17.5279ZM154.262 18.5679C153.838 18.5679 153.443 18.6632 153.079 18.8539C152.724 19.0445 152.434 19.3392 152.208 19.7379C151.992 20.1279 151.883 20.6132 151.883 21.1939C151.883 21.7659 151.992 22.2512 152.208 22.6499C152.434 23.0399 152.724 23.3302 153.079 23.5209C153.443 23.7115 153.838 23.8069 154.262 23.8069C154.687 23.8069 155.077 23.7115 155.432 23.5209C155.796 23.3302 156.087 23.0399 156.303 22.6499C156.529 22.2512 156.641 21.7659 156.641 21.1939C156.641 20.6132 156.529 20.1279 156.303 19.7379C156.087 19.3392 155.796 19.0445 155.432 18.8539C155.077 18.6632 154.687 18.5679 154.262 18.5679Z" fill="white"/>
<path d="M80.448 36.5117C80.2453 36.1383 79.952 35.8556 79.568 35.6636C79.1947 35.461 78.752 35.3596 78.24 35.3596C77.3547 35.3596 76.6453 35.653 76.112 36.2397C75.5787 36.8157 75.312 37.589 75.312 38.5596C75.312 39.5943 75.5893 40.405 76.144 40.9917C76.7093 41.5677 77.4827 41.8557 78.464 41.8557C79.136 41.8557 79.7013 41.685 80.16 41.3437C80.6293 41.0023 80.9707 40.5117 81.184 39.8717H77.712V37.8556H83.664V40.3997C83.4613 41.0823 83.1147 41.717 82.624 42.3037C82.144 42.8903 81.5307 43.365 80.784 43.7277C80.0373 44.0903 79.1947 44.2717 78.256 44.2717C77.1467 44.2717 76.1547 44.0317 75.28 43.5517C74.416 43.061 73.7387 42.3837 73.248 41.5197C72.768 40.6557 72.528 39.669 72.528 38.5596C72.528 37.4503 72.768 36.4637 73.248 35.5997C73.7387 34.725 74.416 34.0477 75.28 33.5676C76.144 33.077 77.1307 32.8316 78.24 32.8316C79.584 32.8316 80.7147 33.157 81.632 33.8076C82.56 34.4583 83.1733 35.3597 83.472 36.5117H80.448ZM89.2435 44.3197C88.3688 44.3197 87.5795 44.133 86.8755 43.7597C86.1822 43.3863 85.6328 42.853 85.2275 42.1597C84.8328 41.4663 84.6355 40.6557 84.6355 39.7277C84.6355 38.8103 84.8382 38.005 85.2435 37.3117C85.6488 36.6077 86.2035 36.069 86.9075 35.6957C87.6115 35.3223 88.4008 35.1356 89.2755 35.1356C90.1502 35.1356 90.9395 35.3223 91.6435 35.6957C92.3475 36.069 92.9022 36.6077 93.3075 37.3117C93.7128 38.005 93.9155 38.8103 93.9155 39.7277C93.9155 40.645 93.7075 41.4557 93.2915 42.1597C92.8862 42.853 92.3262 43.3863 91.6115 43.7597C90.9075 44.133 90.1182 44.3197 89.2435 44.3197ZM89.2435 41.9517C89.7662 41.9517 90.2088 41.7597 90.5715 41.3757C90.9448 40.9917 91.1315 40.4423 91.1315 39.7277C91.1315 39.013 90.9502 38.4637 90.5875 38.0796C90.2355 37.6957 89.7982 37.5037 89.2755 37.5037C88.7422 37.5037 88.2995 37.6957 87.9475 38.0796C87.5955 38.453 87.4195 39.0023 87.4195 39.7277C87.4195 40.4423 87.5902 40.9917 87.9315 41.3757C88.2835 41.7597 88.7208 41.9517 89.2435 41.9517ZM99.431 44.3197C98.5563 44.3197 97.767 44.133 97.063 43.7597C96.3697 43.3863 95.8203 42.853 95.415 42.1597C95.0203 41.4663 94.823 40.6557 94.823 39.7277C94.823 38.8103 95.0257 38.005 95.431 37.3117C95.8363 36.6077 96.391 36.069 97.095 35.6957C97.799 35.3223 98.5883 35.1356 99.463 35.1356C100.338 35.1356 101.127 35.3223 101.831 35.6957C102.535 36.069 103.09 36.6077 103.495 37.3117C103.9 38.005 104.103 38.8103 104.103 39.7277C104.103 40.645 103.895 41.4557 103.479 42.1597C103.074 42.853 102.514 43.3863 101.799 43.7597C101.095 44.133 100.306 44.3197 99.431 44.3197ZM99.431 41.9517C99.9537 41.9517 100.396 41.7597 100.759 41.3757C101.132 40.9917 101.319 40.4423 101.319 39.7277C101.319 39.013 101.138 38.4637 100.775 38.0796C100.423 37.6957 99.9857 37.5037 99.463 37.5037C98.9297 37.5037 98.487 37.6957 98.135 38.0796C97.783 38.453 97.607 39.0023 97.607 39.7277C97.607 40.4423 97.7777 40.9917 98.119 41.3757C98.471 41.7597 98.9083 41.9517 99.431 41.9517ZM108.947 35.1356C109.576 35.1356 110.125 35.2636 110.595 35.5196C111.075 35.7757 111.443 36.1117 111.699 36.5276V35.2636H114.435V44.1757C114.435 44.997 114.269 45.7383 113.939 46.3997C113.619 47.0717 113.123 47.605 112.451 47.9997C111.789 48.3943 110.963 48.5917 109.971 48.5917C108.648 48.5917 107.576 48.277 106.755 47.6477C105.933 47.029 105.464 46.1863 105.347 45.1197H108.051C108.136 45.461 108.339 45.7277 108.659 45.9197C108.979 46.1223 109.373 46.2237 109.843 46.2237C110.408 46.2237 110.856 46.0583 111.187 45.7277C111.528 45.4077 111.699 44.8903 111.699 44.1757V42.9117C111.432 43.3277 111.064 43.669 110.595 43.9357C110.125 44.1917 109.576 44.3197 108.947 44.3197C108.211 44.3197 107.544 44.133 106.947 43.7597C106.349 43.3757 105.875 42.837 105.523 42.1437C105.181 41.4397 105.011 40.629 105.011 39.7117C105.011 38.7943 105.181 37.989 105.523 37.2957C105.875 36.6023 106.349 36.069 106.947 35.6957C107.544 35.3223 108.211 35.1356 108.947 35.1356ZM111.699 39.7277C111.699 39.045 111.507 38.5063 111.123 38.1116C110.749 37.717 110.291 37.5196 109.747 37.5196C109.203 37.5196 108.739 37.717 108.355 38.1116C107.981 38.4957 107.795 39.029 107.795 39.7117C107.795 40.3943 107.981 40.9383 108.355 41.3437C108.739 41.7383 109.203 41.9357 109.747 41.9357C110.291 41.9357 110.749 41.7383 111.123 41.3437C111.507 40.949 111.699 40.4103 111.699 39.7277ZM119.15 32.3517V44.1917H116.414V32.3517H119.15ZM129.549 39.5837C129.549 39.8397 129.533 40.1063 129.501 40.3837H123.309C123.351 40.9383 123.527 41.365 123.837 41.6637C124.157 41.9517 124.546 42.0957 125.005 42.0957C125.687 42.0957 126.162 41.8077 126.429 41.2317H129.341C129.191 41.8183 128.919 42.3463 128.525 42.8157C128.141 43.285 127.655 43.653 127.069 43.9197C126.482 44.1863 125.826 44.3197 125.101 44.3197C124.226 44.3197 123.447 44.133 122.765 43.7597C122.082 43.3863 121.549 42.853 121.165 42.1597C120.781 41.4663 120.589 40.6557 120.589 39.7277C120.589 38.7997 120.775 37.989 121.149 37.2957C121.533 36.6023 122.066 36.069 122.749 35.6957C123.431 35.3223 124.215 35.1356 125.101 35.1356C125.965 35.1356 126.733 35.317 127.405 35.6797C128.077 36.0423 128.599 36.5596 128.973 37.2316C129.357 37.9037 129.549 38.6877 129.549 39.5837ZM126.749 38.8637C126.749 38.3943 126.589 38.021 126.269 37.7436C125.949 37.4663 125.549 37.3277 125.069 37.3277C124.61 37.3277 124.221 37.461 123.901 37.7277C123.591 37.9943 123.399 38.373 123.325 38.8637H126.749ZM142.943 36.5757C142.943 37.2263 142.793 37.8237 142.495 38.3677C142.196 38.901 141.737 39.333 141.119 39.6637C140.5 39.9943 139.732 40.1597 138.815 40.1597H137.119V44.1917H134.383V32.9597H138.815C139.711 32.9597 140.468 33.1143 141.087 33.4236C141.705 33.733 142.169 34.1596 142.479 34.7036C142.788 35.2476 142.943 35.8716 142.943 36.5757ZM138.607 37.9837C139.129 37.9837 139.519 37.861 139.775 37.6157C140.031 37.3703 140.159 37.0237 140.159 36.5757C140.159 36.1277 140.031 35.781 139.775 35.5357C139.519 35.2903 139.129 35.1677 138.607 35.1677H137.119V37.9837H138.607ZM147.103 32.3517V44.1917H144.367V32.3517H147.103ZM148.542 39.7117C148.542 38.7943 148.712 37.989 149.054 37.2957C149.406 36.6023 149.88 36.069 150.478 35.6957C151.075 35.3223 151.742 35.1356 152.478 35.1356C153.107 35.1356 153.656 35.2636 154.126 35.5196C154.606 35.7757 154.974 36.1117 155.23 36.5276V35.2636H157.966V44.1917H155.23V42.9277C154.963 43.3437 154.59 43.6797 154.11 43.9357C153.64 44.1917 153.091 44.3197 152.462 44.3197C151.736 44.3197 151.075 44.133 150.478 43.7597C149.88 43.3757 149.406 42.837 149.054 42.1437C148.712 41.4397 148.542 40.629 148.542 39.7117ZM155.23 39.7277C155.23 39.045 155.038 38.5063 154.654 38.1116C154.28 37.717 153.822 37.5196 153.278 37.5196C152.734 37.5196 152.27 37.717 151.886 38.1116C151.512 38.4957 151.326 39.029 151.326 39.7117C151.326 40.3943 151.512 40.9383 151.886 41.3437C152.27 41.7383 152.734 41.9357 153.278 41.9357C153.822 41.9357 154.28 41.7383 154.654 41.3437C155.038 40.949 155.23 40.4103 155.23 39.7277ZM169.065 35.2636L163.465 48.4317H160.521L162.569 43.8877L158.937 35.2636H161.993L164.057 40.8477L166.105 35.2636H169.065Z" fill="white"/>
</svg>
