<svg width="163" height="23" viewBox="0 0 163 23" fill="none" xmlns="http://www.w3.org/2000/svg">
<path d="M5.23577 15.374H0.97561C0.422764 15.374 0 15.7968 0 16.3496V21.2277C0 21.7805 0.422764 22.2033 0.97561 22.2033H5.23577C5.78862 22.2033 6.21138 21.748 6.21138 21.2277V16.3496C6.21138 15.8293 5.78862 15.374 5.23577 15.374Z" fill="white"/>
<path d="M14.308 9.84546H10.0479C9.49503 9.84546 9.07227 10.2682 9.07227 10.8211V21.2601C9.07227 21.8129 9.49503 22.2357 10.0479 22.2357H14.308C14.8609 22.2357 15.2836 21.7804 15.2836 21.2601V10.8211C15.2836 10.2682 14.8609 9.84546 14.308 9.84546Z" fill="white"/>
<path d="M23.3835 4.25195H19.0908C18.538 4.25195 18.1152 4.67472 18.1152 5.22756V21.2276C18.1152 21.7804 18.538 22.2032 19.0908 22.2032H23.351C23.9039 22.2032 24.3266 21.7479 24.3266 21.2276V5.22756C24.3591 4.70724 23.9039 4.25195 23.3835 4.25195Z" fill="white"/>
<path d="M8.84525 6.49593H11.0566C11.2518 6.49593 11.3493 6.26829 11.2192 6.13821L7.12168 2.07317C7.02412 1.97561 6.89403 1.97561 6.82899 2.07317L2.76395 6.13821C2.63387 6.26829 2.73143 6.49593 2.92656 6.49593H5.17046C5.26802 6.49593 5.36558 6.56098 5.36558 6.69106C5.46314 7.37398 4.22737 10.7561 0.194848 11.3415C-0.0653142 11.374 -0.0327939 11.7317 0.194848 11.7642C3.02412 12.0244 8.48753 10.9187 8.65013 6.72358C8.65013 6.5935 8.71517 6.49593 8.84525 6.49593Z" fill="white"/>
<path d="M39.8378 5.73428L38.2055 5.05741C37.5825 4.79347 37.163 4.4529 36.947 4.03571C36.731 3.61851 36.6604 3.09489 36.7352 2.46485C36.8598 1.52829 37.1754 0.9025 37.6821 0.587477C38.1972 0.263939 38.9946 0.10217 40.0745 0.10217C41.1461 0.10217 42.0807 0.221368 42.8781 0.459764L42.6912 1.7752C41.9436 1.74966 41.0548 1.73689 40.0247 1.73689C39.518 1.72837 39.1732 1.77094 38.9905 1.8646C38.8077 1.94974 38.6873 2.18814 38.6291 2.57979C38.5876 2.86927 38.6084 3.07361 38.6914 3.19281C38.7828 3.30349 38.9905 3.42269 39.3145 3.5504L40.8595 4.16342C41.5158 4.42736 41.9477 4.75941 42.1554 5.15958C42.3631 5.55123 42.4254 6.09188 42.3423 6.78152C42.2177 7.75214 41.9104 8.40773 41.4203 8.74829C40.9385 9.08034 40.1161 9.24637 38.9531 9.24637C37.9895 9.24637 37.0051 9.13143 36 8.90155L36.1994 7.50948C37.9604 7.55205 38.8534 7.57334 38.8783 7.57334C39.4598 7.57334 39.8544 7.518 40.0621 7.40731C40.2698 7.28811 40.4027 7.0412 40.4608 6.66658C40.494 6.3771 40.4691 6.17702 40.386 6.06633C40.303 5.95565 40.1202 5.84497 39.8378 5.73428Z" fill="white"/>
<path d="M44.8436 0H45.6162C46.0066 0 46.181 0.195826 46.1395 0.587477L46.0523 1.27712C46.0024 1.61769 45.8031 1.78797 45.4542 1.78797H44.6692C44.2871 1.78797 44.1209 1.59215 44.1708 1.2005L44.258 0.52362C44.2912 0.17454 44.4864 0 44.8436 0ZM44.9433 9.08034H43.1116L43.9714 2.78413H45.8031L44.9433 9.08034Z" fill="white"/>
<path d="M49.4042 6.81984L47.9214 6.19405C47.423 5.98971 47.0741 5.73002 46.8747 5.415C46.6754 5.09998 46.6048 4.70407 46.6629 4.22728C46.7294 3.64831 46.9744 3.23112 47.3981 2.9757C47.83 2.72027 48.5029 2.59682 49.4167 2.60533C50.5464 2.62236 51.4934 2.7075 52.2576 2.86076L52.0832 4.06125C50.4882 4.03571 49.6783 4.02294 49.6534 4.02294C49.1716 4.02294 48.8518 4.04422 48.694 4.08679C48.5361 4.12085 48.4447 4.21025 48.4198 4.35499C48.4032 4.49973 48.4406 4.61041 48.532 4.68704C48.6317 4.75515 48.8186 4.84455 49.0927 4.95524L50.6004 5.56826C51.1071 5.77259 51.4643 6.01951 51.672 6.30899C51.8797 6.59847 51.9544 6.98586 51.8963 7.47117C51.8464 7.84579 51.7467 8.1523 51.5972 8.3907C51.456 8.62909 51.2483 8.80789 50.9742 8.92709C50.7001 9.04629 50.4052 9.12291 50.0895 9.15697C49.7739 9.19954 49.371 9.22083 48.8809 9.22083C48.1332 9.22083 47.2319 9.1442 46.177 8.99094L46.3514 7.77768C46.6505 7.79471 47.3025 7.80322 48.3077 7.80322C49.0221 7.80322 49.4956 7.77768 49.7282 7.72659C49.9608 7.67551 50.0937 7.56482 50.1269 7.39454C50.1435 7.26683 50.1103 7.17317 50.0272 7.11357C49.9525 7.05398 49.7988 6.97735 49.5662 6.88369C49.4997 6.85815 49.4457 6.83686 49.4042 6.81984Z" fill="white"/>
<path d="M55.722 4.04848L55.3108 7.06249C55.2775 7.30089 55.2942 7.46265 55.3606 7.5478C55.4354 7.62442 55.5974 7.66274 55.8466 7.66274H56.669L56.7562 8.99094C56.3159 9.15271 55.7427 9.2336 55.0366 9.2336C54.4552 9.2336 54.0232 9.07183 53.7408 8.74829C53.4583 8.41624 53.3587 7.96073 53.4417 7.38177L53.9152 4.04848H52.8062L52.9558 2.84798L54.0897 2.78413L54.3389 1.0217H56.1456L55.9089 2.78413H57.6035L57.429 4.04848H55.722Z" fill="white"/>
<path d="M63.2078 7.58611L63.3324 8.7866C62.6429 9.0846 61.7416 9.2336 60.6285 9.2336C59.4572 9.2336 58.6515 8.95263 58.2112 8.3907C57.7709 7.82876 57.6173 6.96458 57.7502 5.79814C57.8997 4.5721 58.2403 3.73346 58.7719 3.28221C59.3036 2.83096 60.1509 2.60533 61.3138 2.60533C62.3937 2.60533 63.1247 2.78838 63.5069 3.15449C63.8973 3.5206 64.0426 4.06125 63.943 4.77644C63.8599 5.37243 63.6231 5.79814 63.2327 6.05356C62.8423 6.30899 62.24 6.4665 61.426 6.5261L59.6068 6.66658C59.6151 7.08377 59.7147 7.36474 59.9058 7.50948C60.1052 7.65422 60.4167 7.72659 60.8403 7.72659C61.6461 7.72659 62.4353 7.67977 63.2078 7.58611ZM59.7189 5.55548L61.1518 5.415C61.4841 5.38946 61.725 5.32135 61.8745 5.21066C62.0324 5.09998 62.1279 4.89564 62.1611 4.59764C62.1861 4.31668 62.1321 4.14214 61.9991 4.07402C61.8745 4.00591 61.6046 3.97611 61.1892 3.98462C60.7074 3.98462 60.3668 4.09105 60.1675 4.3039C59.9764 4.50824 59.8269 4.92544 59.7189 5.55548Z" fill="white"/>
<path d="M66.6367 2.78413V3.92077C67.0853 3.461 67.5006 3.12895 67.8828 2.92461C68.2732 2.71176 68.6802 2.60533 69.1039 2.60533C69.5524 2.60533 69.9055 2.7075 70.163 2.91184C70.4205 3.11618 70.57 3.40566 70.6116 3.78028C71.3841 2.99698 72.1567 2.60533 72.9292 2.60533C73.4941 2.60533 73.9053 2.7671 74.1628 3.09064C74.4286 3.40566 74.5241 3.83988 74.4494 4.3933L73.8139 9.08034H71.9822L72.5554 4.90415C72.5886 4.64021 72.5679 4.45716 72.4931 4.35499C72.4183 4.25282 72.2896 4.20173 72.1068 4.20173C71.8991 4.20173 71.679 4.26985 71.4464 4.40607C71.2138 4.5423 70.8982 4.79347 70.4994 5.15958L69.9636 9.08034H68.1943L68.755 4.90415C68.7965 4.64873 68.7841 4.46993 68.7176 4.36776C68.6511 4.25708 68.5182 4.20173 68.3189 4.20173C68.1029 4.20173 67.8744 4.26985 67.6335 4.40607C67.401 4.53379 67.0936 4.76793 66.7115 5.10849L66.1757 9.08034H64.344L65.2038 2.78413H66.6367Z" fill="white"/>
<path d="M80.9361 9.08034H79.5032L79.5157 7.9437C78.8843 8.77809 78.0453 9.20806 76.9987 9.2336C76.2261 9.25914 75.7028 9.00372 75.4287 8.46732C75.1628 7.92242 75.1171 7.03695 75.2916 5.81091C75.3747 5.23195 75.491 4.74664 75.6405 4.35499C75.79 3.95482 75.9561 3.6398 76.1389 3.40992C76.3216 3.18004 76.5584 3.0055 76.8491 2.8863C77.1399 2.7671 77.4182 2.69047 77.684 2.65642C77.9581 2.62236 78.3028 2.60533 78.7182 2.60533C79.1585 2.60533 79.6859 2.64364 80.3007 2.72027C80.9154 2.7969 81.4055 2.8863 81.771 2.98847L80.9361 9.08034ZM79.8022 3.99739H78.8553C78.2572 3.99739 77.8501 4.10382 77.6341 4.31668C77.4182 4.52953 77.2562 5.03612 77.1482 5.83645C77.0402 6.6453 77.0153 7.16466 77.0734 7.39454C77.1316 7.61591 77.3102 7.71808 77.6092 7.70105C78.1575 7.69254 78.7722 7.29663 79.4534 6.51333L79.8022 3.99739Z" fill="white"/>
<path d="M85.3279 6.81984L83.8451 6.19405C83.3467 5.98971 82.9978 5.73002 82.7985 5.415C82.5991 5.09998 82.5285 4.70407 82.5866 4.22728C82.6531 3.64831 82.8981 3.23112 83.3218 2.9757C83.7537 2.72027 84.4266 2.59682 85.3404 2.60533C86.4701 2.62236 87.4171 2.7075 88.1813 2.86076L88.0069 4.06125C86.412 4.03571 85.602 4.02294 85.5771 4.02294C85.0953 4.02294 84.7755 4.04422 84.6177 4.08679C84.4598 4.12085 84.3685 4.21025 84.3435 4.35499C84.3269 4.49973 84.3643 4.61041 84.4557 4.68704C84.5554 4.75515 84.7423 4.84455 85.0164 4.95524L86.5241 5.56826C87.0308 5.77259 87.388 6.01951 87.5957 6.30899C87.8034 6.59847 87.8781 6.98586 87.82 7.47117C87.7701 7.84579 87.6705 8.1523 87.5209 8.3907C87.3797 8.62909 87.172 8.80789 86.8979 8.92709C86.6238 9.04629 86.3289 9.12291 86.0132 9.15697C85.6976 9.19954 85.2947 9.22083 84.8046 9.22083C84.0569 9.22083 83.1556 9.1442 82.1007 8.99094L82.2751 7.77768C82.5742 7.79471 83.2263 7.80322 84.2314 7.80322C84.9458 7.80322 85.4193 7.77768 85.6519 7.72659C85.8845 7.67551 86.0174 7.56482 86.0506 7.39454C86.0672 7.26683 86.034 7.17317 85.9509 7.11357C85.8762 7.05398 85.7225 6.97735 85.4899 6.88369C85.4234 6.85815 85.3694 6.83686 85.3279 6.81984Z" fill="white"/>
<path d="M103.191 0.268195L100.674 8.58226C100.574 8.91432 100.342 9.08034 99.9764 9.08034H98.1821C98.016 9.08034 97.8706 9.025 97.746 8.91432C97.6214 8.79512 97.5549 8.65464 97.5466 8.49287L97.3846 2.7969V1.67303H97.1479C97.0399 2.14131 96.9444 2.52019 96.8613 2.80967L95.1542 8.56949C95.0545 8.91006 94.8178 9.08034 94.444 9.08034H92.6372C92.4711 9.08034 92.3216 9.025 92.1887 8.91432C92.0641 8.80363 92.0018 8.66741 92.0018 8.50564L91.7401 0.268195H93.6341V6.42393C93.6341 6.56867 93.6258 6.79855 93.6091 7.11357C93.6008 7.42008 93.5967 7.61591 93.5967 7.70105H93.8459C93.8874 7.52225 94.0079 7.071 94.2072 6.3473L95.8645 0.83013C95.9725 0.455507 96.2134 0.268195 96.5872 0.268195H98.1945C98.369 0.268195 98.5102 0.332052 98.6182 0.459764C98.7345 0.578963 98.7926 0.72796 98.7926 0.906757L99.0294 6.4367C99.046 6.99012 99.0502 7.41157 99.0419 7.70105H99.3035C99.4281 7.12209 99.532 6.67935 99.615 6.37284L101.26 0.268195H103.191Z" fill="white"/>
<path d="M108.322 7.58611L108.446 8.7866C107.757 9.0846 106.855 9.2336 105.742 9.2336C104.571 9.2336 103.765 8.95263 103.325 8.3907C102.885 7.82876 102.731 6.96458 102.864 5.79814C103.013 4.5721 103.354 3.73346 103.886 3.28221C104.417 2.83096 105.265 2.60533 106.428 2.60533C107.508 2.60533 108.239 2.78838 108.621 3.15449C109.011 3.5206 109.156 4.06125 109.057 4.77644C108.974 5.37243 108.737 5.79814 108.347 6.05356C107.956 6.30899 107.354 6.4665 106.54 6.5261L104.721 6.66658C104.729 7.08377 104.829 7.36474 105.02 7.50948C105.219 7.65422 105.53 7.72659 105.954 7.72659C106.76 7.72659 107.549 7.67977 108.322 7.58611ZM104.833 5.55548L106.266 5.415C106.598 5.38946 106.839 5.32135 106.988 5.21066C107.146 5.09998 107.242 4.89564 107.275 4.59764C107.3 4.31668 107.246 4.14214 107.113 4.07402C106.988 4.00591 106.718 3.97611 106.303 3.98462C105.821 3.98462 105.481 4.09105 105.281 4.3039C105.09 4.50824 104.941 4.92544 104.833 5.55548Z" fill="white"/>
<path d="M112.498 0.140483L112.224 2.32436C112.158 2.86927 112.041 3.36735 111.875 3.8186C112.689 3.01827 113.499 2.6181 114.305 2.6181C115.053 2.6181 115.563 2.87353 115.838 3.38438C116.112 3.89522 116.161 4.76367 115.987 5.98971C115.829 7.18169 115.505 8.02459 115.015 8.51841C114.525 9.00372 113.782 9.24637 112.785 9.24637C112.286 9.24637 111.705 9.19954 111.04 9.10589C110.384 9.01223 109.865 8.89303 109.483 8.74829L110.666 0.140483H112.498ZM111.838 5.08295L111.464 7.82876C111.996 7.84579 112.315 7.85431 112.423 7.85431C113.03 7.84579 113.437 7.72234 113.644 7.48394C113.852 7.24554 114.014 6.7049 114.13 5.86199C114.222 5.12978 114.234 4.6615 114.168 4.45716C114.11 4.25282 113.935 4.15065 113.644 4.15065C113.163 4.15065 112.56 4.46142 111.838 5.08295Z" fill="white"/>
<path d="M121.467 2.78413L121.442 3.99739C121.808 3.61426 122.219 3.29072 122.676 3.02678C123.133 2.76284 123.582 2.63087 124.022 2.63087C124.744 2.63087 125.243 2.89055 125.517 3.40992C125.791 3.92928 125.845 4.8105 125.679 6.05356C125.604 6.59847 125.5 7.06675 125.368 7.4584C125.243 7.84153 125.098 8.14804 124.931 8.37792C124.765 8.60781 124.562 8.79086 124.321 8.92709C124.088 9.0548 123.851 9.13994 123.611 9.18251C123.378 9.22508 123.1 9.24637 122.776 9.24637C122.169 9.24637 121.559 9.19103 120.944 9.08034C120.944 9.48051 120.915 9.87642 120.857 10.2681L120.657 11.5069H118.813L120.01 2.78413H121.467ZM121.168 7.93093H122.115C122.747 7.93093 123.158 7.82451 123.349 7.61165C123.548 7.39028 123.702 6.86241 123.81 6.02802C123.91 5.22769 123.926 4.71684 123.86 4.49547C123.802 4.26559 123.631 4.15065 123.349 4.15065C123.133 4.15065 122.859 4.24431 122.527 4.43162C122.194 4.61893 121.862 4.8701 121.53 5.18512L121.168 7.93093Z" fill="white"/>
<path d="M132.213 9.08034H130.78L130.793 7.9437C130.161 8.77809 129.322 9.20806 128.276 9.2336C127.503 9.25914 126.98 9.00372 126.706 8.46732C126.44 7.92242 126.394 7.03695 126.569 5.81091C126.652 5.23195 126.768 4.74664 126.917 4.35499C127.067 3.95482 127.233 3.6398 127.416 3.40992C127.599 3.18004 127.835 3.0055 128.126 2.8863C128.417 2.7671 128.695 2.69047 128.961 2.65642C129.235 2.62236 129.58 2.60533 129.995 2.60533C130.435 2.60533 130.963 2.64364 131.578 2.72027C132.192 2.7969 132.682 2.8863 133.048 2.98847L132.213 9.08034ZM131.079 3.99739H130.132C129.534 3.99739 129.127 4.10382 128.911 4.31668C128.695 4.52953 128.533 5.03612 128.425 5.83645C128.317 6.6453 128.292 7.16466 128.35 7.39454C128.409 7.61591 128.587 7.71808 128.886 7.70105C129.434 7.69254 130.049 7.29663 130.73 6.51333L131.079 3.99739Z" fill="white"/>
<path d="M138.785 2.60533L138.374 4.35499H137.926C137.668 4.35499 137.394 4.41459 137.103 4.53379C136.821 4.64447 136.41 4.84455 135.87 5.13403L135.346 9.08034H133.502L134.362 2.78413H135.795V3.97185C136.734 3.06084 137.606 2.60533 138.412 2.60533H138.785Z" fill="white"/>
<path d="M144.387 9.08034H142.954L142.967 7.9437C142.336 8.77809 141.497 9.20806 140.45 9.2336C139.677 9.25914 139.154 9.00372 138.88 8.46732C138.614 7.92242 138.568 7.03695 138.743 5.81091C138.826 5.23195 138.942 4.74664 139.092 4.35499C139.241 3.95482 139.407 3.6398 139.59 3.40992C139.773 3.18004 140.01 3.0055 140.3 2.8863C140.591 2.7671 140.869 2.69047 141.135 2.65642C141.409 2.62236 141.754 2.60533 142.169 2.60533C142.61 2.60533 143.137 2.64364 143.752 2.72027C144.367 2.7969 144.857 2.8863 145.222 2.98847L144.387 9.08034ZM143.254 3.99739H142.307C141.708 3.99739 141.301 4.10382 141.085 4.31668C140.869 4.52953 140.707 5.03612 140.599 5.83645C140.491 6.6453 140.467 7.16466 140.525 7.39454C140.583 7.61591 140.761 7.71808 141.06 7.70105C141.609 7.69254 142.223 7.29663 142.905 6.51333L143.254 3.99739Z" fill="white"/>
<path d="M41.5449 17.7383H43.3641L42.6663 22.834H41.2832L41.2334 21.7484C40.4857 22.5828 39.6218 23 38.6416 23C37.7611 23 37.1339 22.6296 36.7601 21.8889C36.3946 21.1482 36.3074 19.969 36.4984 18.3513C36.6147 17.4317 36.785 16.674 37.0093 16.078C37.2419 15.482 37.5451 15.0222 37.9189 14.6987C38.301 14.3752 38.7205 14.1538 39.1774 14.0346C39.6343 13.9154 40.2033 13.8558 40.8845 13.8558C41.9145 13.8558 42.7909 13.9622 43.5136 14.1751L43.2769 15.5927C42.3382 15.5501 41.549 15.5288 40.9094 15.5288C40.1036 15.5288 39.5346 15.7247 39.2023 16.1163C38.8783 16.4994 38.6374 17.2955 38.4796 18.5045C38.3467 19.5858 38.3467 20.3266 38.4796 20.7267C38.6125 21.1184 38.9282 21.3142 39.4266 21.3142C39.7755 21.3142 40.0745 21.2461 40.3237 21.1099C40.573 20.9651 40.8595 20.7395 41.1835 20.433L41.5449 17.7383Z" fill="white"/>
<path d="M49.5094 21.3397L49.6341 22.5402C48.9446 22.8382 48.0433 22.9872 46.9302 22.9872C45.7589 22.9872 44.9531 22.7063 44.5128 22.1443C44.0726 21.5824 43.9189 20.7182 44.0518 19.5518C44.2013 18.3257 44.5419 17.4871 45.0736 17.0358C45.6052 16.5846 46.4525 16.359 47.6155 16.359C48.6954 16.359 49.4264 16.542 49.8085 16.9081C50.1989 17.2742 50.3443 17.8149 50.2446 18.5301C50.1615 19.1261 49.9248 19.5518 49.5344 19.8072C49.1439 20.0626 48.5417 20.2201 47.7276 20.2797L45.9084 20.4202C45.9167 20.8374 46.0164 21.1184 46.2075 21.2631C46.4068 21.4079 46.7183 21.4802 47.142 21.4802C47.9478 21.4802 48.7369 21.4334 49.5094 21.3397ZM46.0205 19.3091L47.4535 19.1686C47.7858 19.1431 48.0267 19.075 48.1762 18.9643C48.334 18.8536 48.4296 18.6493 48.4628 18.3513C48.4877 18.0703 48.4337 17.8958 48.3008 17.8277C48.1762 17.7595 47.9062 17.7297 47.4909 17.7383C47.0091 17.7383 46.6685 17.8447 46.4691 18.0575C46.2781 18.2619 46.1285 18.6791 46.0205 19.3091Z" fill="white"/>
<path d="M53.7483 20.5735L52.2655 19.9477C51.7671 19.7433 51.4182 19.4837 51.2188 19.1686C51.0195 18.8536 50.9489 18.4577 51.007 17.9809C51.0735 17.4019 51.3185 16.9848 51.7422 16.7293C52.1741 16.4739 52.847 16.3504 53.7607 16.359C54.8905 16.376 55.8375 16.4611 56.6017 16.6144L56.4273 17.8149C54.8323 17.7893 54.0224 17.7766 53.9975 17.7766C53.5157 17.7766 53.1959 17.7979 53.038 17.8404C52.8802 17.8745 52.7888 17.9639 52.7639 18.1086C52.7473 18.2534 52.7847 18.364 52.8761 18.4407C52.9757 18.5088 53.1627 18.5982 53.4368 18.7089L54.9445 19.3219C55.4512 19.5262 55.8084 19.7731 56.0161 20.0626C56.2237 20.3521 56.2985 20.7395 56.2404 21.2248C56.1905 21.5994 56.0908 21.9059 55.9413 22.1443C55.8001 22.3827 55.5924 22.5615 55.3183 22.6807C55.0442 22.7999 54.7493 22.8765 54.4336 22.9106C54.1179 22.9532 53.7151 22.9745 53.225 22.9745C52.4773 22.9745 51.576 22.8978 50.5211 22.7446L50.6955 21.5313C50.9945 21.5483 51.6466 21.5569 52.6518 21.5569C53.3662 21.5569 53.8397 21.5313 54.0723 21.4802C54.3049 21.4291 54.4378 21.3185 54.471 21.1482C54.4876 21.0205 54.4544 20.9268 54.3713 20.8672C54.2965 20.8076 54.1429 20.731 53.9103 20.6373C53.8438 20.6118 53.7898 20.5905 53.7483 20.5735Z" fill="white"/>
<path d="M60.0661 17.8021L59.6549 20.8161C59.6216 21.0545 59.6383 21.2163 59.7047 21.3014C59.7795 21.3781 59.9415 21.4164 60.1907 21.4164H61.013L61.1003 22.7446C60.66 22.9063 60.0868 22.9872 59.3807 22.9872C58.7993 22.9872 58.3673 22.8255 58.0849 22.5019C57.8024 22.1699 57.7027 21.7144 57.7858 21.1354L58.2593 17.8021H57.1503L57.2999 16.6016L58.4338 16.5378L58.683 14.7753H60.4897L60.253 16.5378H61.9476L61.7731 17.8021H60.0661Z" fill="white"/>
<path d="M67.4398 13.7153L68.2123 13.7919C68.2206 14.3794 68.1168 14.8222 67.9008 15.1202C67.6931 15.4181 67.4148 15.5586 67.0659 15.5416C66.7669 15.5246 66.4014 15.4224 65.9694 15.2351C65.5458 15.0393 65.2758 14.9328 65.1595 14.9158C64.9435 14.8818 64.7857 14.9158 64.686 15.018C64.5946 15.1202 64.5323 15.2904 64.4991 15.5288L63.7266 15.465C63.7266 14.8605 63.8346 14.4092 64.0505 14.1112C64.2665 13.8132 64.5448 13.6727 64.8854 13.6898C65.1595 13.7068 65.5042 13.809 65.9196 13.9963C66.3349 14.1751 66.6174 14.2773 66.7669 14.3028C66.9912 14.3368 67.149 14.307 67.2404 14.2134C67.3401 14.1197 67.4065 13.9537 67.4398 13.7153ZM67.7762 22.834H66.3432L66.3557 21.6973C65.7244 22.5317 64.8854 22.9617 63.8387 22.9872C63.0662 23.0128 62.5428 22.7573 62.2687 22.221C62.0029 21.676 61.9572 20.7906 62.1316 19.5645C62.2147 18.9856 62.331 18.5003 62.4805 18.1086C62.6301 17.7085 62.7962 17.3934 62.9789 17.1635C63.1617 16.9337 63.3984 16.7591 63.6892 16.6399C63.9799 16.5207 64.2582 16.4441 64.524 16.41C64.7982 16.376 65.1429 16.359 65.5582 16.359C65.9985 16.359 66.526 16.3973 67.1407 16.4739C67.7554 16.5505 68.2455 16.6399 68.611 16.7421L67.7762 22.834ZM66.6423 17.751H65.6953C65.0972 17.751 64.6902 17.8575 64.4742 18.0703C64.2582 18.2832 64.0962 18.7898 63.9882 19.5901C63.8802 20.3989 63.8553 20.9183 63.9135 21.1482C63.9716 21.3695 64.1502 21.4717 64.4493 21.4547C64.9975 21.4462 65.6122 21.0503 66.2934 20.267L66.6423 17.751Z" fill="white"/>
<path d="M72.7536 16.359C73.8916 16.359 74.6849 16.6229 75.1335 17.1508C75.5821 17.6787 75.7233 18.5514 75.5572 19.7689C75.3993 20.9523 75.0546 21.7867 74.523 22.272C73.9996 22.7573 73.1814 23 72.0683 23C70.9385 23 70.1411 22.7361 69.6759 22.2082C69.219 21.6803 69.0736 20.8161 69.2398 19.6156C69.4059 18.4236 69.7506 17.585 70.274 17.0997C70.7973 16.6059 71.6239 16.359 72.7536 16.359ZM72.7411 17.7766C72.2344 17.7766 71.8689 17.9085 71.6446 18.1725C71.4286 18.4364 71.2667 18.9685 71.1587 19.7689C71.059 20.5011 71.0714 20.9864 71.196 21.2248C71.3206 21.4632 71.6238 21.5824 72.1057 21.5824C72.6041 21.5824 72.9613 21.4504 73.1772 21.1865C73.3932 20.914 73.5552 20.3904 73.6632 19.6156C73.7712 18.8834 73.7587 18.3938 73.6258 18.1469C73.5012 17.9 73.2063 17.7766 72.7411 17.7766Z" fill="white"/>
<path d="M85.7992 13.8941L84.5656 22.834H83.1202V21.6846C82.2895 22.553 81.438 22.9872 80.5658 22.9872C79.8763 22.9872 79.3862 22.719 79.0955 22.1826C78.8047 21.6462 78.7383 20.7736 78.8961 19.5645C78.9875 18.8919 79.1162 18.3385 79.2824 17.9043C79.4485 17.4701 79.6562 17.1465 79.9054 16.9337C80.1629 16.7123 80.4246 16.5633 80.6904 16.4867C80.9645 16.4015 81.2885 16.359 81.6623 16.359C82.3186 16.359 82.979 16.4143 83.6435 16.525C83.6601 15.9971 83.6892 15.5842 83.7307 15.2862L83.955 13.8941H85.7992ZM83.4192 17.6872H82.4349C81.8285 17.6872 81.4256 17.7979 81.2262 18.0192C81.0268 18.2321 80.8732 18.7557 80.7652 19.5901C80.6655 20.2968 80.6447 20.7778 80.7029 21.0332C80.761 21.2801 80.9396 21.3993 81.2387 21.3908C81.5377 21.3823 81.8201 21.3057 82.086 21.1609C82.3601 21.0077 82.6799 20.765 83.0454 20.433L83.4192 17.6872Z" fill="white"/>
<path d="M91.5111 21.3397L91.6357 22.5402C90.9463 22.8382 90.045 22.9872 88.9319 22.9872C87.7606 22.9872 86.9548 22.7063 86.5145 22.1443C86.0743 21.5824 85.9206 20.7182 86.0535 19.5518C86.203 18.3257 86.5436 17.4871 87.0753 17.0358C87.6069 16.5846 88.4542 16.359 89.6172 16.359C90.6971 16.359 91.4281 16.542 91.8102 16.9081C92.2006 17.2742 92.346 17.8149 92.2463 18.5301C92.1632 19.1261 91.9265 19.5518 91.5361 19.8072C91.1456 20.0626 90.5434 20.2201 89.7293 20.2797L87.9101 20.4202C87.9184 20.8374 88.0181 21.1184 88.2091 21.2631C88.4085 21.4079 88.72 21.4802 89.1437 21.4802C89.9494 21.4802 90.7386 21.4334 91.5111 21.3397ZM88.0222 19.3091L89.4552 19.1686C89.7875 19.1431 90.0284 19.075 90.1779 18.9643C90.3357 18.8536 90.4312 18.6493 90.4645 18.3513C90.4894 18.0703 90.4354 17.8958 90.3025 17.8277C90.1779 17.7595 89.9079 17.7297 89.4926 17.7383C89.0108 17.7383 88.6702 17.8447 88.4708 18.0575C88.2798 18.2619 88.1302 18.6791 88.0222 19.3091Z" fill="white"/>
<path d="M95.2692 22.834L96.4778 14.0218C97.2421 13.9452 98.3012 13.9069 99.6552 13.9069C100.727 13.9069 101.508 14.1112 101.998 14.5199C102.496 14.9201 102.679 15.6097 102.546 16.5888C102.463 17.2104 102.272 17.6999 101.973 18.0575C101.682 18.4066 101.229 18.6195 100.615 18.6961L100.602 18.7727C101.175 18.9089 101.52 19.3602 101.636 20.1265L102.085 22.834H100.141L99.7424 20.1009C99.7092 19.8285 99.6386 19.6454 99.5306 19.5518C99.4226 19.4496 99.2523 19.3985 99.0197 19.3985L97.5993 19.3857L97.1258 22.834H95.2692ZM97.8111 17.8915H99.1568C99.6552 17.8915 100.008 17.7979 100.216 17.6105C100.432 17.4232 100.577 17.0742 100.652 16.5633C100.719 16.1206 100.677 15.8183 100.527 15.6565C100.378 15.4863 100.075 15.4011 99.6178 15.4011L98.1475 15.4139L97.8111 17.8915Z" fill="white"/>
<path d="M108.519 21.3397L108.644 22.5402C107.954 22.8382 107.053 22.9872 105.94 22.9872C104.769 22.9872 103.963 22.7063 103.523 22.1443C103.082 21.5824 102.929 20.7182 103.062 19.5518C103.211 18.3257 103.552 17.4871 104.083 17.0358C104.615 16.5846 105.462 16.359 106.625 16.359C107.705 16.359 108.436 16.542 108.818 16.9081C109.209 17.2742 109.354 17.8149 109.254 18.5301C109.171 19.1261 108.935 19.5518 108.544 19.8072C108.154 20.0626 107.552 20.2201 106.737 20.2797L104.918 20.4202C104.927 20.8374 105.026 21.1184 105.217 21.2631C105.417 21.4079 105.728 21.4802 106.152 21.4802C106.958 21.4802 107.747 21.4334 108.519 21.3397ZM105.03 19.3091L106.463 19.1686C106.796 19.1431 107.037 19.075 107.186 18.9643C107.344 18.8536 107.439 18.6493 107.473 18.3513C107.498 18.0703 107.444 17.8958 107.311 17.8277C107.186 17.7595 106.916 17.7297 106.501 17.7383C106.019 17.7383 105.678 17.8447 105.479 18.0575C105.288 18.2619 105.138 18.6791 105.03 19.3091Z" fill="white"/>
<path d="M114.839 21.3397L114.964 22.5785C114.332 22.851 113.535 22.9872 112.571 22.9872C111.458 22.9872 110.681 22.7233 110.241 22.1954C109.801 21.6675 109.664 20.8033 109.83 19.6029C109.996 18.4194 110.328 17.585 110.827 17.0997C111.325 16.6059 112.123 16.359 113.219 16.359C114.191 16.359 114.976 16.4952 115.574 16.7676L115.325 17.9171C114.361 17.9 113.742 17.8915 113.468 17.8915C112.895 17.8915 112.484 18.015 112.235 18.2619C111.994 18.5003 111.832 18.9771 111.749 19.6923C111.657 20.433 111.687 20.914 111.836 21.1354C111.994 21.3483 112.347 21.4547 112.895 21.4547C113.668 21.4547 114.316 21.4164 114.839 21.3397Z" fill="white"/>
<path d="M119.382 16.359C120.52 16.359 121.314 16.6229 121.762 17.1508C122.211 17.6787 122.352 18.5514 122.186 19.7689C122.028 20.9523 121.683 21.7867 121.152 22.272C120.628 22.7573 119.81 23 118.697 23C117.567 23 116.77 22.7361 116.305 22.2082C115.848 21.6803 115.702 20.8161 115.868 19.6156C116.035 18.4236 116.379 17.585 116.903 17.0997C117.426 16.6059 118.253 16.359 119.382 16.359ZM119.37 17.7766C118.863 17.7766 118.498 17.9085 118.273 18.1725C118.057 18.4364 117.895 18.9685 117.787 19.7689C117.688 20.5011 117.7 20.9864 117.825 21.2248C117.949 21.4632 118.253 21.5824 118.734 21.5824C119.233 21.5824 119.59 21.4504 119.806 21.1865C120.022 20.914 120.184 20.3904 120.292 19.6156C120.4 18.8834 120.387 18.3938 120.254 18.1469C120.13 17.9 119.835 17.7766 119.37 17.7766Z" fill="white"/>
<path d="M128.086 16.359L127.675 18.1086H127.227C126.969 18.1086 126.695 18.1682 126.404 18.2874C126.122 18.3981 125.711 18.5982 125.171 18.8877L124.647 22.834H122.803L123.663 16.5378H125.096V17.7255C126.035 16.8145 126.907 16.359 127.713 16.359H128.086Z" fill="white"/>
<path d="M133.164 16.359L132.752 18.1086H132.304C132.046 18.1086 131.772 18.1682 131.482 18.2874C131.199 18.3981 130.788 18.5982 130.248 18.8877L129.725 22.834H127.88L128.74 16.5378H130.173V17.7255C131.112 16.8145 131.984 16.359 132.79 16.359H133.164Z" fill="white"/>
<path d="M134.965 15.9375L134.504 15.2223L136.348 13.5237H137.606L139.189 15.2989L138.628 15.9631L136.996 14.6987H136.896L134.965 15.9375ZM138.566 21.3397L138.69 22.5402C138.001 22.8382 137.1 22.9872 135.986 22.9872C134.815 22.9872 134.009 22.7063 133.569 22.1443C133.129 21.5824 132.975 20.7182 133.108 19.5518C133.258 18.3257 133.598 17.4871 134.13 17.0358C134.661 16.5846 135.509 16.359 136.672 16.359C137.752 16.359 138.483 16.542 138.865 16.9081C139.255 17.2742 139.401 17.8149 139.301 18.5301C139.218 19.1261 138.981 19.5518 138.591 19.8072C138.2 20.0626 137.598 20.2201 136.784 20.2797L134.965 20.4202C134.973 20.8374 135.073 21.1184 135.264 21.2631C135.463 21.4079 135.775 21.4802 136.198 21.4802C137.004 21.4802 137.793 21.4334 138.566 21.3397ZM135.077 19.3091L136.51 19.1686C136.842 19.1431 137.083 19.075 137.232 18.9643C137.39 18.8536 137.486 18.6493 137.519 18.3513C137.544 18.0703 137.49 17.8958 137.357 17.8277C137.232 17.7595 136.962 17.7297 136.547 17.7383C136.065 17.7383 135.725 17.8447 135.525 18.0575C135.334 18.2619 135.185 18.6791 135.077 19.3091Z" fill="white"/>
<path d="M142.007 16.5378V17.7893C142.962 16.8358 143.897 16.359 144.811 16.359C145.334 16.359 145.737 16.5165 146.019 16.8315C146.302 17.138 146.401 17.5765 146.318 18.1469L145.67 22.834H143.839L144.399 18.7089C144.441 18.4109 144.433 18.2108 144.375 18.1086C144.316 17.9979 144.188 17.9468 143.988 17.9554C143.523 17.9639 142.883 18.2959 142.069 18.9515L141.546 22.834H139.702L140.562 16.5378H142.007Z" fill="white"/>
<path d="M152.116 21.3397L152.241 22.5785C151.61 22.851 150.812 22.9872 149.849 22.9872C148.735 22.9872 147.959 22.7233 147.519 22.1954C147.078 21.6675 146.941 20.8033 147.107 19.6029C147.273 18.4194 147.606 17.585 148.104 17.0997C148.603 16.6059 149.4 16.359 150.497 16.359C151.468 16.359 152.253 16.4952 152.852 16.7676L152.602 17.9171C151.639 17.9 151.02 17.8915 150.746 17.8915C150.173 17.8915 149.761 18.015 149.512 18.2619C149.271 18.5003 149.109 18.9771 149.026 19.6923C148.935 20.433 148.964 20.914 149.113 21.1354C149.271 21.3483 149.624 21.4547 150.173 21.4547C150.945 21.4547 151.593 21.4164 152.116 21.3397Z" fill="white"/>
<path d="M154.838 13.7536H155.611C156.001 13.7536 156.176 13.9495 156.134 14.3411L156.047 15.0308C155.997 15.3713 155.798 15.5416 155.449 15.5416H154.664C154.282 15.5416 154.116 15.3458 154.166 14.9541L154.253 14.2773C154.286 13.9282 154.481 13.7536 154.838 13.7536ZM154.938 22.834H153.106L153.966 16.5378H155.798L154.938 22.834Z" fill="white"/>
<path d="M162.165 22.834H160.732L160.745 21.6973C160.113 22.5317 159.274 22.9617 158.228 22.9872C157.455 23.0128 156.932 22.7573 156.658 22.221C156.392 21.676 156.346 20.7906 156.521 19.5645C156.604 18.9856 156.72 18.5003 156.869 18.1086C157.019 17.7085 157.185 17.3934 157.368 17.1635C157.551 16.9337 157.787 16.7591 158.078 16.6399C158.369 16.5207 158.647 16.4441 158.913 16.41C159.187 16.376 159.532 16.359 159.947 16.359C160.387 16.359 160.915 16.3973 161.53 16.4739C162.144 16.5505 162.634 16.6399 163 16.7421L162.165 22.834ZM161.031 17.751H160.084C159.486 17.751 159.079 17.8575 158.863 18.0703C158.647 18.2832 158.485 18.7898 158.377 19.5901C158.269 20.3989 158.244 20.9183 158.302 21.1482C158.361 21.3695 158.539 21.4717 158.838 21.4547C159.386 21.4462 160.001 21.0503 160.682 20.267L161.031 17.751Z" fill="white"/>
</svg>
