<svg width="135" height="36" viewBox="0 0 135 36" fill="none" xmlns="http://www.w3.org/2000/svg">
<path d="M9.29032 0C8.15428 0 4.69565 0 2.34783 2.04488C1.18654 3.0547 0.580645 4.7209 0.807854 6.41234C1.00982 8.0028 1.86816 9.29032 3.15568 9.92146C6.00841 11.3604 7.59888 12.1935 8.78541 12.7994C10.2496 13.582 10.8303 14.5414 10.5526 15.7279C10.2244 17.1417 9.51753 17.8485 6.56381 17.7728C4.97335 17.7475 3.3324 17.6466 2.24684 17.5708C1.18654 17.4951 0.252454 18.2525 0.126227 19.3128L0 20.2216H0.151473C0.201964 20.2216 4.51893 20.4236 6.13464 20.4993C6.36185 20.4993 6.58906 20.5245 6.84151 20.5245C8.70968 20.5245 11.4614 20.1964 13.2034 18.5554C14.2637 17.5456 14.7938 16.1823 14.7938 14.4656C14.7938 11.1332 11.8654 9.89621 9.29032 8.78541C7.04348 7.82609 4.92286 6.91725 4.92286 4.82188C4.92286 4.74614 5.02384 2.82749 7.42216 2.82749C9.01262 2.82749 11.4867 2.95372 13.3043 3.0547C14.3394 3.10519 15.223 2.39832 15.3745 1.36325L15.5259 0.429172H15.3745C15.1978 0.403927 10.5526 0 9.29032 0Z" fill="#DC272B"/>
<path d="M29.3857 6.74042C28.4768 5.62962 26.7854 5.07422 24.3366 5.07422C21.3071 5.07422 19.439 5.35192 18.101 6.74042C16.7125 8.20465 16.0056 10.8807 15.7027 15.753C15.6774 15.9045 15.3745 17.4445 16.4095 18.7573C17.3436 19.9438 19.0603 20.5244 21.4839 20.5244C22.8976 20.5244 24.3366 20.4235 25.7756 20.2215C27.0126 20.0448 28.0224 19.035 28.1991 17.7979L28.2244 17.6212L28.0477 17.6465C27.9972 17.6465 24.1599 17.9999 22.6704 17.9746C22.5947 17.9746 22.4937 17.9746 22.4179 17.9746C21.5848 17.9746 20.6508 17.9494 20.0701 17.2678C19.54 16.6114 19.4137 15.5006 19.6914 13.8091H29.7644V13.6829C29.7896 13.5314 30.0926 10.0981 30.0926 9.16398C30.143 8.70956 30.143 7.64925 29.3857 6.74042ZM24.4881 7.59876C24.7405 7.59876 24.993 7.62401 25.2202 7.62401C25.5484 7.62401 25.8008 7.75024 26.0028 7.97745C26.6844 8.81055 26.432 10.7797 26.3562 11.2594H20.1459C20.3983 7.42205 22.5694 7.52303 24.4881 7.59876Z" fill="#DC272B"/>
<path d="M85.2033 5.07422C82.1739 5.07422 80.3057 5.35192 78.9677 6.74042C77.5792 8.20465 76.8724 10.8807 76.5694 15.753C76.5442 15.9045 76.2412 17.4445 77.2763 18.7573C78.2104 19.9438 79.9271 20.5244 82.3506 20.5244C83.7644 20.5244 85.2033 20.4235 86.6423 20.2215C87.8794 20.0448 88.8892 19.035 89.0659 17.7979L89.0911 17.6212L88.9144 17.6465C88.8639 17.6465 85.0266 17.9999 83.5371 17.9746C83.4614 17.9746 83.3604 17.9746 83.2847 17.9746C82.4516 17.9746 81.5175 17.9494 80.9369 17.2678C80.4067 16.6114 80.2805 15.5006 80.5582 13.8091H90.6311V13.6829C90.6563 13.5314 90.9593 10.0981 90.9593 9.16398C90.9593 8.70956 90.9593 7.6745 90.2019 6.74042C89.3436 5.62962 87.6269 5.07422 85.2033 5.07422ZM85.3296 7.59876C85.582 7.59876 85.8345 7.62401 86.0617 7.62401C86.3899 7.62401 86.6423 7.75024 86.8443 7.97745C87.5259 8.81055 87.2735 10.7797 87.1977 11.2594H81.0126C81.2651 7.42205 83.4362 7.52303 85.3296 7.59876Z" fill="#DC272B"/>
<path d="M65.3604 6.21036C64.6536 5.453 63.6942 5.07432 62.4572 5.07432C62.3815 5.07432 60.4123 5.09956 57.6353 6.26085L57.3324 5.32677L54.3534 5.04907L54.1262 6.63953C53.7475 6.03364 52.8639 5.07432 51.0968 5.07432C48.9004 5.07432 45.0378 6.15987 44.3815 6.36184C44.1543 6.05889 43.2202 5.07432 41.2258 5.07432C39.6606 5.07432 36.2524 6.18512 35.5203 6.43757L35.2931 5.42775L32.1122 5.37726L30.0421 20.1963H34.0813L35.6465 8.83589C36.2019 8.70966 39.3576 7.9523 40.1402 7.9523C40.5694 7.9523 40.8723 8.02803 41.0238 8.23C41.1753 8.38147 41.2005 8.63392 41.1753 8.96212C41.0743 9.76997 39.6858 19.9439 39.6606 20.0449L39.6353 20.1963H43.6998L45.1388 8.58343C45.6942 8.48245 48.6227 8.00279 49.7335 8.00279C50.0617 8.00279 50.2889 8.10377 50.4151 8.25524C50.6423 8.55819 50.5161 9.0631 50.5161 9.0631L48.9004 20.1711H52.258L51.4754 25.8766H53.6465C54.6311 25.8766 55.4642 25.1444 55.6157 24.1599L56.1711 20.1711C56.7517 20.2468 59.0996 20.4993 59.8569 20.4993C59.9074 20.4993 59.9579 20.4993 60.0336 20.4993C60.6648 20.5245 62.3562 20.6003 63.8457 19.2118C65.5876 17.5708 66.4965 14.4909 66.547 10.0477C66.5975 9.94669 66.7237 7.64935 65.3604 6.21036ZM62.6087 11.0322C62.4824 12.7237 62.1038 17.9242 59.5792 17.8485C57.6353 17.798 56.777 17.5708 56.5245 17.4698L57.7363 8.91162C58.1402 8.73491 60.1346 7.92705 61.1697 7.92705C61.6241 7.92705 61.927 8.02803 62.1543 8.28049C62.5834 8.73491 62.7097 9.59325 62.6087 11.0322Z" fill="#DC272B"/>
<path d="M77.1248 7.92705H77.2511L77.7055 5.04907H77.554C77.5288 5.04907 74.7265 5.12481 72 6.36184L71.9748 5.35202L68.5666 5.04907L66.4208 20.1963H68.6929C69.6774 20.1963 70.5358 19.4642 70.662 18.4797L71.9748 8.96212C72.4797 8.81064 75.4586 7.87656 77.1248 7.92705Z" fill="#DC272B"/>
<path d="M134.028 9.61842C133.321 8.40664 132.286 7.7755 130.999 7.7755C129.105 7.7755 125.596 9.36596 123.45 10.8302C123.425 10.8302 123.097 11.0827 123.172 11.4866C123.223 11.6885 123.349 11.84 123.526 11.9158C123.703 11.9915 123.905 11.9915 124.081 11.8905C124.182 11.84 128.525 9.76989 131.125 9.76989C132.185 9.76989 132.337 11.3856 132.286 13.6072C132.21 16.0813 131.478 18.631 130.342 18.631C129.055 18.631 124.132 15.9803 118.931 13.178C111.56 9.21449 103.203 4.69556 100.022 4.69556C98.331 4.69556 96.9425 5.60439 96.0084 7.29584C95.1248 8.8863 94.6704 11.1584 94.7461 13.5567C94.8219 15.8793 95.352 18.0251 96.2356 19.4136C96.9425 20.5244 97.8008 21.1051 98.7602 21.1051C98.8106 21.1051 98.8611 21.1051 98.9116 21.1051C102.976 20.8779 112.014 16.8134 112.494 16.6114C112.721 16.5357 112.872 16.3085 112.872 16.0812C112.872 15.7531 112.62 15.5006 112.292 15.5006C112.216 15.5006 111.635 15.6521 109.868 16.1065C106.738 16.9396 101.487 18.5805 100.527 18.5805C99.7447 18.5805 99.1388 18.0756 98.6844 17.0658C98.3057 16.1822 98.1038 14.6928 98.1038 13.3295C98.1038 10.7797 98.8611 8.02795 100.098 8.02795C102.269 8.02795 107.899 10.9312 113.857 14.0111C120.597 17.495 127.59 21.0798 130.67 21.0798C131.907 21.0798 133.043 20.2467 133.851 18.7068C134.558 17.3435 134.962 15.5259 134.962 13.7334C134.962 12.1177 134.634 10.6535 134.028 9.61842Z" fill="#DC272B"/>
<path d="M69.3744 24.9425C69.5259 24.9172 69.5764 24.9677 69.5511 25.1192L69.2734 26.8106H70.7377C70.8639 26.8106 70.9144 26.8611 70.9144 26.9874L70.7882 27.7447C70.7882 27.871 70.7124 27.9467 70.561 27.9467H69.0967L68.5161 31.6325C68.4403 32.1627 68.5666 32.2637 69.1725 32.2637H69.7026C69.8288 32.2637 69.9046 32.3141 69.8793 32.4404L69.7531 33.2482C69.7279 33.3745 69.6521 33.4502 69.5259 33.4754C69.223 33.5259 68.92 33.5512 68.6423 33.5512C67.7082 33.5512 66.7237 33.5259 66.9509 32.0617L67.6073 27.9214H66.6732C66.547 27.9214 66.4965 27.871 66.4965 27.7195L66.6227 26.9621C66.6227 26.8359 66.6984 26.7854 66.8499 26.7854H67.8092L68.0364 25.3969C68.0617 25.2959 68.1122 25.2202 68.2384 25.1949L69.3744 24.9425Z" fill="#707375"/>
<path d="M76.6704 27.3913C76.9733 27.8205 77.0238 28.7041 76.8219 30.0169L76.7714 30.3703C76.7461 30.6228 76.6451 30.6985 76.317 30.6985H72.4796C72.4039 31.3296 72.4544 31.7588 72.6059 31.9608C72.7573 32.1627 73.136 32.2637 73.7419 32.2637H75.812C75.9383 32.2637 75.9888 32.3142 75.9635 32.4404L75.8373 33.1978C75.8373 33.2988 75.7616 33.3745 75.6353 33.3998C75.0294 33.4755 74.3226 33.526 73.4642 33.526C71.1164 33.526 70.6872 32.8444 71.0911 30.1179C71.3183 28.7546 71.6465 27.8205 72.101 27.3913C72.5554 26.9369 73.3632 26.7097 74.5245 26.7097C75.6606 26.735 76.3675 26.9622 76.6704 27.3913ZM73.136 28.3507C72.9088 28.5779 72.7321 29.0071 72.6311 29.6634H75.4081C75.5091 29.0071 75.4839 28.5779 75.3324 28.3507C75.1809 28.1235 74.8527 28.0225 74.3226 28.0225C73.7672 28.0225 73.3632 28.1235 73.136 28.3507Z" fill="#707375"/>
<path d="M83.209 26.8863C83.3352 26.9116 83.3857 26.9873 83.3604 27.1135L83.2342 27.8457C83.2342 27.9719 83.1585 28.0224 83.007 28.0224H81.1136C80.4824 28.0224 80.0533 28.1486 79.8513 28.4263C79.6241 28.704 79.4474 29.2594 79.2959 30.143C79.1444 31.0013 79.1444 31.582 79.2707 31.8597C79.4221 32.1374 79.8008 32.2889 80.432 32.2889H82.3254C82.4516 32.2889 82.5021 32.3393 82.5021 32.4656L82.3759 33.1977C82.3506 33.3239 82.2749 33.3997 82.1486 33.4249C81.6185 33.5006 80.9874 33.5511 80.23 33.5511C79.0182 33.5511 78.2609 33.3239 77.9579 32.8947C77.655 32.4403 77.6297 31.5315 77.8317 30.143C78.0589 28.7545 78.3871 27.8457 78.8163 27.4165C79.2707 26.9621 80.1038 26.7601 81.3156 26.7601C82.0982 26.7349 82.7293 26.7853 83.209 26.8863Z" fill="#707375"/>
<path d="M88.46 26.7854C88.9901 26.8358 89.4446 26.9873 89.6718 27.2398C90.0252 27.6689 90.0757 28.3506 89.899 29.6381L89.3183 33.3492C89.2931 33.4754 89.2174 33.5259 89.0911 33.5259H88.0056C87.9046 33.5259 87.8289 33.4754 87.8541 33.3492L88.4095 29.9158C88.5105 29.1837 88.5105 28.7545 88.46 28.4768C88.4347 28.3506 88.359 28.2496 88.2328 28.1739C87.9803 28.0476 87.8036 28.0224 87.2735 28.0224H85.885L85.0519 33.3239C85.0266 33.4502 84.9509 33.5006 84.8246 33.5006H83.7139C83.6129 33.5006 83.5624 33.4502 83.5624 33.3239L84.5469 27.1388C84.5722 26.9873 84.6227 26.9621 84.7489 26.9368C85.4053 26.8106 86.3141 26.7349 87.5007 26.7349C87.8793 26.7349 88.2075 26.7601 88.46 26.7854Z" fill="#707375"/>
<path d="M96.6395 27.164C97.2454 27.6437 97.2706 28.502 97.0182 30.1682C96.8162 31.5315 96.4628 32.4656 96.0084 32.8948C95.5539 33.3492 94.7208 33.5511 93.5343 33.5511C91.136 33.5511 90.6816 32.8695 91.136 30.143C91.3632 28.7545 91.6914 27.8457 92.1458 27.4165C92.6002 26.9621 93.4333 26.7349 94.6451 26.7349C95.6297 26.7349 96.2103 26.8611 96.6395 27.164ZM92.575 31.8597C92.7265 32.1374 93.1051 32.2889 93.7363 32.2889C94.3674 32.2889 94.7966 32.1626 94.9985 31.8849C95.2258 31.6072 95.4025 31.0266 95.5539 30.143C95.7054 29.2847 95.7054 28.704 95.5539 28.4263C95.4277 28.1234 95.0238 27.9971 94.3927 27.9971C93.7615 27.9971 93.3324 28.1234 93.1304 28.4011C92.9032 28.6788 92.7265 29.2594 92.575 30.143C92.4488 31.0266 92.4488 31.582 92.575 31.8597Z" fill="#707375"/>
<path d="M100.603 24.2356C100.704 24.2356 100.78 24.2861 100.755 24.4123L99.3408 33.324C99.3408 33.4502 99.265 33.5007 99.1388 33.5007H98.028C97.927 33.5007 97.8513 33.4502 97.8765 33.324L99.2903 24.4123C99.2903 24.2861 99.366 24.2356 99.4923 24.2356H100.603Z" fill="#707375"/>
<path d="M106.738 27.164C107.344 27.6437 107.369 28.502 107.116 30.1682C106.914 31.5315 106.561 32.4656 106.107 32.8948C105.652 33.3492 104.819 33.5511 103.632 33.5511C101.234 33.5511 100.78 32.8695 101.234 30.143C101.461 28.7545 101.79 27.8457 102.244 27.4165C102.698 26.9621 103.532 26.7349 104.743 26.7349C105.728 26.7349 106.308 26.8611 106.738 27.164ZM102.673 31.8597C102.825 32.1374 103.203 32.2889 103.834 32.2889C104.466 32.2889 104.895 32.1626 105.097 31.8849C105.324 31.6072 105.501 31.0266 105.652 30.143C105.804 29.2847 105.804 28.704 105.652 28.4263C105.526 28.1234 105.122 27.9971 104.491 27.9971C103.86 27.9971 103.431 28.1234 103.229 28.4011C103.001 28.6788 102.825 29.2594 102.673 30.143C102.547 31.0266 102.547 31.582 102.673 31.8597Z" fill="#707375"/>
<path d="M114.337 26.9619C114.488 26.9619 114.564 27.0629 114.539 27.2143L113.604 33.1218C113.428 34.2578 113.226 34.8637 112.721 35.3434C112.241 35.823 111.484 35.9997 110.272 35.9997C109.54 35.9997 108.884 35.9493 108.303 35.8735C108.202 35.8483 108.151 35.7978 108.177 35.6716L108.303 34.9647C108.303 34.8385 108.379 34.788 108.505 34.788H110.398C111.004 34.788 111.408 34.7122 111.635 34.5103C111.863 34.3335 112.014 34.0054 112.09 33.5257V33.4752C111.635 33.5509 111.105 33.5762 110.525 33.5762C109.414 33.5762 108.707 33.349 108.404 32.8693C108.101 32.3896 108.076 31.4808 108.303 30.1176C108.505 28.7795 108.858 27.896 109.313 27.4415C109.792 26.9871 110.625 26.7599 111.837 26.7599C112.822 26.7347 113.655 26.8104 114.337 26.9619ZM112.948 28.0222H111.56C110.928 28.0222 110.499 28.1484 110.272 28.4261C110.045 28.7038 109.868 29.2845 109.742 30.1428C109.59 31.0011 109.59 31.5818 109.742 31.8595C109.893 32.1372 110.297 32.2634 110.954 32.2634C111.509 32.2634 111.938 32.2382 112.266 32.1877L112.948 28.0222Z" fill="#707375"/>
<path d="M117.467 26.8106C117.593 26.8106 117.644 26.8611 117.618 26.9873L116.609 33.3239C116.609 33.4501 116.533 33.5006 116.407 33.5006H115.296C115.195 33.5006 115.119 33.4501 115.144 33.3239L116.154 26.9873C116.179 26.8611 116.255 26.8106 116.381 26.8106H117.467ZM118.098 24.8919C118.022 25.4473 117.669 25.725 117.088 25.725C116.508 25.725 116.255 25.4221 116.331 24.8919C116.407 24.3365 116.76 24.0588 117.341 24.0588C117.896 24.0588 118.174 24.3618 118.098 24.8919Z" fill="#707375"/>
<path d="M124.031 28.7294L123.349 32.9454C123.349 33.1221 123.248 33.2483 123.046 33.2988C122.39 33.4755 121.481 33.5765 120.269 33.5765C118.578 33.5765 117.77 33.2988 118.022 31.5569C118.149 30.8248 118.401 30.3199 118.83 30.0422C119.259 29.7645 119.865 29.6382 120.648 29.6382H122.415L122.516 29.0071C122.617 28.3255 122.264 28.0478 121.304 28.0478H119.31C119.184 28.0478 119.158 28.0225 119.158 27.8458L119.285 27.1137C119.285 27.0127 119.36 26.937 119.487 26.9117C120.093 26.8107 120.749 26.7602 121.532 26.7602C123.602 26.735 124.258 27.3661 124.031 28.7294ZM122.264 30.6733H120.597C119.941 30.6733 119.638 30.9005 119.537 31.4811C119.436 32.1628 119.714 32.3395 120.623 32.3395C121.203 32.3395 121.683 32.289 122.036 32.2133L122.264 30.6733Z" fill="#707375"/>
</svg>
