<svg width="300" height="63" viewBox="0 0 300 63" fill="none" xmlns="http://www.w3.org/2000/svg">
<path d="M40.3022 60.6054C40.2198 61.0189 40.1374 61.4323 40.0549 61.763C39.9725 61.3496 39.8901 60.9362 39.8077 60.6054L39.3956 58.9518H38.3242L39.3956 62.7552H40.6319L41.7033 58.9518H40.7143L40.3022 60.6054ZM93.7088 60.1094C93.7088 59.1999 93.0495 58.8691 92.2253 58.8691H90.8242V62.6725H91.8132V61.4323H92.2253L92.8846 62.6725H93.956L93.1319 61.1842C93.4615 61.0189 93.7088 60.6881 93.7088 60.1094ZM92.1429 60.6054H91.8132V59.696H92.1429C92.5549 59.696 92.7198 59.7786 92.7198 60.1094C92.7198 60.4401 92.5549 60.6054 92.1429 60.6054ZM34.6154 61.1842H35.8517V60.3574H34.6154V59.7786H36.0165V58.9518H33.6264V62.6725H36.0989V61.8457H34.6154V61.1842ZM49.6154 60.5228L49.1209 60.3574C48.7912 60.192 48.6264 60.1094 48.6264 59.944C48.6264 59.7786 48.7912 59.696 49.0385 59.696C49.2857 59.696 49.533 59.7786 49.7802 59.944L50.2747 59.3652C49.9451 59.0345 49.4506 58.8691 49.0385 58.8691C48.2143 58.8691 47.6374 59.3652 47.6374 60.0267C47.6374 60.6054 47.967 60.9362 48.3791 61.1015L48.8736 61.2669C49.2033 61.4323 49.3681 61.4323 49.3681 61.5976C49.3681 61.763 49.2033 61.8457 48.956 61.8457C48.7088 61.8457 48.3791 61.6803 48.0494 61.5149L47.4725 62.1764C47.8846 62.5071 48.3791 62.7552 48.8736 62.7552C49.7802 62.7552 50.3571 62.1764 50.3571 61.5149C50.3571 61.0189 50.1099 60.6881 49.6154 60.5228ZM43.9286 62.6725H44.9176V58.8691H43.9286V62.6725ZM113.159 58.8691C112.088 58.8691 111.429 59.5306 111.429 60.7708C111.429 62.011 112.17 62.7552 113.159 62.7552C114.148 62.7552 114.89 62.011 114.89 60.7708C114.89 59.5306 114.231 58.8691 113.159 58.8691ZM113.159 61.9283C112.747 61.9283 112.418 61.5149 112.418 60.8535C112.418 60.192 112.665 59.7786 113.159 59.7786C113.654 59.7786 113.901 60.192 113.901 60.8535C113.901 61.5149 113.571 61.9283 113.159 61.9283ZM1.15385 58.9518L0 62.6725H0.989011L1.15385 61.8457H2.22527L2.47253 62.6725H3.54396L2.39011 58.8691H1.15385V58.9518ZM1.4011 61.1015L1.48352 60.8535C1.56593 60.5228 1.64835 60.0267 1.73077 59.696C1.81319 60.1094 1.8956 60.5228 1.97802 60.8535L2.06044 61.1015H1.4011ZM10.7967 60.5228L10.3022 60.3574C9.97253 60.192 9.72528 60.192 9.72528 59.944C9.72528 59.7786 9.89011 59.696 10.1374 59.696C10.3846 59.696 10.6319 59.7786 10.8791 59.944L11.3736 59.2825C11.044 58.9518 10.5495 58.7865 10.1374 58.7865C9.31319 58.7865 8.73626 59.2825 8.73626 59.944C8.73626 60.5228 9.06593 60.8535 9.47802 61.0189L9.97253 61.1842C10.3022 61.3496 10.467 61.3496 10.467 61.5149C10.467 61.6803 10.3022 61.763 10.0549 61.763C9.80769 61.763 9.47802 61.5976 9.14835 61.4323L8.57143 62.0937C8.98352 62.4244 9.47802 62.6725 9.97253 62.6725C10.8791 62.6725 11.456 62.0937 11.456 61.4323C11.5385 61.0189 11.2088 60.6881 10.7967 60.5228ZM52.4176 59.7786H53.4066V62.6725H54.3956V59.7786H55.3846V58.9518H52.4176V59.7786ZM16.1538 61.0189C16.1538 61.6803 15.989 61.9283 15.5769 61.9283C15.1648 61.9283 15 61.6803 15 61.0189V58.9518H14.011V60.9362C14.011 62.2591 14.5055 62.8378 15.5769 62.8378C16.6484 62.8378 17.1429 62.2591 17.1429 60.9362V58.9518H16.1538V61.0189ZM20.4396 58.9518L19.2857 62.6725H20.2747L20.4396 61.8457H21.511L21.6758 62.6725H22.7473L21.5934 58.8691H20.4396V58.9518ZM20.6044 61.1015L20.6868 60.8535C20.7692 60.5228 20.8516 60.0267 20.9341 59.696C21.0165 60.1094 21.0989 60.5228 21.1813 60.8535L21.2637 61.1015H20.6044ZM31.0714 60.1094C31.0714 59.1999 30.4121 58.8691 29.5879 58.8691H28.1868V62.6725H29.1758V61.4323H29.5879L30.2473 62.6725H31.3187L30.4945 61.1842C30.8242 61.0189 31.0714 60.6881 31.0714 60.1094ZM29.4231 60.6054H29.0934V59.696H29.4231C29.8352 59.696 30 59.7786 30 60.1094C30.0824 60.4401 29.8352 60.6054 29.4231 60.6054ZM72.6099 61.1842H73.8462V60.3574H72.6099V59.7786H74.011V58.9518H71.6209V62.6725H74.0934V61.8457H72.6099V61.1842ZM79.6154 59.7786H80.6044V62.6725H81.5934V59.7786H82.5824V58.9518H79.6154V59.7786ZM67.1703 58.9518H66.0989V62.6725H67.2527C68.3242 62.6725 69.1484 62.0937 69.1484 60.7708C69.0659 59.4479 68.2418 58.9518 67.1703 58.9518ZM67.0879 61.9283L67.0055 59.7786H67.0879C67.6648 59.7786 68.0769 59.944 68.0769 60.8535C68.0769 61.6803 67.5824 61.9283 67.0879 61.9283ZM87.1154 61.0189C87.1154 61.6803 86.9506 61.9283 86.5385 61.9283C86.1264 61.9283 85.9615 61.6803 85.9615 61.0189V58.9518H84.9725V60.9362C84.9725 62.2591 85.467 62.8378 86.5385 62.8378C87.6099 62.8378 88.1044 62.2591 88.1044 60.9362V58.9518H87.1154V61.0189ZM96.3462 62.6725H97.3352V58.8691H96.3462V62.6725ZM101.951 60.5228L101.456 60.3574C101.126 60.192 100.879 60.192 100.879 59.944C100.879 59.7786 101.044 59.696 101.291 59.696C101.538 59.696 101.786 59.7786 102.033 59.944L102.527 59.2825C102.198 58.9518 101.703 58.7865 101.291 58.7865C100.467 58.7865 99.8901 59.2825 99.8901 59.944C99.8901 60.5228 100.22 60.8535 100.632 61.0189L101.126 61.1842C101.456 61.3496 101.621 61.3496 101.621 61.5149C101.621 61.6803 101.456 61.763 101.209 61.763C100.962 61.763 100.632 61.5976 100.302 61.4323L99.7253 62.0937C100.137 62.4244 100.632 62.6725 101.126 62.6725C102.033 62.6725 102.61 62.0937 102.61 61.4323C102.692 61.0189 102.445 60.6881 101.951 60.5228ZM58.3517 58.9518L57.1978 62.6725H58.1868L58.3517 61.8457H59.4231L59.5879 62.6725H60.6593L59.5055 58.8691H58.3517V58.9518ZM58.5989 61.1015L58.6813 60.8535C58.7637 60.5228 58.8462 60.0267 58.9286 59.696C59.011 60.1094 59.0934 60.5228 59.1758 60.8535L59.2582 61.1015H58.5989ZM107.225 60.5228L106.978 61.1015L106.731 60.5228L106.154 58.9518H105.165V62.6725H106.071V61.5976C106.071 61.1842 105.989 60.6054 105.907 60.2747L106.236 61.1842L106.731 62.4244H107.06L107.555 61.1842L107.885 60.2747C107.802 60.6881 107.72 61.2669 107.72 61.5976V62.6725H108.626V58.8691H107.637L107.225 60.5228ZM6.01648 8.68154H6.18132L10.1374 13.8905H10.3022L14.2582 8.68154H14.4231V18.0245H20.4396V0.0826814H14.4231L10.3846 5.7877H10.2198L6.01648 0.0826814H0V18.0245H6.01648V8.68154ZM97.5 13.3117H88.1868V0.0826814H82.1703V18.0245H97.4176V13.3117H97.5ZM38.0769 13.3117H28.2692V11.41H38.0769V6.69719H28.2692V4.79552H38.0769V0.0826814H22.2527V18.0245H38.0769V13.3117ZM48.6264 18.3553C53.4066 18.3553 57.6099 16.0402 57.6099 10.0044V0.0826814H51.5934V9.83908C51.5934 12.0715 50.6044 13.3117 48.7088 13.3117C46.8956 13.3117 45.7418 12.1542 45.7418 9.83908V0.0826814H39.7253V9.92176C39.7253 16.0402 43.9286 18.3553 48.6264 18.3553ZM136.071 12.4022C136.071 11.162 135.659 10.0044 135 9.01227C135.659 8.10277 136.071 7.02792 136.071 5.7877C136.071 2.2324 133.846 0.0826814 130.22 0.0826814H117.445V18.0245H130.22C133.846 18.0245 136.071 15.9575 136.071 12.4022ZM123.462 4.79552H129.396C129.973 4.79552 130.385 5.12625 130.385 5.70501C130.385 6.28378 129.973 6.69719 129.396 6.69719H123.462V4.79552ZM129.396 13.3944H123.462V11.41H129.396C129.973 11.41 130.385 11.7408 130.385 12.4022C130.385 13.0637 129.973 13.3944 129.396 13.3944ZM106.813 18.3553C111.593 18.3553 115.797 16.0402 115.797 10.0044V0.0826814H109.78V9.83908C109.78 12.0715 108.791 13.3117 106.896 13.3117C105.082 13.3117 103.929 12.1542 103.929 9.83908V0.0826814H97.9121V9.92176C97.9121 16.0402 102.033 18.3553 106.813 18.3553ZM153.544 13.3117H143.736V11.41H153.544V6.69719H143.736V4.79552H153.544V0.0826814H137.72V18.0245H153.544V13.3117ZM74.6703 18.3553C77.3077 18.3553 79.6154 17.2804 81.3462 15.5441L77.1429 11.3273C76.5659 11.9888 75.6593 12.4849 74.6703 12.4849C72.8571 12.4849 71.3736 10.9966 71.3736 9.17763C71.3736 7.35864 72.8571 5.87038 74.6703 5.87038C75.6593 5.87038 76.5659 6.28378 77.1429 7.02792L81.3462 2.81117C79.6978 1.07486 77.3077 0 74.6703 0C69.5604 0 65.4396 4.13407 65.4396 9.26031C65.4396 14.2212 69.5604 18.3553 74.6703 18.3553ZM291.016 33.4033H284.753C283.681 33.4033 282.94 32.9899 282.94 31.915C282.94 30.9228 283.681 30.5094 284.753 30.5094H299.093V23.0681H282.445C277.912 23.0681 273.462 25.4659 273.462 31.9977C273.462 37.7027 277.253 40.9273 281.951 40.9273H288.626C289.945 40.9273 290.522 41.506 290.522 42.4155C290.522 43.325 289.945 43.9038 288.709 43.9038H274.038L273.956 51.3451H290.769C295.962 51.3451 300 47.7071 300 42.3329C299.918 36.5452 296.374 33.4033 291.016 33.4033ZM264.725 20.0089L264.56 18.0245L251.538 19.4301L251.703 21.4972L264.725 20.0089ZM27.6099 37.0413C28.6813 35.6357 29.2582 33.8994 29.2582 31.9977C29.2582 26.3754 25.7967 23.0681 20.0275 23.0681H0V51.2625H20.1099C25.7967 51.2625 29.3407 47.9552 29.3407 42.3329C29.2582 40.3485 28.5989 38.4468 27.6099 37.0413ZM18.7088 43.9038H9.3956V40.7619H18.7088C19.6154 40.7619 20.2747 41.3407 20.2747 42.3329C20.2747 43.2424 19.6154 43.9038 18.7088 43.9038ZM18.7088 33.486H9.3956V30.4267H18.7088C19.6154 30.4267 20.2747 30.9228 20.2747 31.915C20.2747 32.9072 19.6154 33.486 18.7088 33.486ZM91.978 23.0681H82.5824V37.7027H82.3352L71.1264 23.0681H61.7308V51.2625H71.1264V37.0413H71.456L82.5824 51.1798H91.978V23.0681ZM133.104 22.572C125.11 22.572 118.599 29.0212 118.599 37.0413C118.599 45.0613 125.11 51.5932 133.104 51.5932C141.099 51.5932 147.61 45.144 147.61 37.0413C147.61 29.1038 141.099 22.572 133.104 22.572ZM133.104 42.3329C130.22 42.3329 127.912 40.0178 127.912 37.1239C127.912 34.2301 130.22 31.915 133.104 31.915C135.989 31.915 138.297 34.2301 138.297 37.1239C138.297 40.0178 135.989 42.3329 133.104 42.3329ZM37.9121 23.0681L29.7527 51.2625H39.478L40.2198 48.3686H50.3571L51.0989 51.2625H60.8242L52.6648 23.0681H37.9121ZM42.2802 40.8446L45 30.5094H45.6593L48.3791 40.8446H42.2802ZM178.681 31.9977C178.681 26.3754 175.22 23.0681 169.533 23.0681H149.67V51.2625H159.066V40.7619H163.516L169.451 51.1798H179.67L172.912 40.0178C176.126 38.7776 178.681 35.7184 178.681 31.9977ZM167.72 33.4033H158.984V30.4267H167.72C168.626 30.4267 169.286 30.8401 169.286 31.915C169.286 32.8245 168.626 33.4033 167.72 33.4033ZM201.264 23.0681H181.154V51.2625H201.264C206.951 51.2625 210.495 47.9552 210.495 42.3329C210.495 40.3485 209.835 38.5295 208.846 37.0413C209.918 35.6357 210.495 33.8994 210.495 31.9977C210.495 26.2927 207.033 23.0681 201.264 23.0681ZM199.945 43.9038H190.632V40.7619H199.945C200.852 40.7619 201.511 41.3407 201.511 42.3329C201.429 43.2424 200.852 43.9038 199.945 43.9038ZM199.945 33.486H190.632V30.4267H199.945C200.852 30.4267 201.511 30.9228 201.511 31.915C201.429 32.9072 200.852 33.486 199.945 33.486ZM108.462 42.3329C105.577 42.3329 103.269 40.0178 103.269 37.1239C103.269 34.2301 105.577 31.915 108.462 31.915C110.027 31.915 111.429 32.5765 112.418 33.734L118.929 27.1195C116.291 24.391 112.582 22.6547 108.462 22.6547C100.467 22.6547 93.956 29.1038 93.956 37.1239C93.956 45.144 100.467 51.6759 108.462 51.6759C112.582 51.6759 116.291 49.9395 118.929 47.2111L112.335 40.5965C111.429 41.6714 110.027 42.3329 108.462 42.3329ZM250.714 23.0681L242.555 51.0971L235.879 40.1005C239.176 38.7776 241.731 35.7184 241.731 31.9977C241.731 26.3754 238.269 23.0681 232.582 23.0681H212.72V51.2625H222.115V40.7619H226.566L232.5 51.1798H242.555H242.72H252.28L253.022 48.2859H263.159L263.901 51.1798H273.626L265.467 22.9854H250.714V23.0681ZM230.852 33.4033H222.115V30.4267H230.852C231.758 30.4267 232.418 30.8401 232.418 31.915C232.335 32.8245 231.758 33.4033 230.852 33.4033ZM255.082 40.8446L257.802 30.5094H258.462L261.181 40.8446H255.082Z" fill="white"/>
</svg>
