<svg width="162" height="43" viewBox="0 0 162 43" fill="none" xmlns="http://www.w3.org/2000/svg">
<path d="M11.0968 0C9.73983 0 5.6087 0 2.80435 2.4425C1.41725 3.64867 0.693548 5.63885 0.964937 7.65919C1.20617 9.55891 2.23142 11.0968 3.76928 11.8506C7.17672 13.5694 9.07644 14.5645 10.4937 15.2882C12.2426 16.223 12.9362 17.3689 12.6045 18.7861C12.2125 20.4748 11.3682 21.3191 7.84011 21.2286C5.94039 21.1985 3.98036 21.0778 2.68373 20.9874C1.41725 20.8969 0.301543 21.8015 0.150771 23.068L0 24.1536H0.180926C0.241234 24.1536 5.39762 24.3948 7.32749 24.4853C7.59888 24.4853 7.87027 24.5154 8.17181 24.5154C10.4032 24.5154 13.69 24.1234 15.7707 22.1634C17.0372 20.9572 17.6704 19.3289 17.6704 17.2784C17.6704 13.298 14.1725 11.8205 11.0968 10.4937C8.41304 9.34783 5.88008 8.26227 5.88008 5.75947C5.88008 5.669 6.0007 3.37728 8.86536 3.37728C10.7651 3.37728 13.7202 3.52805 15.8913 3.64867C17.1276 3.70898 18.183 2.86466 18.364 1.62833L18.5449 0.512623H18.364C18.1529 0.482468 12.6045 0 11.0968 0Z" fill="white"/>
<path d="M35.0996 8.05122C34.014 6.72443 31.9937 6.06104 29.0687 6.06104C25.4502 6.06104 23.2188 6.39273 21.6206 8.05122C19.9621 9.80017 19.1178 12.9965 18.756 18.8163C18.7258 18.9972 18.364 20.8366 19.6003 22.4047C20.716 23.8219 22.7665 24.5155 25.6613 24.5155C27.3499 24.5155 29.0687 24.3948 30.7875 24.1536C32.2651 23.9425 33.4713 22.7364 33.6823 21.2588L33.7125 21.0477L33.5014 21.0779C33.4411 21.0779 28.8577 21.5 27.0786 21.4699C26.9881 21.4699 26.8675 21.4699 26.777 21.4699C25.7819 21.4699 24.6662 21.4397 23.9727 20.6256C23.3394 19.8415 23.1887 18.5148 23.5203 16.4944H35.5519V16.3436C35.5821 16.1627 35.9439 12.0617 35.9439 10.946C36.0042 10.4033 36.0042 9.13677 35.0996 8.05122ZM29.2497 9.07646C29.5512 9.07646 29.8527 9.10662 30.1241 9.10662C30.5161 9.10662 30.8177 9.25739 31.0589 9.52878C31.8731 10.5239 31.5715 12.8759 31.4811 13.4488H24.0631C24.3647 8.86538 26.9579 8.986 29.2497 9.07646Z" fill="white"/>
<path d="M101.771 6.06104C98.1522 6.06104 95.9208 6.39273 94.3226 8.05122C92.6641 9.80017 91.8198 12.9965 91.4579 18.8163C91.4278 18.9972 91.0659 20.8366 92.3023 22.4047C93.418 23.8219 95.4685 24.5155 98.3633 24.5155C100.052 24.5155 101.771 24.3948 103.489 24.1536C104.967 23.9425 106.173 22.7364 106.384 21.2588L106.414 21.0477L106.203 21.0779C106.143 21.0779 101.56 21.5 99.7805 21.4699C99.6901 21.4699 99.5694 21.4699 99.479 21.4699C98.4839 21.4699 97.3682 21.4397 96.6746 20.6256C96.0414 19.8415 95.8906 18.5148 96.2223 16.4944H108.254V16.3436C108.284 16.1627 108.646 12.0617 108.646 10.946C108.646 10.4033 108.646 9.16693 107.741 8.05122C106.716 6.72443 104.666 6.06104 101.771 6.06104ZM101.921 9.07646C102.223 9.07646 102.525 9.10662 102.796 9.10662C103.188 9.10662 103.489 9.25739 103.731 9.52878C104.545 10.5239 104.243 12.8759 104.153 13.4488H96.7651C97.0666 8.86538 99.6599 8.986 101.921 9.07646Z" fill="white"/>
<path d="M78.0694 7.41786C77.2251 6.51323 76.0792 6.06092 74.6016 6.06092C74.5112 6.06092 72.1591 6.09107 68.8422 7.47817L68.4803 6.36246L64.9221 6.03076L64.6507 7.93048C64.1984 7.20678 63.143 6.06092 61.0322 6.06092C58.4088 6.06092 53.7952 7.35755 53.0112 7.59878C52.7398 7.23693 51.6241 6.06092 49.2419 6.06092C47.3723 6.06092 43.3015 7.3877 42.427 7.68925L42.1556 6.48308L38.3562 6.42277L35.8835 24.1233H40.7082L42.5778 10.5539C43.2412 10.4031 47.0105 9.4985 47.9453 9.4985C48.4579 9.4985 48.8197 9.58897 49.0007 9.8302C49.1816 10.0111 49.2117 10.3127 49.1816 10.7047C49.061 11.6696 47.4025 23.8218 47.3723 23.9424L47.3422 24.1233H52.197L53.9158 10.2524C54.5792 10.1317 58.0771 9.55881 59.4039 9.55881C59.7959 9.55881 60.0673 9.67943 60.218 9.86035C60.4894 10.2222 60.3387 10.8253 60.3387 10.8253L58.4088 24.0932H62.4193L61.4845 30.908H64.0778C65.2538 30.908 66.2489 30.0336 66.4298 28.8575L67.0932 24.0932C67.7868 24.1836 70.5911 24.4852 71.4957 24.4852C71.5561 24.4852 71.6164 24.4852 71.7068 24.4852C72.4607 24.5153 74.481 24.6058 76.2601 22.9473C78.3408 20.9873 79.4263 17.3085 79.4866 12.0013C79.5469 11.8807 79.6977 9.13665 78.0694 7.41786ZM74.7826 13.1773C74.6318 15.1977 74.1795 21.4094 71.164 21.319C68.8422 21.2587 67.8169 20.9873 67.5154 20.8667L68.9628 10.6444C69.4452 10.4333 71.8274 9.46835 73.0638 9.46835C73.6065 9.46835 73.9684 9.58897 74.2398 9.89051C74.7524 10.4333 74.9032 11.4585 74.7826 13.1773Z" fill="white"/>
<path d="M92.1213 9.46835H92.2721L92.8149 6.03076H92.634C92.6038 6.03076 89.2567 6.12122 86 7.59878L85.9699 6.39261L81.8991 6.03076L79.3359 24.1233H82.0498C83.2258 24.1233 84.2511 23.2489 84.4019 22.0728L85.9699 10.7047C86.573 10.5237 90.1312 9.40804 92.1213 9.46835Z" fill="white"/>
<path d="M160.089 11.4887C159.245 10.0413 158.008 9.28746 156.471 9.28746C154.209 9.28746 150.018 11.1872 147.454 12.9361C147.424 12.9361 147.032 13.2377 147.123 13.7201C147.183 13.9614 147.334 14.1423 147.545 14.2328C147.756 14.3232 147.997 14.3232 148.208 14.2026C148.329 14.1423 153.515 11.6697 156.621 11.6697C157.888 11.6697 158.069 13.5995 158.008 16.2531C157.918 19.2082 157.043 22.2538 155.687 22.2538C154.149 22.2538 148.269 19.0876 142.057 15.7405C133.252 11.0063 123.271 5.60864 119.471 5.60864C117.451 5.60864 115.792 6.6942 114.677 8.71453C113.621 10.6143 113.079 13.3281 113.169 16.1928C113.259 18.967 113.893 21.5301 114.948 23.1886C115.792 24.5154 116.818 25.2089 117.964 25.2089C118.024 25.2089 118.084 25.2089 118.144 25.2089C122.999 24.9375 133.795 20.0827 134.367 19.8415C134.639 19.751 134.82 19.4796 134.82 19.2082C134.82 18.8162 134.518 18.5147 134.126 18.5147C134.036 18.5147 133.342 18.6956 131.231 19.2384C127.492 20.2335 121.22 22.1935 120.074 22.1935C119.14 22.1935 118.416 21.5904 117.873 20.3842C117.421 19.3288 117.18 17.5497 117.18 15.9214C117.18 12.8758 118.084 9.58901 119.562 9.58901C122.155 9.58901 128.879 13.0567 135.996 16.7356C144.047 20.8969 152.4 25.1788 156.079 25.1788C157.556 25.1788 158.913 24.1837 159.878 22.3443C160.722 20.7159 161.205 18.5448 161.205 16.4039C161.205 14.474 160.813 12.7251 160.089 11.4887Z" fill="white"/>
<path d="M82.8639 29.7926C83.0448 29.7624 83.1052 29.8227 83.075 30.0036L82.7433 32.024H84.4923C84.643 32.024 84.7033 32.0843 84.7033 32.2351L84.5526 33.1397C84.5526 33.2905 84.4621 33.3809 84.2812 33.3809H82.5322L81.8387 37.7834C81.7482 38.4167 81.899 38.5373 82.6227 38.5373H83.2559C83.4067 38.5373 83.4972 38.5976 83.467 38.7484L83.3162 39.7133C83.2861 39.8641 83.1956 39.9546 83.0448 39.9847C82.683 40.045 82.3211 40.0752 81.9894 40.0752C80.8737 40.0752 79.6977 40.045 79.9691 38.2961L80.7531 33.3508H79.6374C79.4866 33.3508 79.4263 33.2905 79.4263 33.1095L79.5771 32.2049C79.5771 32.0541 79.6676 31.9938 79.8485 31.9938H80.9944L81.2657 30.3353C81.2959 30.2147 81.3562 30.1243 81.507 30.0941L82.8639 29.7926Z" fill="white"/>
<path d="M91.5785 32.7175C91.9404 33.2301 92.0007 34.2855 91.7594 35.8535L91.6991 36.2757C91.669 36.5772 91.5484 36.6677 91.1563 36.6677H86.5729C86.4824 37.4216 86.5427 37.9342 86.7237 38.1754C86.9046 38.4166 87.3569 38.5373 88.0806 38.5373H90.5533C90.704 38.5373 90.7643 38.5976 90.7342 38.7483L90.5834 39.653C90.5834 39.7736 90.493 39.864 90.3422 39.8942C89.6185 39.9847 88.7742 40.045 87.7489 40.045C84.9446 40.045 84.4319 39.2308 84.9144 35.9741C85.1858 34.3458 85.5778 33.2301 86.1206 32.7175C86.6634 32.1747 87.6283 31.9033 89.0154 31.9033C90.3723 31.9335 91.2167 32.2049 91.5785 32.7175ZM87.3569 33.8633C87.0855 34.1347 86.8744 34.6474 86.7538 35.4314H90.0708C90.1914 34.6474 90.1613 34.1347 89.9803 33.8633C89.7994 33.592 89.4074 33.4713 88.7742 33.4713C88.1108 33.4713 87.6283 33.592 87.3569 33.8633Z" fill="white"/>
<path d="M99.3885 32.1143C99.5393 32.1444 99.5996 32.2349 99.5694 32.3857L99.4187 33.2601C99.4187 33.4109 99.3282 33.4712 99.1473 33.4712H96.8857C96.1318 33.4712 95.6192 33.622 95.378 33.9537C95.1066 34.2854 94.8955 34.9488 94.7146 36.0042C94.5337 37.0294 94.5337 37.723 94.6844 38.0547C94.8654 38.3864 95.3177 38.5673 96.0715 38.5673H98.3331C98.4839 38.5673 98.5442 38.6276 98.5442 38.7784L98.3934 39.6528C98.3633 39.8036 98.2728 39.8941 98.122 39.9242C97.4888 40.0147 96.7349 40.075 95.8303 40.075C94.3829 40.075 93.4783 39.8036 93.1164 39.291C92.7546 38.7482 92.7244 37.6627 92.9656 36.0042C93.237 34.3457 93.629 33.2601 94.1417 32.7475C94.6844 32.2047 95.6795 31.9635 97.1269 31.9635C98.0617 31.9333 98.8156 31.9936 99.3885 32.1143Z" fill="white"/>
<path d="M105.661 31.9939C106.294 32.0542 106.837 32.2351 107.108 32.5367C107.53 33.0493 107.59 33.8635 107.379 35.4013L106.686 39.834C106.656 39.9848 106.565 40.0451 106.414 40.0451H105.118C104.997 40.0451 104.907 39.9848 104.937 39.834L105.6 35.733C105.721 34.8586 105.721 34.3459 105.661 34.0142C105.63 33.8635 105.54 33.7428 105.389 33.6524C105.088 33.5016 104.877 33.4715 104.243 33.4715H102.585L101.59 39.8039C101.56 39.9546 101.469 40.0149 101.318 40.0149H99.9916C99.8709 40.0149 99.8106 39.9546 99.8106 39.8039L100.987 32.4161C101.017 32.2351 101.077 32.205 101.228 32.1748C102.012 32.0241 103.097 31.9336 104.515 31.9336C104.967 31.9336 105.359 31.9637 105.661 31.9939Z" fill="white"/>
<path d="M115.431 32.4462C116.154 33.0191 116.184 34.0444 115.883 36.0346C115.642 37.6629 115.22 38.7786 114.677 39.2912C114.134 39.834 113.139 40.0752 111.722 40.0752C108.857 40.0752 108.314 39.2611 108.857 36.0044C109.128 34.3459 109.52 33.2604 110.063 32.7478C110.606 32.205 111.601 31.9336 113.048 31.9336C114.224 31.9336 114.918 32.0844 115.431 32.4462ZM110.576 38.0549C110.757 38.3866 111.209 38.5675 111.963 38.5675C112.717 38.5675 113.229 38.4168 113.471 38.0851C113.742 37.7534 113.953 37.0598 114.134 36.0044C114.315 34.9792 114.315 34.2856 114.134 33.9539C113.983 33.5921 113.501 33.4413 112.747 33.4413C111.993 33.4413 111.48 33.5921 111.239 33.9238C110.968 34.2555 110.757 34.949 110.576 36.0044C110.425 37.0598 110.425 37.7232 110.576 38.0549Z" fill="white"/>
<path d="M120.165 28.948C120.285 28.948 120.376 29.0083 120.346 29.1591L118.657 39.8035C118.657 39.9543 118.567 40.0146 118.416 40.0146H117.089C116.968 40.0146 116.878 39.9543 116.908 39.8035L118.597 29.1591C118.597 29.0083 118.687 28.948 118.838 28.948H120.165Z" fill="white"/>
<path d="M127.492 32.4462C128.216 33.0191 128.246 34.0444 127.945 36.0346C127.703 37.6629 127.281 38.7786 126.738 39.2912C126.196 39.834 125.201 40.0752 123.783 40.0752C120.919 40.0752 120.376 39.2611 120.919 36.0044C121.19 34.3459 121.582 33.2604 122.125 32.7478C122.668 32.205 123.663 31.9336 125.11 31.9336C126.286 31.9336 126.98 32.0844 127.492 32.4462ZM122.637 38.0549C122.818 38.3866 123.271 38.5675 124.025 38.5675C124.778 38.5675 125.291 38.4168 125.532 38.0851C125.804 37.7534 126.015 37.0598 126.196 36.0044C126.377 34.9792 126.377 34.2856 126.196 33.9539C126.045 33.5921 125.562 33.4413 124.809 33.4413C124.055 33.4413 123.542 33.5921 123.301 33.9238C123.029 34.2555 122.818 34.949 122.637 36.0044C122.487 37.0598 122.487 37.7232 122.637 38.0549Z" fill="white"/>
<path d="M136.569 32.2047C136.75 32.2047 136.84 32.3253 136.81 32.5063L135.694 39.5624C135.483 40.9193 135.242 41.643 134.639 42.2159C134.066 42.7889 133.161 42.9999 131.714 42.9999C130.839 42.9999 130.055 42.9396 129.362 42.8492C129.241 42.819 129.181 42.7587 129.211 42.6079L129.362 41.7636C129.362 41.6128 129.452 41.5525 129.603 41.5525H131.865C132.588 41.5525 133.071 41.4621 133.342 41.2208C133.614 41.0098 133.795 40.6178 133.885 40.0448V39.9845C133.342 40.075 132.709 40.1051 132.015 40.1051C130.689 40.1051 129.844 39.8337 129.482 39.2608C129.121 38.6879 129.09 37.6023 129.362 35.974C129.603 34.3758 130.025 33.3204 130.568 32.7776C131.141 32.2349 132.136 31.9635 133.583 31.9635C134.759 31.9333 135.755 32.0238 136.569 32.2047ZM134.91 33.4712H133.252C132.498 33.4712 131.985 33.622 131.714 33.9537C131.442 34.2854 131.231 34.9789 131.081 36.0042C130.9 37.0294 130.9 37.7229 131.081 38.0546C131.262 38.3863 131.744 38.5371 132.528 38.5371C133.191 38.5371 133.704 38.507 134.096 38.4466L134.91 33.4712Z" fill="white"/>
<path d="M140.308 32.0239C140.459 32.0239 140.519 32.0842 140.489 32.235L139.283 39.8037C139.283 39.9544 139.192 40.0148 139.041 40.0148H137.715C137.594 40.0148 137.504 39.9544 137.534 39.8037L138.74 32.235C138.77 32.0842 138.86 32.0239 139.011 32.0239H140.308ZM141.062 29.7322C140.971 30.3955 140.549 30.7272 139.856 30.7272C139.162 30.7272 138.86 30.3654 138.951 29.7322C139.041 29.0688 139.464 28.7371 140.157 28.7371C140.82 28.7371 141.152 29.0989 141.062 29.7322Z" fill="white"/>
<path d="M148.148 34.3156L147.334 39.3513C147.334 39.5624 147.213 39.7132 146.972 39.7735C146.188 39.9846 145.102 40.1052 143.655 40.1052C141.635 40.1052 140.67 39.7735 140.971 37.6928C141.122 36.8184 141.424 36.2153 141.936 35.8836C142.449 35.5519 143.172 35.4011 144.107 35.4011H146.218L146.339 34.6472C146.459 33.8331 146.037 33.5014 144.891 33.5014H142.509C142.358 33.5014 142.328 33.4712 142.328 33.2602L142.479 32.3857C142.479 32.2651 142.569 32.1746 142.72 32.1444C143.444 32.0238 144.228 31.9635 145.163 31.9635C147.635 31.9334 148.419 32.6872 148.148 34.3156ZM146.037 36.6374H144.047C143.263 36.6374 142.901 36.9088 142.78 37.6024C142.66 38.4165 142.992 38.6276 144.077 38.6276C144.771 38.6276 145.344 38.5673 145.766 38.4768L146.037 36.6374Z" fill="white"/>
</svg>
