<svg width="205" height="24" viewBox="0 0 205 24" fill="none" xmlns="http://www.w3.org/2000/svg">
<path d="M201.72 1.08C202.32 1.08 202.84 1.32 203.24 1.76C203.6 2.2 203.8 2.8 203.68 3.36L200.88 21.2C200.72 22.16 199.92 22.88 198.92 22.88H91.9997C91.1597 22.88 90.3997 22.36 90.0797 21.6L86.3597 12.8C86.1997 12.36 86.2397 11.92 86.4797 11.52L92.6797 2.08C93.0797 1.48 93.7197 1.12 94.4397 1.12H201.72V1.08ZM201.72 0H94.4397C93.3597 0 92.3597 0.56 91.7597 1.44L85.5597 10.88C85.1197 11.56 85.0397 12.44 85.3597 13.2L89.1197 22.04C89.5997 23.24 90.7597 24 92.0797 24H199C200.52 24 201.8 22.88 202.04 21.4L204.84 3.56C205.08 1.68 203.64 0 201.72 0Z" fill="#DC272B"/>
<path d="M105.92 6.99976H107.12C107.28 6.99976 107.36 7.03976 107.44 7.11976C107.52 7.19976 107.56 7.31976 107.52 7.47976L106.52 17.6798H105.52L106.48 7.83976H106.16L102.2 16.2398C102.12 16.4398 101.96 16.5598 101.72 16.5598H100.68C100.44 16.5598 100.28 16.4398 100.24 16.1998L98.6004 7.83976H98.2404L96.4804 17.6798H95.4404L97.3204 7.43976C97.4004 7.15976 97.5604 6.99976 97.8004 6.99976H99.0004C99.2404 6.99976 99.3604 7.11976 99.4004 7.35976L100.8 14.3598C100.84 14.5198 100.88 14.7598 100.92 15.0798C100.96 15.3998 101 15.6398 101.04 15.7998H101.4C101.64 15.2398 101.84 14.7598 102.04 14.3198L105.36 7.31976C105.52 7.11976 105.68 6.99976 105.92 6.99976Z" fill="#DC272B"/>
<path d="M116.881 7.83992H112.561C111.841 7.83992 111.401 8.23992 111.321 8.99992L110.961 11.6399H115.761L115.641 12.4399H110.841L110.401 15.7599C110.281 16.4799 110.601 16.8399 111.321 16.8399H115.601V17.5999C114.641 17.6799 113.201 17.6799 111.201 17.6799C110.521 17.6799 110.041 17.5199 109.721 17.1599C109.401 16.7999 109.281 16.3199 109.361 15.7199L110.361 8.67992C110.441 8.15992 110.641 7.71992 111.001 7.39992C111.361 7.07992 111.841 6.91992 112.441 6.91992C114.521 6.91992 116.081 6.95992 117.041 6.99992L116.881 7.83992Z" fill="#DC272B"/>
<path d="M127.241 6.99976L125.801 17.2798C125.761 17.5598 125.601 17.6798 125.361 17.6798H124.321C124.121 17.6798 123.961 17.5598 123.881 17.3198L120.841 9.19976C120.641 8.59976 120.481 8.19976 120.441 7.95976H120.121C120.081 8.39976 120.041 8.83976 120.001 9.27976L118.841 17.6798H117.801L119.241 7.39976C119.281 7.11976 119.441 6.99976 119.721 6.99976H120.681C120.921 6.99976 121.081 7.11976 121.161 7.35976L124.121 15.2798C124.321 15.8798 124.521 16.3598 124.601 16.7198H124.961C125.001 16.3998 125.041 15.8798 125.121 15.2398L126.281 6.99976H127.241Z" fill="#DC272B"/>
<path d="M133.121 13.1198L130.921 12.2798C130.201 11.9998 129.681 11.6398 129.441 11.1998C129.201 10.7598 129.081 10.1598 129.201 9.3998C129.281 8.8398 129.441 8.3598 129.601 7.9998C129.801 7.6398 130.081 7.3998 130.401 7.1998C130.761 7.0398 131.121 6.9198 131.481 6.8798C131.841 6.8398 132.321 6.7998 132.881 6.7998C134.001 6.7998 135.001 6.8798 135.961 7.0798L135.841 7.7998C134.681 7.7198 133.681 7.7198 132.761 7.7198C132.481 7.7198 132.241 7.7198 132.081 7.7198C131.921 7.7198 131.761 7.7598 131.521 7.7998C131.281 7.8398 131.121 7.8798 131.001 7.9598C130.881 8.0398 130.761 8.1198 130.641 8.27981C130.521 8.39981 130.401 8.5598 130.321 8.7998C130.241 8.9998 130.201 9.2398 130.161 9.5598C130.081 10.1198 130.161 10.5198 130.321 10.7598C130.481 10.9998 130.841 11.2398 131.361 11.4798L133.521 12.3198C134.321 12.6398 134.841 12.9998 135.081 13.4398C135.321 13.8798 135.401 14.4798 135.281 15.2798C135.201 15.8398 135.081 16.3198 134.881 16.6798C134.681 17.0398 134.441 17.2798 134.081 17.4798C133.721 17.6798 133.361 17.7998 132.961 17.8398C132.561 17.8798 132.041 17.9198 131.361 17.9198C130.241 17.9198 129.201 17.8398 128.201 17.6798L128.321 16.9198C129.561 16.9998 130.601 16.9998 131.401 16.9998C132.401 16.9998 133.081 16.8798 133.481 16.6398C133.881 16.3998 134.121 15.9198 134.241 15.1198C134.321 14.5598 134.281 14.1198 134.121 13.8798C134.041 13.5998 133.681 13.3598 133.121 13.1198Z" fill="#DC272B"/>
<path d="M143.44 14.1598H138.8L137.16 17.6798H136.08L141.12 7.27976C141.2 7.11976 141.32 6.99976 141.52 6.99976H142.68C142.76 6.99976 142.84 7.03976 142.92 7.07976C143 7.15976 143.04 7.19976 143.04 7.27976L145.16 17.6398H144.12L143.44 14.1598ZM143.24 13.2398L142.36 8.67976C142.32 8.55976 142.32 8.43976 142.28 8.23976C142.24 8.03976 142.24 7.87976 142.2 7.79976H141.72C141.68 7.87976 141.64 7.99976 141.52 8.19976C141.44 8.39976 141.36 8.55976 141.28 8.67976L139.2 13.2398H143.24Z" fill="#DC272B"/>
<path d="M149.2 6.99992L147.96 15.7199C147.92 16.0799 147.96 16.3199 148.12 16.5199C148.28 16.7199 148.52 16.7999 148.88 16.7999H152.88L152.84 17.5599C151.92 17.6399 150.52 17.6399 148.68 17.6399C148.08 17.6399 147.6 17.4799 147.28 17.1199C146.96 16.7599 146.84 16.2799 146.92 15.6399L148.12 6.91992H149.2V6.99992Z" fill="#DC272B"/>
<path d="M155.561 17.6798H154.521L156.041 6.99976H157.081L155.561 17.6798Z" fill="#DC272B"/>
<path d="M158.4 17.6799L159.92 6.99988C161.16 6.91988 162.36 6.87988 163.44 6.87988C165 6.87988 166.04 7.27988 166.6 8.11988C167.12 8.95988 167.24 10.3599 166.96 12.3999C166.8 13.5199 166.6 14.4399 166.36 15.1199C166.12 15.7999 165.8 16.3599 165.36 16.7599C164.96 17.1599 164.48 17.4399 163.96 17.5999C163.44 17.7599 162.76 17.8399 161.96 17.8399C160.92 17.7999 159.72 17.7599 158.4 17.6799ZM160.84 7.75988L159.56 16.8799C160.6 16.9199 161.4 16.9199 161.96 16.9199C162.8 16.9199 163.48 16.7999 164 16.5199C164.48 16.2799 164.88 15.7999 165.2 15.1599C165.52 14.5199 165.76 13.5599 165.92 12.2799C166.16 10.5199 166.12 9.31988 165.8 8.67988C165.44 8.03988 164.68 7.71988 163.48 7.71988C163.28 7.71988 162.44 7.75988 160.84 7.75988Z" fill="#DC272B"/>
<path d="M174.76 14.1598H170.12L168.48 17.6798H167.4L172.44 7.27976C172.52 7.11976 172.64 6.99976 172.84 6.99976H174C174.08 6.99976 174.16 7.03976 174.24 7.07976C174.32 7.15976 174.36 7.19976 174.36 7.27976L176.48 17.6398H175.44L174.76 14.1598ZM174.56 13.2398L173.68 8.67976C173.64 8.55976 173.64 8.43976 173.6 8.23976C173.56 8.03976 173.56 7.87976 173.52 7.79976H173.04C173 7.87976 172.96 7.99976 172.84 8.19976C172.76 8.39976 172.68 8.55976 172.6 8.67976L170.44 13.2398H174.56Z" fill="#DC272B"/>
<path d="M178.041 17.6799L179.561 6.99988C180.801 6.91988 182.001 6.87988 183.081 6.87988C184.641 6.87988 185.681 7.27988 186.241 8.11988C186.761 8.95988 186.881 10.3599 186.601 12.3999C186.441 13.5199 186.241 14.4399 186.001 15.1199C185.761 15.7999 185.441 16.3599 185.001 16.7599C184.601 17.1599 184.121 17.4399 183.601 17.5999C183.081 17.7599 182.401 17.8399 181.601 17.8399C180.521 17.7999 179.361 17.7599 178.041 17.6799ZM180.441 7.75988L179.161 16.8799C180.201 16.9199 181.001 16.9199 181.561 16.9199C182.401 16.9199 183.081 16.7999 183.601 16.5199C184.081 16.2799 184.481 15.7999 184.801 15.1599C185.121 14.5199 185.361 13.5599 185.521 12.2799C185.761 10.5199 185.721 9.31988 185.401 8.67988C185.041 8.03988 184.281 7.71988 183.081 7.71988C182.921 7.71988 182.041 7.75988 180.441 7.75988Z" fill="#DC272B"/>
<path d="M195.921 7.83992H191.601C190.881 7.83992 190.441 8.23992 190.361 8.99992L190.001 11.5999H194.801L194.681 12.3999H189.881L189.441 15.7199C189.321 16.4399 189.641 16.7999 190.361 16.7999H194.641V17.5999C193.681 17.6799 192.241 17.6799 190.241 17.6799C189.561 17.6799 189.081 17.5199 188.761 17.1599C188.441 16.7999 188.321 16.3199 188.401 15.7199L189.401 8.67992C189.481 8.15992 189.681 7.71992 190.041 7.39992C190.401 7.07992 190.881 6.91992 191.481 6.91992C193.561 6.91992 195.121 6.95992 196.081 6.99992L195.921 7.83992Z" fill="#DC272B"/>
<path d="M88.0402 13.0801C88.5262 13.0801 88.9202 12.6861 88.9202 12.2001C88.9202 11.7141 88.5262 11.3201 88.0402 11.3201C87.5542 11.3201 87.1602 11.7141 87.1602 12.2001C87.1602 12.6861 87.5542 13.0801 88.0402 13.0801Z" fill="#DC272B"/>
<path d="M7.44 11.76L4.28 10.48C3.08 9.99995 2.28 9.35995 1.84 8.55995C1.44 7.75995 1.28 6.79995 1.44 5.59995C1.68 3.83995 2.28 2.67995 3.28 2.07995C4.28 1.47995 5.8 1.19995 7.88 1.19995C9.96 1.19995 11.76 1.43995 13.32 1.87995L12.96 4.35995C11.52 4.31995 9.8 4.27995 7.8 4.27995C6.8 4.27995 6.16 4.31995 5.8 4.51995C5.44 4.67995 5.2 5.11995 5.08 5.87995C5 6.43995 5.04 6.79995 5.2 6.99995C5.36 7.19995 5.76 7.43995 6.4 7.67995L9.4 8.83995C10.68 9.31995 11.52 9.95995 11.92 10.68C12.32 11.44 12.44 12.4399 12.28 13.7199C12.04 15.5199 11.44 16.76 10.52 17.4C9.56 18.0399 8 18.36 5.72 18.36C3.84 18.36 1.96 18.16 0 17.7199L0.4 15.12C3.8 15.2 5.56 15.24 5.6 15.24C6.72 15.24 7.48 15.12 7.88 14.92C8.28 14.7199 8.52 14.24 8.64 13.56C8.72 13 8.64 12.64 8.48 12.44C8.32 12.2 8 11.96 7.44 11.76Z" fill="#1F3D8C"/>
<path d="M24.16 15.2399L24.4 17.4799C23.08 18.0399 21.32 18.3199 19.16 18.3199C16.88 18.3199 15.32 17.7999 14.48 16.7599C13.64 15.7199 13.32 14.0799 13.6 11.9199C13.88 9.63992 14.56 8.03992 15.56 7.19992C16.6 6.35992 18.24 5.91992 20.48 5.91992C22.56 5.91992 24 6.27992 24.76 6.95992C25.52 7.63992 25.8 8.63992 25.6 9.99992C25.44 11.1199 25 11.9199 24.24 12.3999C23.48 12.8799 22.32 13.1599 20.72 13.2799L17.2 13.5599C17.2 14.3599 17.4 14.8799 17.8 15.1199C18.16 15.3999 18.76 15.5199 19.6 15.5199C21.12 15.5199 22.64 15.3999 24.16 15.2399ZM17.4 11.4399L20.16 11.1599C20.8 11.1199 21.28 10.9999 21.56 10.7599C21.84 10.5599 22.04 10.1599 22.12 9.59992C22.16 9.07992 22.08 8.75992 21.8 8.59992C21.56 8.47992 21.04 8.39992 20.2 8.43992C19.28 8.43992 18.6 8.63992 18.24 9.03992C17.88 9.47992 17.6 10.2399 17.4 11.4399Z" fill="#1F3D8C"/>
<path d="M30.3198 6.23988V8.35988C31.1998 7.47988 31.9998 6.87988 32.7598 6.47988C33.5198 6.07988 34.2798 5.87988 35.1198 5.87988C35.9998 5.87988 36.6798 6.07988 37.1598 6.43988C37.6398 6.83988 37.9598 7.35988 38.0398 8.07988C39.5198 6.59988 41.0398 5.87988 42.5198 5.87988C43.5998 5.87988 44.3998 6.15988 44.9198 6.75988C45.4398 7.35988 45.5998 8.15988 45.4798 9.19988L44.2398 17.9999H40.6798L41.7998 10.1599C41.8798 9.67988 41.8398 9.31988 41.6798 9.11988C41.5198 8.91988 41.2798 8.83988 40.9198 8.83988C40.5198 8.83988 40.0798 8.95988 39.6398 9.23988C39.1998 9.47988 38.5598 9.95988 37.7998 10.6399L36.7598 17.9999H33.3198L34.3998 10.1599C34.4798 9.67988 34.4398 9.35988 34.3198 9.15988C34.1998 8.95988 33.9198 8.87988 33.5598 8.87988C33.1598 8.87988 32.7198 8.99988 32.2398 9.23988C31.7598 9.47988 31.1998 9.91988 30.4398 10.5599L29.3998 17.9999H25.8398L27.5198 6.19988H30.3198V6.23988Z" fill="#1F3D8C"/>
<path d="M50.6805 6.23996L50.6405 8.51996C51.3605 7.79996 52.1605 7.19996 53.0405 6.71996C53.9205 6.23996 54.8005 5.95996 55.6405 5.95996C57.0405 5.95996 58.0005 6.43996 58.5205 7.43996C59.0405 8.39996 59.1605 10.08 58.8405 12.4C58.6805 13.44 58.4805 14.28 58.2405 15.04C58.0005 15.76 57.7205 16.36 57.4005 16.76C57.0805 17.2 56.6805 17.52 56.2405 17.76C55.8005 18 55.3205 18.16 54.8805 18.24C54.4405 18.32 53.8805 18.36 53.2405 18.36C52.0805 18.36 50.8805 18.24 49.6805 18.04C49.6805 18.8 49.6405 19.52 49.5205 20.28L49.1205 22.6H45.5605L47.8805 6.23996H50.6805ZM50.0805 15.88H51.9205C53.1605 15.88 53.9605 15.68 54.3205 15.28C54.6805 14.88 55.0005 13.88 55.2005 12.32C55.4005 10.84 55.4405 9.83996 55.3205 9.43996C55.2005 8.99996 54.8805 8.79996 54.3205 8.79996C53.9205 8.79996 53.3605 8.95996 52.7205 9.31996C52.0805 9.67996 51.4405 10.16 50.8005 10.72L50.0805 15.88Z" fill="#1F3D8C"/>
<path d="M69.8796 5.91992L69.0796 9.19992H68.1996C67.7196 9.19992 67.1596 9.31992 66.5996 9.51992C66.0396 9.71992 65.2396 10.1199 64.1996 10.6399L63.1996 18.0399H59.6396L61.3196 6.23992H64.0796V8.47992C65.8796 6.75992 67.5996 5.91992 69.1596 5.91992H69.8796Z" fill="#1F3D8C"/>
<path d="M79.8797 15.2399L80.1197 17.4799C78.7997 18.0399 77.0397 18.3199 74.8797 18.3199C72.5997 18.3199 71.0397 17.7999 70.1997 16.7599C69.3597 15.7199 69.0397 14.0799 69.3197 11.9199C69.5997 9.63992 70.2797 8.03992 71.2797 7.19992C72.3197 6.35992 73.9597 5.91992 76.1997 5.91992C78.2797 5.91992 79.7197 6.27992 80.4797 6.95992C81.2397 7.63992 81.5197 8.63992 81.3197 9.99992C81.1597 11.1199 80.7197 11.9199 79.9597 12.3999C79.1997 12.8799 78.0397 13.1599 76.4397 13.2799L72.9197 13.5599C72.9197 14.3599 73.1197 14.8799 73.5197 15.1199C73.8797 15.3999 74.4797 15.5199 75.3197 15.5199C76.8397 15.5199 78.3997 15.3999 79.8797 15.2399ZM73.1197 11.4399L75.8797 11.1599C76.5197 11.1199 76.9997 10.9999 77.2797 10.7599C77.5597 10.5599 77.7597 10.1599 77.8397 9.59992C77.8797 9.07992 77.7997 8.75992 77.5197 8.59992C77.2797 8.47992 76.7597 8.39992 75.9197 8.43992C74.9997 8.43992 74.3197 8.63992 73.9597 9.03992C73.6397 9.47992 73.3197 10.2399 73.1197 11.4399Z" fill="#1F3D8C"/>
</svg>
